solid OpenSCAD_Model
  facet normal -1 0 0
    outer loop
      vertex 50 1.17557 -33.382
      vertex 50 32.5 -25
      vertex 50 1.61803 -33.8244
    endloop
  endfacet
  facet normal -1 0 0
    outer loop
      vertex 50 32.5 25
      vertex 50 1.90211 74.382
      vertex 50 2 75
    endloop
  endfacet
  facet normal -1 0 0
    outer loop
      vertex 50 0.618033 -33.0979
      vertex 50 32.5 -25
      vertex 50 1.17557 -33.382
    endloop
  endfacet
  facet normal -1 0 0
    outer loop
      vertex 50 32.5 25
      vertex 50 1.61803 73.8244
      vertex 50 1.90211 74.382
    endloop
  endfacet
  facet normal -1 -0 0
    outer loop
      vertex 50 32.5 -25
      vertex 50 0.618033 -33.0979
      vertex 50 32.5 25
    endloop
  endfacet
  facet normal -1 0 0
    outer loop
      vertex 50 32.5 25
      vertex 50 1.17557 73.382
      vertex 50 1.61803 73.8244
    endloop
  endfacet
  facet normal -1 0 0
    outer loop
      vertex 50 0 -33
      vertex 50 32.5 25
      vertex 50 0.618033 -33.0979
    endloop
  endfacet
  facet normal -1 0 0
    outer loop
      vertex 50 32.5 25
      vertex 50 0.618033 73.0979
      vertex 50 1.17557 73.382
    endloop
  endfacet
  facet normal -1 -0 0
    outer loop
      vertex 50 32.5 25
      vertex 50 0 -33
      vertex 50 -32.5 25
    endloop
  endfacet
  facet normal -1 0 -0
    outer loop
      vertex 50 0 73
      vertex 50 32.5 25
      vertex 50 -32.5 25
    endloop
  endfacet
  facet normal -1 0 0
    outer loop
      vertex 50 -32.5 25
      vertex 50 0 -33
      vertex 50 -0.618033 -33.0979
    endloop
  endfacet
  facet normal -1 0 0
    outer loop
      vertex 50 32.5 25
      vertex 50 0 73
      vertex 50 0.618033 73.0979
    endloop
  endfacet
  facet normal -1 0 0
    outer loop
      vertex 50 -32.5 -25
      vertex 50 -0.618033 -33.0979
      vertex 50 -1.17557 -33.382
    endloop
  endfacet
  facet normal -1 -0 0
    outer loop
      vertex 50 0 73
      vertex 50 -32.5 25
      vertex 50 -0.618033 73.0979
    endloop
  endfacet
  facet normal -1 0 0
    outer loop
      vertex 50 -32.5 -25
      vertex 50 -1.17557 -33.382
      vertex 50 -1.61803 -33.8244
    endloop
  endfacet
  facet normal -1 -0 0
    outer loop
      vertex 50 -0.618033 73.0979
      vertex 50 -32.5 25
      vertex 50 -1.17557 73.382
    endloop
  endfacet
  facet normal -1 0 0
    outer loop
      vertex 50 -32.5 -25
      vertex 50 -1.61803 -33.8244
      vertex 50 -1.90211 -34.382
    endloop
  endfacet
  facet normal -1 -0 0
    outer loop
      vertex 50 -1.17557 73.382
      vertex 50 -32.5 25
      vertex 50 -1.61803 73.8244
    endloop
  endfacet
  facet normal -1 0 0
    outer loop
      vertex 50 -32.5 -25
      vertex 50 -1.90211 -34.382
      vertex 50 -2 -35
    endloop
  endfacet
  facet normal -1 -0 0
    outer loop
      vertex 50 -1.61803 73.8244
      vertex 50 -32.5 25
      vertex 50 -1.90211 74.382
    endloop
  endfacet
  facet normal -1 0 0
    outer loop
      vertex 50 1.90211 -35.618
      vertex 50 32.5 -25
      vertex 50 32.5 -55
    endloop
  endfacet
  facet normal -1 0 0
    outer loop
      vertex 50 1.90211 -34.382
      vertex 50 32.5 -25
      vertex 50 2 -35
    endloop
  endfacet
  facet normal -1 0 0
    outer loop
      vertex 50 1.61803 -33.8244
      vertex 50 32.5 -25
      vertex 50 1.90211 -34.382
    endloop
  endfacet
  facet normal -1 0 0
    outer loop
      vertex 50 32.5 -25
      vertex 50 1.90211 -35.618
      vertex 50 2 -35
    endloop
  endfacet
  facet normal -1 0 0
    outer loop
      vertex 50 32.5 -55
      vertex 50 1.61803 -36.1756
      vertex 50 1.90211 -35.618
    endloop
  endfacet
  facet normal -1 0 0
    outer loop
      vertex 50 32.5 -55
      vertex 50 1.17557 -36.618
      vertex 50 1.61803 -36.1756
    endloop
  endfacet
  facet normal -1 0 0
    outer loop
      vertex 50 32.5 -55
      vertex 50 0.618033 -36.9021
      vertex 50 1.17557 -36.618
    endloop
  endfacet
  facet normal -1 0 0
    outer loop
      vertex 50 32.5 -55
      vertex 50 0 -37
      vertex 50 0.618033 -36.9021
    endloop
  endfacet
  facet normal -1 0 0
    outer loop
      vertex 50 -32.5 -55
      vertex 50 0 -37
      vertex 50 32.5 -55
    endloop
  endfacet
  facet normal -1 -0 0
    outer loop
      vertex 50 0 -37
      vertex 50 -32.5 -55
      vertex 50 -0.618033 -36.9021
    endloop
  endfacet
  facet normal -1 0 0
    outer loop
      vertex 50 -1.90211 -35.618
      vertex 50 -32.5 -25
      vertex 50 -2 -35
    endloop
  endfacet
  facet normal -1 0 0
    outer loop
      vertex 50 -32.5 -25
      vertex 50 -1.90211 -35.618
      vertex 50 -32.5 -55
    endloop
  endfacet
  facet normal -1 -0 0
    outer loop
      vertex 50 -1.61803 -36.1756
      vertex 50 -32.5 -55
      vertex 50 -1.90211 -35.618
    endloop
  endfacet
  facet normal -1 -0 0
    outer loop
      vertex 50 -1.17557 -36.618
      vertex 50 -32.5 -55
      vertex 50 -1.61803 -36.1756
    endloop
  endfacet
  facet normal -1 -0 0
    outer loop
      vertex 50 -0.618033 -36.9021
      vertex 50 -32.5 -55
      vertex 50 -1.17557 -36.618
    endloop
  endfacet
  facet normal -1 0 0
    outer loop
      vertex 50 32.5 25
      vertex 50 2 75
      vertex 50 32.5 95
    endloop
  endfacet
  facet normal -1 0 0
    outer loop
      vertex 50 1.90211 75.618
      vertex 50 32.5 95
      vertex 50 2 75
    endloop
  endfacet
  facet normal -1 0 0
    outer loop
      vertex 50 1.61803 76.1756
      vertex 50 32.5 95
      vertex 50 1.90211 75.618
    endloop
  endfacet
  facet normal -1 0 0
    outer loop
      vertex 50 1.17557 76.618
      vertex 50 32.5 95
      vertex 50 1.61803 76.1756
    endloop
  endfacet
  facet normal -1 0 0
    outer loop
      vertex 50 0.618033 76.9021
      vertex 50 32.5 95
      vertex 50 1.17557 76.618
    endloop
  endfacet
  facet normal -1 0 0
    outer loop
      vertex 50 0 77
      vertex 50 32.5 95
      vertex 50 0.618033 76.9021
    endloop
  endfacet
  facet normal -1 0 0
    outer loop
      vertex 50 -32.5 95
      vertex 50 0 77
      vertex 50 -0.618033 76.9021
    endloop
  endfacet
  facet normal -1 0 0
    outer loop
      vertex 50 -32.5 95
      vertex 50 -0.618033 76.9021
      vertex 50 -1.17557 76.618
    endloop
  endfacet
  facet normal -1 0 0
    outer loop
      vertex 50 -0.618033 -33.0979
      vertex 50 -32.5 -25
      vertex 50 -32.5 25
    endloop
  endfacet
  facet normal -1 0 0
    outer loop
      vertex 50 -32.5 95
      vertex 50 -1.90211 74.382
      vertex 50 -32.5 25
    endloop
  endfacet
  facet normal -1 0 0
    outer loop
      vertex 50 -1.90211 74.382
      vertex 50 -32.5 95
      vertex 50 -2 75
    endloop
  endfacet
  facet normal -1 0 0
    outer loop
      vertex 50 -2 75
      vertex 50 -32.5 95
      vertex 50 -1.90211 75.618
    endloop
  endfacet
  facet normal -1 0 0
    outer loop
      vertex 50 0 77
      vertex 50 -32.5 95
      vertex 50 32.5 95
    endloop
  endfacet
  facet normal -1 0 0
    outer loop
      vertex 50 -1.61803 76.1756
      vertex 50 -32.5 95
      vertex 50 -1.17557 76.618
    endloop
  endfacet
  facet normal -1 0 0
    outer loop
      vertex 50 -1.90211 75.618
      vertex 50 -32.5 95
      vertex 50 -1.61803 76.1756
    endloop
  endfacet
  facet normal -0 0 1
    outer loop
      vertex 50 32.5 95
      vertex 53 -32.5 95
      vertex 53 32.5 95
    endloop
  endfacet
  facet normal 0 0 1
    outer loop
      vertex 53 -32.5 95
      vertex 50 32.5 95
      vertex 50 -32.5 95
    endloop
  endfacet
  facet normal 1 -0 0
    outer loop
      vertex 53 -35.5 25
      vertex 53 -32.5 -25
      vertex 53 -32.5 25
    endloop
  endfacet
  facet normal 1 0 0
    outer loop
      vertex 53 -32.5 -25
      vertex 53 -35.5 25
      vertex 53 -35.5 -25
    endloop
  endfacet
  facet normal 1 -0 0
    outer loop
      vertex 53 1.61803 73.8244
      vertex 53 32.5 25
      vertex 53 1.90211 74.382
    endloop
  endfacet
  facet normal 1 0 0
    outer loop
      vertex 53 32.5 25
      vertex 53 1.90211 -34.382
      vertex 53 2 -35
    endloop
  endfacet
  facet normal 1 -0 0
    outer loop
      vertex 53 1.17557 73.382
      vertex 53 32.5 25
      vertex 53 1.61803 73.8244
    endloop
  endfacet
  facet normal 1 0 0
    outer loop
      vertex 53 32.5 25
      vertex 53 1.61803 -33.8244
      vertex 53 1.90211 -34.382
    endloop
  endfacet
  facet normal 1 -0 0
    outer loop
      vertex 53 0.618033 73.0979
      vertex 53 32.5 25
      vertex 53 1.17557 73.382
    endloop
  endfacet
  facet normal 1 0 0
    outer loop
      vertex 53 32.5 25
      vertex 53 1.17557 -33.382
      vertex 53 1.61803 -33.8244
    endloop
  endfacet
  facet normal 1 -0 0
    outer loop
      vertex 53 0 73
      vertex 53 32.5 25
      vertex 53 0.618033 73.0979
    endloop
  endfacet
  facet normal 1 0 0
    outer loop
      vertex 53 32.5 25
      vertex 53 0.618033 -33.0979
      vertex 53 1.17557 -33.382
    endloop
  endfacet
  facet normal 1 0 0
    outer loop
      vertex 53 32.5 25
      vertex 53 0 73
      vertex 53 -32.5 25
    endloop
  endfacet
  facet normal 1 0 -0
    outer loop
      vertex 53 0 -33
      vertex 53 32.5 25
      vertex 53 -32.5 25
    endloop
  endfacet
  facet normal 1 0 0
    outer loop
      vertex 53 -32.5 25
      vertex 53 0 73
      vertex 53 -0.618033 73.0979
    endloop
  endfacet
  facet normal 1 0 0
    outer loop
      vertex 53 32.5 25
      vertex 53 0 -33
      vertex 53 0.618033 -33.0979
    endloop
  endfacet
  facet normal 1 0 0
    outer loop
      vertex 53 -32.5 25
      vertex 53 -0.618033 73.0979
      vertex 53 -1.17557 73.382
    endloop
  endfacet
  facet normal 1 0 0
    outer loop
      vertex 53 0 -33
      vertex 53 -32.5 25
      vertex 53 -0.618033 -33.0979
    endloop
  endfacet
  facet normal 1 0 0
    outer loop
      vertex 53 -32.5 25
      vertex 53 -1.17557 73.382
      vertex 53 -1.61803 73.8244
    endloop
  endfacet
  facet normal 1 -0 0
    outer loop
      vertex 53 -32.5 -25
      vertex 53 -0.618033 -33.0979
      vertex 53 -32.5 25
    endloop
  endfacet
  facet normal 1 0 0
    outer loop
      vertex 53 -32.5 25
      vertex 53 -1.61803 73.8244
      vertex 53 -1.90211 74.382
    endloop
  endfacet
  facet normal 1 0 0
    outer loop
      vertex 53 -0.618033 -33.0979
      vertex 53 -32.5 -25
      vertex 53 -1.17557 -33.382
    endloop
  endfacet
  facet normal 1 0 0
    outer loop
      vertex 53 -32.5 95
      vertex 53 -1.90211 74.382
      vertex 53 -2 75
    endloop
  endfacet
  facet normal 1 0 0
    outer loop
      vertex 53 -1.17557 -33.382
      vertex 53 -32.5 -25
      vertex 53 -1.61803 -33.8244
    endloop
  endfacet
  facet normal 1 0 0
    outer loop
      vertex 53 1.90211 74.382
      vertex 53 32.5 95
      vertex 53 2 75
    endloop
  endfacet
  facet normal 1 0 0
    outer loop
      vertex 53 32.5 95
      vertex 53 1.90211 74.382
      vertex 53 32.5 25
    endloop
  endfacet
  facet normal 1 0 0
    outer loop
      vertex 53 32.5 25
      vertex 53 2 -35
      vertex 53 32.5 -25
    endloop
  endfacet
  facet normal 1 0 0
    outer loop
      vertex 53 32.5 95
      vertex 53 1.90211 75.618
      vertex 53 2 75
    endloop
  endfacet
  facet normal 1 0 0
    outer loop
      vertex 53 32.5 95
      vertex 53 1.61803 76.1756
      vertex 53 1.90211 75.618
    endloop
  endfacet
  facet normal 1 0 0
    outer loop
      vertex 53 32.5 95
      vertex 53 1.17557 76.618
      vertex 53 1.61803 76.1756
    endloop
  endfacet
  facet normal 1 0 0
    outer loop
      vertex 53 32.5 95
      vertex 53 0.618033 76.9021
      vertex 53 1.17557 76.618
    endloop
  endfacet
  facet normal 1 0 0
    outer loop
      vertex 53 32.5 95
      vertex 53 0 77
      vertex 53 0.618033 76.9021
    endloop
  endfacet
  facet normal 1 -0 0
    outer loop
      vertex 53 -32.5 95
      vertex 53 0 77
      vertex 53 32.5 95
    endloop
  endfacet
  facet normal 1 0 0
    outer loop
      vertex 53 0 77
      vertex 53 -32.5 95
      vertex 53 -0.618033 76.9021
    endloop
  endfacet
  facet normal 1 0 0
    outer loop
      vertex 53 -1.90211 74.382
      vertex 53 -32.5 95
      vertex 53 -32.5 25
    endloop
  endfacet
  facet normal 1 0 0
    outer loop
      vertex 53 -1.90211 75.618
      vertex 53 -32.5 95
      vertex 53 -2 75
    endloop
  endfacet
  facet normal 1 0 0
    outer loop
      vertex 53 -1.61803 76.1756
      vertex 53 -32.5 95
      vertex 53 -1.90211 75.618
    endloop
  endfacet
  facet normal 1 0 0
    outer loop
      vertex 53 -1.17557 76.618
      vertex 53 -32.5 95
      vertex 53 -1.61803 76.1756
    endloop
  endfacet
  facet normal 1 0 0
    outer loop
      vertex 53 -0.618033 76.9021
      vertex 53 -32.5 95
      vertex 53 -1.17557 76.618
    endloop
  endfacet
  facet normal 1 -0 0
    outer loop
      vertex 53 32.5 25
      vertex 53 35.5 -25
      vertex 53 35.5 25
    endloop
  endfacet
  facet normal 1 0 0
    outer loop
      vertex 53 35.5 -25
      vertex 53 32.5 25
      vertex 53 32.5 -25
    endloop
  endfacet
  facet normal 1 0 0
    outer loop
      vertex 53 1.90211 -35.618
      vertex 53 32.5 -25
      vertex 53 2 -35
    endloop
  endfacet
  facet normal 1 0 0
    outer loop
      vertex 53 32.5 -25
      vertex 53 1.90211 -35.618
      vertex 53 32.5 -55
    endloop
  endfacet
  facet normal 1 -0 0
    outer loop
      vertex 53 1.61803 -36.1756
      vertex 53 32.5 -55
      vertex 53 1.90211 -35.618
    endloop
  endfacet
  facet normal 1 -0 0
    outer loop
      vertex 53 1.17557 -36.618
      vertex 53 32.5 -55
      vertex 53 1.61803 -36.1756
    endloop
  endfacet
  facet normal 1 -0 0
    outer loop
      vertex 53 0.618033 -36.9021
      vertex 53 32.5 -55
      vertex 53 1.17557 -36.618
    endloop
  endfacet
  facet normal 1 -0 0
    outer loop
      vertex 53 0 -37
      vertex 53 32.5 -55
      vertex 53 0.618033 -36.9021
    endloop
  endfacet
  facet normal 1 0 0
    outer loop
      vertex 53 -32.5 -55
      vertex 53 0 -37
      vertex 53 -0.618033 -36.9021
    endloop
  endfacet
  facet normal 1 0 0
    outer loop
      vertex 53 -32.5 -55
      vertex 53 -0.618033 -36.9021
      vertex 53 -1.17557 -36.618
    endloop
  endfacet
  facet normal 1 0 0
    outer loop
      vertex 53 -1.61803 -33.8244
      vertex 53 -32.5 -25
      vertex 53 -1.90211 -34.382
    endloop
  endfacet
  facet normal 1 0 0
    outer loop
      vertex 53 -1.90211 -34.382
      vertex 53 -32.5 -25
      vertex 53 -2 -35
    endloop
  endfacet
  facet normal 1 0 0
    outer loop
      vertex 53 -2 -35
      vertex 53 -32.5 -25
      vertex 53 -1.90211 -35.618
    endloop
  endfacet
  facet normal 1 0 0
    outer loop
      vertex 53 -32.5 -55
      vertex 53 -1.90211 -35.618
      vertex 53 -32.5 -25
    endloop
  endfacet
  facet normal 1 0 0
    outer loop
      vertex 53 -1.90211 -35.618
      vertex 53 -32.5 -55
      vertex 53 -1.61803 -36.1756
    endloop
  endfacet
  facet normal 1 0 0
    outer loop
      vertex 53 -1.61803 -36.1756
      vertex 53 -32.5 -55
      vertex 53 -1.17557 -36.618
    endloop
  endfacet
  facet normal 1 0 0
    outer loop
      vertex 53 0 -37
      vertex 53 -32.5 -55
      vertex 53 32.5 -55
    endloop
  endfacet
  facet normal 0 -1 0
    outer loop
      vertex 25.7395 32.5 6.17238
      vertex 29.9227 32.5 1.98776
      vertex 30 32.5 2
    endloop
  endfacet
  facet normal 0 -1 0
    outer loop
      vertex 23.3591 32.5 3.48542
      vertex 29.382 32.5 1.90211
      vertex 29.9227 32.5 1.98776
    endloop
  endfacet
  facet normal 0 -1 0
    outer loop
      vertex 28.0979 32.5 0.618033
      vertex 22.9874 32.5 2.65954
      vertex 22.7179 32.5 1.79487
    endloop
  endfacet
  facet normal 0 -1 0
    outer loop
      vertex 23.3591 32.5 3.48542
      vertex 28.8244 32.5 1.61803
      vertex 29.382 32.5 1.90211
    endloop
  endfacet
  facet normal 0 -1 0
    outer loop
      vertex 23.3591 32.5 3.48542
      vertex 28.382 32.5 1.17557
      vertex 28.8244 32.5 1.61803
    endloop
  endfacet
  facet normal 0 -1 0
    outer loop
      vertex 28.0979 32.5 0.618033
      vertex 22.7179 32.5 1.79487
      vertex 22.5547 32.5 0.904025
    endloop
  endfacet
  facet normal 0 -1 0
    outer loop
      vertex 23.3591 32.5 3.48542
      vertex 28.0979 32.5 0.618033
      vertex 28.382 32.5 1.17557
    endloop
  endfacet
  facet normal 0 -1 0
    outer loop
      vertex 28 32.5 0
      vertex 22.5547 32.5 0.904025
      vertex 22.5 32.5 0
    endloop
  endfacet
  facet normal 0 -1 0
    outer loop
      vertex 22.5547 32.5 0.904025
      vertex 28 32.5 0
      vertex 28.0979 32.5 0.618033
    endloop
  endfacet
  facet normal 0 -1 0
    outer loop
      vertex 22.5547 32.5 -0.904025
      vertex 28 32.5 0
      vertex 22.5 32.5 0
    endloop
  endfacet
  facet normal 0 -1 -0
    outer loop
      vertex 28 32.5 0
      vertex 22.5547 32.5 -0.904025
      vertex 28.0979 32.5 -0.618033
    endloop
  endfacet
  facet normal 0 -1 0
    outer loop
      vertex 22.7179 32.5 -1.79487
      vertex 28.0979 32.5 -0.618033
      vertex 22.5547 32.5 -0.904025
    endloop
  endfacet
  facet normal 0 -1 0
    outer loop
      vertex 22.9874 32.5 -2.65954
      vertex 28.0979 32.5 -0.618033
      vertex 22.7179 32.5 -1.79487
    endloop
  endfacet
  facet normal 0 -1 0
    outer loop
      vertex 23.3591 32.5 -3.48542
      vertex 28.0979 32.5 -0.618033
      vertex 22.9874 32.5 -2.65954
    endloop
  endfacet
  facet normal 0 -1 -0
    outer loop
      vertex 28.0979 32.5 -0.618033
      vertex 23.3591 32.5 -3.48542
      vertex 28.382 32.5 -1.17557
    endloop
  endfacet
  facet normal 0 -1 0
    outer loop
      vertex 23.8276 32.5 -4.26048
      vertex 28.382 32.5 -1.17557
      vertex 23.3591 32.5 -3.48542
    endloop
  endfacet
  facet normal 0 -1 0
    outer loop
      vertex 24.3862 32.5 -4.97342
      vertex 28.382 32.5 -1.17557
      vertex 23.8276 32.5 -4.26048
    endloop
  endfacet
  facet normal 0 -1 -0
    outer loop
      vertex 28.382 32.5 -1.17557
      vertex 24.3862 32.5 -4.97342
      vertex 28.8244 32.5 -1.61803
    endloop
  endfacet
  facet normal 0 -1 0
    outer loop
      vertex 29.9227 32.5 1.98776
      vertex 25.7395 32.5 6.17238
      vertex 25.0266 32.5 5.61383
    endloop
  endfacet
  facet normal 0 -1 0
    outer loop
      vertex 29.9227 32.5 1.98776
      vertex 25.0266 32.5 5.61383
      vertex 24.3862 32.5 4.97342
    endloop
  endfacet
  facet normal 0 -1 0
    outer loop
      vertex 29.9227 32.5 1.98776
      vertex 24.3862 32.5 4.97342
      vertex 23.8276 32.5 4.26048
    endloop
  endfacet
  facet normal 0 -1 0
    outer loop
      vertex 29.9227 32.5 1.98776
      vertex 23.8276 32.5 4.26048
      vertex 23.3591 32.5 3.48542
    endloop
  endfacet
  facet normal 0 -1 0
    outer loop
      vertex 28.0979 32.5 0.618033
      vertex 23.3591 32.5 3.48542
      vertex 22.9874 32.5 2.65954
    endloop
  endfacet
  facet normal 0 -1 0
    outer loop
      vertex 25.7395 32.5 6.17238
      vertex 30 32.5 2
      vertex 30.0773 32.5 1.98776
    endloop
  endfacet
  facet normal 0 -1 0
    outer loop
      vertex 25.7395 32.5 6.17238
      vertex 30.0773 32.5 1.98776
      vertex 30.618 32.5 1.90211
    endloop
  endfacet
  facet normal 0 -1 0
    outer loop
      vertex 31.1756 32.5 1.61803
      vertex 25.7395 32.5 6.17238
      vertex 30.618 32.5 1.90211
    endloop
  endfacet
  facet normal 0 -1 0
    outer loop
      vertex 25.7395 32.5 6.17238
      vertex 31.1756 32.5 1.61803
      vertex 50 32.5 25
    endloop
  endfacet
  facet normal 0 -1 0
    outer loop
      vertex 31.618 32.5 1.17557
      vertex 50 32.5 25
      vertex 31.1756 32.5 1.61803
    endloop
  endfacet
  facet normal 0 -1 0
    outer loop
      vertex 31.9021 32.5 0.618033
      vertex 50 32.5 25
      vertex 31.618 32.5 1.17557
    endloop
  endfacet
  facet normal 0 -1 0
    outer loop
      vertex 32 32.5 0
      vertex 50 32.5 25
      vertex 31.9021 32.5 0.618033
    endloop
  endfacet
  facet normal 0 -1 0
    outer loop
      vertex 50 32.5 -25
      vertex 32 32.5 0
      vertex 31.9021 32.5 -0.618033
    endloop
  endfacet
  facet normal 0 -1 0
    outer loop
      vertex 50 32.5 -25
      vertex 31.9021 32.5 -0.618033
      vertex 31.618 32.5 -1.17557
    endloop
  endfacet
  facet normal 0 -1 0
    outer loop
      vertex 25.7395 32.5 -6.17238
      vertex 30.5408 32.5 -1.91435
      vertex 30 32.5 -2
    endloop
  endfacet
  facet normal 0 -1 0
    outer loop
      vertex 25.0266 32.5 -5.61383
      vertex 28.8244 32.5 -1.61803
      vertex 24.3862 32.5 -4.97342
    endloop
  endfacet
  facet normal 0 -1 0
    outer loop
      vertex 25.7395 32.5 -6.17238
      vertex 28.8244 32.5 -1.61803
      vertex 25.0266 32.5 -5.61383
    endloop
  endfacet
  facet normal 0 -1 -0
    outer loop
      vertex 28.8244 32.5 -1.61803
      vertex 25.7395 32.5 -6.17238
      vertex 29.382 32.5 -1.90211
    endloop
  endfacet
  facet normal 0 -1 -0
    outer loop
      vertex 29.382 32.5 -1.90211
      vertex 25.7395 32.5 -6.17238
      vertex 29.4592 32.5 -1.91435
    endloop
  endfacet
  facet normal 0 -1 -0
    outer loop
      vertex 29.4592 32.5 -1.91435
      vertex 25.7395 32.5 -6.17238
      vertex 30 32.5 -2
    endloop
  endfacet
  facet normal 0 -1 -0
    outer loop
      vertex 30.5408 32.5 -1.91435
      vertex 25.7395 32.5 -6.17238
      vertex 30.618 32.5 -1.90211
    endloop
  endfacet
  facet normal 0 -1 -0
    outer loop
      vertex 30.618 32.5 -1.90211
      vertex 25.7395 32.5 -6.17238
      vertex 31.1756 32.5 -1.61803
    endloop
  endfacet
  facet normal 0 -1 0
    outer loop
      vertex 32 32.5 0
      vertex 50 32.5 -25
      vertex 50 32.5 25
    endloop
  endfacet
  facet normal 0 -1 0
    outer loop
      vertex 31.1756 32.5 -1.61803
      vertex 50 32.5 -25
      vertex 31.618 32.5 -1.17557
    endloop
  endfacet
  facet normal 0 -1 0
    outer loop
      vertex 50 32.5 -25
      vertex 31.1756 32.5 -1.61803
      vertex 25.7395 32.5 -6.17238
    endloop
  endfacet
  facet normal 0 1 -0
    outer loop
      vertex 53 32.5 -55
      vertex 50 32.5 -25
      vertex 53 32.5 -25
    endloop
  endfacet
  facet normal 0 1 0
    outer loop
      vertex 50 32.5 -25
      vertex 53 32.5 -55
      vertex 50 32.5 -55
    endloop
  endfacet
  facet normal 0 1 -0
    outer loop
      vertex 53 32.5 25
      vertex 50 32.5 95
      vertex 53 32.5 95
    endloop
  endfacet
  facet normal 0 1 0
    outer loop
      vertex 50 32.5 95
      vertex 53 32.5 25
      vertex 50 32.5 25
    endloop
  endfacet
  facet normal 0 0 -1
    outer loop
      vertex 50 -32.5 -55
      vertex 53 32.5 -55
      vertex 53 -32.5 -55
    endloop
  endfacet
  facet normal -0 0 -1
    outer loop
      vertex 53 32.5 -55
      vertex 50 -32.5 -55
      vertex 50 32.5 -55
    endloop
  endfacet
  facet normal 0 -1 0
    outer loop
      vertex 50 -32.5 -55
      vertex 53 -32.5 -25
      vertex 50 -32.5 -25
    endloop
  endfacet
  facet normal 0 -1 -0
    outer loop
      vertex 53 -32.5 -25
      vertex 50 -32.5 -55
      vertex 53 -32.5 -55
    endloop
  endfacet
  facet normal 0 -1 0
    outer loop
      vertex 50 -32.5 25
      vertex 53 -32.5 95
      vertex 50 -32.5 95
    endloop
  endfacet
  facet normal 0 -1 -0
    outer loop
      vertex 53 -32.5 95
      vertex 50 -32.5 25
      vertex 53 -32.5 25
    endloop
  endfacet
  facet normal 0 1 -0
    outer loop
      vertex 31.1756 -32.5 1.61803
      vertex 25.7395 -32.5 6.17238
      vertex 50 -32.5 25
    endloop
  endfacet
  facet normal -0 1 -0
    outer loop
      vertex 30.5408 -32.5 1.91435
      vertex 25.7395 -32.5 6.17238
      vertex 30.618 -32.5 1.90211
    endloop
  endfacet
  facet normal -0 1 -0
    outer loop
      vertex 30 -32.5 2
      vertex 25.7395 -32.5 6.17238
      vertex 30.5408 -32.5 1.91435
    endloop
  endfacet
  facet normal 0 1 -0
    outer loop
      vertex 28.8244 -32.5 1.61803
      vertex 25.7395 -32.5 6.17238
      vertex 29.382 -32.5 1.90211
    endloop
  endfacet
  facet normal 0 1 0
    outer loop
      vertex 25.7395 -32.5 6.17238
      vertex 28.8244 -32.5 1.61803
      vertex 25.0266 -32.5 5.61383
    endloop
  endfacet
  facet normal 0 1 0
    outer loop
      vertex 25.0266 -32.5 5.61383
      vertex 28.8244 -32.5 1.61803
      vertex 24.3862 -32.5 4.97342
    endloop
  endfacet
  facet normal 0 1 -0
    outer loop
      vertex 29.382 -32.5 1.90211
      vertex 25.7395 -32.5 6.17238
      vertex 29.4592 -32.5 1.91435
    endloop
  endfacet
  facet normal 0 1 -0
    outer loop
      vertex 29.4592 -32.5 1.91435
      vertex 25.7395 -32.5 6.17238
      vertex 30 -32.5 2
    endloop
  endfacet
  facet normal 0 1 0
    outer loop
      vertex 25.7395 -32.5 6.17238
      vertex 31.1756 -32.5 1.61803
      vertex 30.618 -32.5 1.90211
    endloop
  endfacet
  facet normal 0 1 0
    outer loop
      vertex 50 -32.5 25
      vertex 31.618 -32.5 1.17557
      vertex 31.1756 -32.5 1.61803
    endloop
  endfacet
  facet normal 0 1 0
    outer loop
      vertex 50 -32.5 25
      vertex 31.9021 -32.5 0.618033
      vertex 31.618 -32.5 1.17557
    endloop
  endfacet
  facet normal 0 1 0
    outer loop
      vertex 50 -32.5 25
      vertex 32 -32.5 0
      vertex 31.9021 -32.5 0.618033
    endloop
  endfacet
  facet normal 0 1 -0
    outer loop
      vertex 50 -32.5 -25
      vertex 32 -32.5 0
      vertex 50 -32.5 25
    endloop
  endfacet
  facet normal 0 1 0
    outer loop
      vertex 32 -32.5 0
      vertex 50 -32.5 -25
      vertex 31.9021 -32.5 -0.618033
    endloop
  endfacet
  facet normal 0 1 0
    outer loop
      vertex 25.7395 -32.5 -6.17238
      vertex 30.0773 -32.5 -1.98776
      vertex 30.618 -32.5 -1.90211
    endloop
  endfacet
  facet normal 0 1 0
    outer loop
      vertex 28.0979 -32.5 -0.618033
      vertex 23.3591 -32.5 -3.48542
      vertex 22.9874 -32.5 -2.65954
    endloop
  endfacet
  facet normal 0 1 0
    outer loop
      vertex 30.0773 -32.5 -1.98776
      vertex 25.7395 -32.5 -6.17238
      vertex 30 -32.5 -2
    endloop
  endfacet
  facet normal 0 1 0
    outer loop
      vertex 29.9227 -32.5 -1.98776
      vertex 23.8276 -32.5 -4.26048
      vertex 23.3591 -32.5 -3.48542
    endloop
  endfacet
  facet normal 0 1 0
    outer loop
      vertex 29.9227 -32.5 -1.98776
      vertex 24.3862 -32.5 -4.97342
      vertex 23.8276 -32.5 -4.26048
    endloop
  endfacet
  facet normal 0 1 0
    outer loop
      vertex 29.9227 -32.5 -1.98776
      vertex 25.0266 -32.5 -5.61383
      vertex 24.3862 -32.5 -4.97342
    endloop
  endfacet
  facet normal 0 1 0
    outer loop
      vertex 25.7395 -32.5 -6.17238
      vertex 30.618 -32.5 -1.90211
      vertex 31.1756 -32.5 -1.61803
    endloop
  endfacet
  facet normal 0 1 0
    outer loop
      vertex 29.9227 -32.5 -1.98776
      vertex 25.7395 -32.5 -6.17238
      vertex 25.0266 -32.5 -5.61383
    endloop
  endfacet
  facet normal 0 1 0
    outer loop
      vertex 31.1756 -32.5 -1.61803
      vertex 50 -32.5 -25
      vertex 25.7395 -32.5 -6.17238
    endloop
  endfacet
  facet normal 0 1 0
    outer loop
      vertex 31.618 -32.5 -1.17557
      vertex 50 -32.5 -25
      vertex 31.1756 -32.5 -1.61803
    endloop
  endfacet
  facet normal 0 1 0
    outer loop
      vertex 31.9021 -32.5 -0.618033
      vertex 50 -32.5 -25
      vertex 31.618 -32.5 -1.17557
    endloop
  endfacet
  facet normal 0 1 -0
    outer loop
      vertex 28.382 -32.5 1.17557
      vertex 24.3862 -32.5 4.97342
      vertex 28.8244 -32.5 1.61803
    endloop
  endfacet
  facet normal 0 1 0
    outer loop
      vertex 24.3862 -32.5 4.97342
      vertex 28.382 -32.5 1.17557
      vertex 23.8276 -32.5 4.26048
    endloop
  endfacet
  facet normal 0 1 0
    outer loop
      vertex 23.8276 -32.5 4.26048
      vertex 28.382 -32.5 1.17557
      vertex 23.3591 -32.5 3.48542
    endloop
  endfacet
  facet normal 0 1 -0
    outer loop
      vertex 28.0979 -32.5 0.618033
      vertex 23.3591 -32.5 3.48542
      vertex 28.382 -32.5 1.17557
    endloop
  endfacet
  facet normal 0 1 0
    outer loop
      vertex 23.3591 -32.5 3.48542
      vertex 28.0979 -32.5 0.618033
      vertex 22.9874 -32.5 2.65954
    endloop
  endfacet
  facet normal 0 1 0
    outer loop
      vertex 22.9874 -32.5 2.65954
      vertex 28.0979 -32.5 0.618033
      vertex 22.7179 -32.5 1.79487
    endloop
  endfacet
  facet normal 0 1 0
    outer loop
      vertex 22.7179 -32.5 1.79487
      vertex 28.0979 -32.5 0.618033
      vertex 22.5547 -32.5 0.904025
    endloop
  endfacet
  facet normal 0 1 -0
    outer loop
      vertex 28 -32.5 0
      vertex 22.5547 -32.5 0.904025
      vertex 28.0979 -32.5 0.618033
    endloop
  endfacet
  facet normal 0 1 0
    outer loop
      vertex 28 -32.5 0
      vertex 22.5 -32.5 0
      vertex 22.5547 -32.5 0.904025
    endloop
  endfacet
  facet normal 0 1 0
    outer loop
      vertex 22.5547 -32.5 -0.904025
      vertex 28 -32.5 0
      vertex 28.0979 -32.5 -0.618033
    endloop
  endfacet
  facet normal 0 1 0
    outer loop
      vertex 28 -32.5 0
      vertex 22.5547 -32.5 -0.904025
      vertex 22.5 -32.5 0
    endloop
  endfacet
  facet normal 0 1 0
    outer loop
      vertex 23.3591 -32.5 -3.48542
      vertex 28.0979 -32.5 -0.618033
      vertex 28.382 -32.5 -1.17557
    endloop
  endfacet
  facet normal 0 1 0
    outer loop
      vertex 23.3591 -32.5 -3.48542
      vertex 28.382 -32.5 -1.17557
      vertex 28.8244 -32.5 -1.61803
    endloop
  endfacet
  facet normal 0 1 0
    outer loop
      vertex 28.0979 -32.5 -0.618033
      vertex 22.7179 -32.5 -1.79487
      vertex 22.5547 -32.5 -0.904025
    endloop
  endfacet
  facet normal 0 1 0
    outer loop
      vertex 23.3591 -32.5 -3.48542
      vertex 28.8244 -32.5 -1.61803
      vertex 29.382 -32.5 -1.90211
    endloop
  endfacet
  facet normal 0 1 0
    outer loop
      vertex 23.3591 -32.5 -3.48542
      vertex 29.382 -32.5 -1.90211
      vertex 29.9227 -32.5 -1.98776
    endloop
  endfacet
  facet normal 0 1 0
    outer loop
      vertex 25.7395 -32.5 -6.17238
      vertex 29.9227 -32.5 -1.98776
      vertex 30 -32.5 -2
    endloop
  endfacet
  facet normal 0 1 0
    outer loop
      vertex 28.0979 -32.5 -0.618033
      vertex 22.9874 -32.5 -2.65954
      vertex 22.7179 -32.5 -1.79487
    endloop
  endfacet
  facet normal 0 -0.156432 0.987689
    outer loop
      vertex 50 0.618033 73.0979
      vertex 53 0 73
      vertex 53 0.618033 73.0979
    endloop
  endfacet
  facet normal 0 -0.156432 0.987689
    outer loop
      vertex 53 0 73
      vertex 50 0.618033 73.0979
      vertex 50 0 73
    endloop
  endfacet
  facet normal 0 -0.156432 -0.987689
    outer loop
      vertex 50 0 77
      vertex 53 0.618033 76.9021
      vertex 53 0 77
    endloop
  endfacet
  facet normal -0 -0.156432 -0.987689
    outer loop
      vertex 53 0.618033 76.9021
      vertex 50 0 77
      vertex 50 0.618033 76.9021
    endloop
  endfacet
  facet normal 0 0.987688 -0.156434
    outer loop
      vertex 53 -2 75
      vertex 50 -1.90211 75.618
      vertex 53 -1.90211 75.618
    endloop
  endfacet
  facet normal 0 0.987688 -0.156434
    outer loop
      vertex 50 -1.90211 75.618
      vertex 53 -2 75
      vertex 50 -2 75
    endloop
  endfacet
  facet normal 0 0.453992 -0.891006
    outer loop
      vertex 50 -1.17557 76.618
      vertex 53 -0.618033 76.9021
      vertex 53 -1.17557 76.618
    endloop
  endfacet
  facet normal 0 0.453992 -0.891006
    outer loop
      vertex 53 -0.618033 76.9021
      vertex 50 -1.17557 76.618
      vertex 50 -0.618033 76.9021
    endloop
  endfacet
  facet normal 0 -0.453992 0.891006
    outer loop
      vertex 50 1.17557 73.382
      vertex 53 0.618033 73.0979
      vertex 53 1.17557 73.382
    endloop
  endfacet
  facet normal 0 -0.453992 0.891006
    outer loop
      vertex 53 0.618033 73.0979
      vertex 50 1.17557 73.382
      vertex 50 0.618033 73.0979
    endloop
  endfacet
  facet normal 0 -0.891005 0.453993
    outer loop
      vertex 50 1.61803 73.8244
      vertex 53 1.90211 74.382
      vertex 50 1.90211 74.382
    endloop
  endfacet
  facet normal 0 -0.891005 0.453993
    outer loop
      vertex 53 1.90211 74.382
      vertex 50 1.61803 73.8244
      vertex 53 1.61803 73.8244
    endloop
  endfacet
  facet normal 0 -0.891005 -0.453993
    outer loop
      vertex 50 1.90211 75.618
      vertex 53 1.61803 76.1756
      vertex 50 1.61803 76.1756
    endloop
  endfacet
  facet normal 0 -0.891005 -0.453993
    outer loop
      vertex 53 1.61803 76.1756
      vertex 50 1.90211 75.618
      vertex 53 1.90211 75.618
    endloop
  endfacet
  facet normal 0 -0.987688 -0.156434
    outer loop
      vertex 50 2 75
      vertex 53 1.90211 75.618
      vertex 50 1.90211 75.618
    endloop
  endfacet
  facet normal 0 -0.987688 -0.156434
    outer loop
      vertex 53 1.90211 75.618
      vertex 50 2 75
      vertex 53 2 75
    endloop
  endfacet
  facet normal 0 0.70711 0.707104
    outer loop
      vertex 53 -1.17557 73.382
      vertex 50 -1.61803 73.8244
      vertex 53 -1.61803 73.8244
    endloop
  endfacet
  facet normal 0 0.70711 0.707104
    outer loop
      vertex 50 -1.61803 73.8244
      vertex 53 -1.17557 73.382
      vertex 50 -1.17557 73.382
    endloop
  endfacet
  facet normal 0 0.987688 0.156434
    outer loop
      vertex 53 -1.90211 74.382
      vertex 50 -2 75
      vertex 53 -2 75
    endloop
  endfacet
  facet normal 0 0.987688 0.156434
    outer loop
      vertex 50 -2 75
      vertex 53 -1.90211 74.382
      vertex 50 -1.90211 74.382
    endloop
  endfacet
  facet normal -0 0.453992 0.891006
    outer loop
      vertex 50 -0.618033 73.0979
      vertex 53 -1.17557 73.382
      vertex 53 -0.618033 73.0979
    endloop
  endfacet
  facet normal 0 0.453992 0.891006
    outer loop
      vertex 53 -1.17557 73.382
      vertex 50 -0.618033 73.0979
      vertex 50 -1.17557 73.382
    endloop
  endfacet
  facet normal 0 0.156432 -0.987689
    outer loop
      vertex 50 -0.618033 76.9021
      vertex 53 0 77
      vertex 53 -0.618033 76.9021
    endloop
  endfacet
  facet normal 0 0.156432 -0.987689
    outer loop
      vertex 53 0 77
      vertex 50 -0.618033 76.9021
      vertex 50 0 77
    endloop
  endfacet
  facet normal 0 -0.70711 0.707104
    outer loop
      vertex 50 1.17557 73.382
      vertex 53 1.61803 73.8244
      vertex 50 1.61803 73.8244
    endloop
  endfacet
  facet normal 0 -0.70711 0.707104
    outer loop
      vertex 53 1.61803 73.8244
      vertex 50 1.17557 73.382
      vertex 53 1.17557 73.382
    endloop
  endfacet
  facet normal 0 -0.987688 0.156434
    outer loop
      vertex 50 1.90211 74.382
      vertex 53 2 75
      vertex 50 2 75
    endloop
  endfacet
  facet normal 0 -0.987688 0.156434
    outer loop
      vertex 53 2 75
      vertex 50 1.90211 74.382
      vertex 53 1.90211 74.382
    endloop
  endfacet
  facet normal 0 -0.70711 -0.707104
    outer loop
      vertex 50 1.61803 76.1756
      vertex 53 1.17557 76.618
      vertex 50 1.17557 76.618
    endloop
  endfacet
  facet normal 0 -0.70711 -0.707104
    outer loop
      vertex 53 1.17557 76.618
      vertex 50 1.61803 76.1756
      vertex 53 1.61803 76.1756
    endloop
  endfacet
  facet normal 0 -0.453992 -0.891006
    outer loop
      vertex 50 0.618033 76.9021
      vertex 53 1.17557 76.618
      vertex 53 0.618033 76.9021
    endloop
  endfacet
  facet normal -0 -0.453992 -0.891006
    outer loop
      vertex 53 1.17557 76.618
      vertex 50 0.618033 76.9021
      vertex 50 1.17557 76.618
    endloop
  endfacet
  facet normal -0 0.156432 0.987689
    outer loop
      vertex 50 0 73
      vertex 53 -0.618033 73.0979
      vertex 53 0 73
    endloop
  endfacet
  facet normal 0 0.156432 0.987689
    outer loop
      vertex 53 -0.618033 73.0979
      vertex 50 0 73
      vertex 50 -0.618033 73.0979
    endloop
  endfacet
  facet normal 0 0.891005 0.453993
    outer loop
      vertex 53 -1.61803 73.8244
      vertex 50 -1.90211 74.382
      vertex 53 -1.90211 74.382
    endloop
  endfacet
  facet normal 0 0.891005 0.453993
    outer loop
      vertex 50 -1.90211 74.382
      vertex 53 -1.61803 73.8244
      vertex 50 -1.61803 73.8244
    endloop
  endfacet
  facet normal 0 0.70711 -0.707104
    outer loop
      vertex 53 -1.61803 76.1756
      vertex 50 -1.17557 76.618
      vertex 53 -1.17557 76.618
    endloop
  endfacet
  facet normal 0 0.70711 -0.707104
    outer loop
      vertex 50 -1.17557 76.618
      vertex 53 -1.61803 76.1756
      vertex 50 -1.61803 76.1756
    endloop
  endfacet
  facet normal 0 0.891005 -0.453993
    outer loop
      vertex 53 -1.90211 75.618
      vertex 50 -1.61803 76.1756
      vertex 53 -1.61803 76.1756
    endloop
  endfacet
  facet normal 0 0.891005 -0.453993
    outer loop
      vertex 50 -1.61803 76.1756
      vertex 53 -1.90211 75.618
      vertex 50 -1.90211 75.618
    endloop
  endfacet
  facet normal 0 -0.156432 0.987689
    outer loop
      vertex 50 0.618033 -36.9021
      vertex 53 0 -37
      vertex 53 0.618033 -36.9021
    endloop
  endfacet
  facet normal 0 -0.156432 0.987689
    outer loop
      vertex 53 0 -37
      vertex 50 0.618033 -36.9021
      vertex 50 0 -37
    endloop
  endfacet
  facet normal 0 0.156432 -0.987689
    outer loop
      vertex 50 -0.618033 -33.0979
      vertex 53 0 -33
      vertex 53 -0.618033 -33.0979
    endloop
  endfacet
  facet normal 0 0.156432 -0.987689
    outer loop
      vertex 53 0 -33
      vertex 50 -0.618033 -33.0979
      vertex 50 0 -33
    endloop
  endfacet
  facet normal 0 -0.987688 -0.156434
    outer loop
      vertex 50 2 -35
      vertex 53 1.90211 -34.382
      vertex 50 1.90211 -34.382
    endloop
  endfacet
  facet normal 0 -0.987688 -0.156434
    outer loop
      vertex 53 1.90211 -34.382
      vertex 50 2 -35
      vertex 53 2 -35
    endloop
  endfacet
  facet normal 0 0.987688 0.156434
    outer loop
      vertex 53 -1.90211 -35.618
      vertex 50 -2 -35
      vertex 53 -2 -35
    endloop
  endfacet
  facet normal 0 0.987688 0.156434
    outer loop
      vertex 50 -2 -35
      vertex 53 -1.90211 -35.618
      vertex 50 -1.90211 -35.618
    endloop
  endfacet
  facet normal 0 0.891006 0.453991
    outer loop
      vertex 53 -1.61803 -36.1756
      vertex 50 -1.90211 -35.618
      vertex 53 -1.90211 -35.618
    endloop
  endfacet
  facet normal 0 0.891006 0.453991
    outer loop
      vertex 50 -1.90211 -35.618
      vertex 53 -1.61803 -36.1756
      vertex 50 -1.61803 -36.1756
    endloop
  endfacet
  facet normal 0 -0.891006 0.453991
    outer loop
      vertex 50 1.61803 -36.1756
      vertex 53 1.90211 -35.618
      vertex 50 1.90211 -35.618
    endloop
  endfacet
  facet normal 0 -0.891006 0.453991
    outer loop
      vertex 53 1.90211 -35.618
      vertex 50 1.61803 -36.1756
      vertex 53 1.61803 -36.1756
    endloop
  endfacet
  facet normal 0 -0.453992 0.891006
    outer loop
      vertex 50 1.17557 -36.618
      vertex 53 0.618033 -36.9021
      vertex 53 1.17557 -36.618
    endloop
  endfacet
  facet normal 0 -0.453992 0.891006
    outer loop
      vertex 53 0.618033 -36.9021
      vertex 50 1.17557 -36.618
      vertex 50 0.618033 -36.9021
    endloop
  endfacet
  facet normal 0 -0.987688 0.156434
    outer loop
      vertex 50 1.90211 -35.618
      vertex 53 2 -35
      vertex 50 2 -35
    endloop
  endfacet
  facet normal 0 -0.987688 0.156434
    outer loop
      vertex 53 2 -35
      vertex 50 1.90211 -35.618
      vertex 53 1.90211 -35.618
    endloop
  endfacet
  facet normal 0 -0.453992 -0.891006
    outer loop
      vertex 50 0.618033 -33.0979
      vertex 53 1.17557 -33.382
      vertex 53 0.618033 -33.0979
    endloop
  endfacet
  facet normal -0 -0.453992 -0.891006
    outer loop
      vertex 53 1.17557 -33.382
      vertex 50 0.618033 -33.0979
      vertex 50 1.17557 -33.382
    endloop
  endfacet
  facet normal 0 -0.156432 -0.987689
    outer loop
      vertex 50 0 -33
      vertex 53 0.618033 -33.0979
      vertex 53 0 -33
    endloop
  endfacet
  facet normal -0 -0.156432 -0.987689
    outer loop
      vertex 53 0.618033 -33.0979
      vertex 50 0 -33
      vertex 50 0.618033 -33.0979
    endloop
  endfacet
  facet normal 0 -0.891006 -0.453991
    outer loop
      vertex 50 1.90211 -34.382
      vertex 53 1.61803 -33.8244
      vertex 50 1.61803 -33.8244
    endloop
  endfacet
  facet normal 0 -0.891006 -0.453991
    outer loop
      vertex 53 1.61803 -33.8244
      vertex 50 1.90211 -34.382
      vertex 53 1.90211 -34.382
    endloop
  endfacet
  facet normal 0 0.707107 -0.707107
    outer loop
      vertex 53 -1.61803 -33.8244
      vertex 50 -1.17557 -33.382
      vertex 53 -1.17557 -33.382
    endloop
  endfacet
  facet normal 0 0.707107 -0.707107
    outer loop
      vertex 50 -1.17557 -33.382
      vertex 53 -1.61803 -33.8244
      vertex 50 -1.61803 -33.8244
    endloop
  endfacet
  facet normal 0 -0.707107 0.707107
    outer loop
      vertex 50 1.17557 -36.618
      vertex 53 1.61803 -36.1756
      vertex 50 1.61803 -36.1756
    endloop
  endfacet
  facet normal 0 -0.707107 0.707107
    outer loop
      vertex 53 1.61803 -36.1756
      vertex 50 1.17557 -36.618
      vertex 53 1.17557 -36.618
    endloop
  endfacet
  facet normal 0 -0.707107 -0.707107
    outer loop
      vertex 50 1.61803 -33.8244
      vertex 53 1.17557 -33.382
      vertex 50 1.17557 -33.382
    endloop
  endfacet
  facet normal 0 -0.707107 -0.707107
    outer loop
      vertex 53 1.17557 -33.382
      vertex 50 1.61803 -33.8244
      vertex 53 1.61803 -33.8244
    endloop
  endfacet
  facet normal -0 0.156432 0.987689
    outer loop
      vertex 50 0 -37
      vertex 53 -0.618033 -36.9021
      vertex 53 0 -37
    endloop
  endfacet
  facet normal 0 0.156432 0.987689
    outer loop
      vertex 53 -0.618033 -36.9021
      vertex 50 0 -37
      vertex 50 -0.618033 -36.9021
    endloop
  endfacet
  facet normal 0 0.707107 0.707107
    outer loop
      vertex 53 -1.17557 -36.618
      vertex 50 -1.61803 -36.1756
      vertex 53 -1.61803 -36.1756
    endloop
  endfacet
  facet normal 0 0.707107 0.707107
    outer loop
      vertex 50 -1.61803 -36.1756
      vertex 53 -1.17557 -36.618
      vertex 50 -1.17557 -36.618
    endloop
  endfacet
  facet normal 0 0.987688 -0.156434
    outer loop
      vertex 53 -2 -35
      vertex 50 -1.90211 -34.382
      vertex 53 -1.90211 -34.382
    endloop
  endfacet
  facet normal 0 0.987688 -0.156434
    outer loop
      vertex 50 -1.90211 -34.382
      vertex 53 -2 -35
      vertex 50 -2 -35
    endloop
  endfacet
  facet normal 0 0.453992 -0.891006
    outer loop
      vertex 50 -1.17557 -33.382
      vertex 53 -0.618033 -33.0979
      vertex 53 -1.17557 -33.382
    endloop
  endfacet
  facet normal 0 0.453992 -0.891006
    outer loop
      vertex 53 -0.618033 -33.0979
      vertex 50 -1.17557 -33.382
      vertex 50 -0.618033 -33.0979
    endloop
  endfacet
  facet normal -0 0.453992 0.891006
    outer loop
      vertex 50 -0.618033 -36.9021
      vertex 53 -1.17557 -36.618
      vertex 53 -0.618033 -36.9021
    endloop
  endfacet
  facet normal 0 0.453992 0.891006
    outer loop
      vertex 53 -1.17557 -36.618
      vertex 50 -0.618033 -36.9021
      vertex 50 -1.17557 -36.618
    endloop
  endfacet
  facet normal 0 0.891006 -0.453991
    outer loop
      vertex 53 -1.90211 -34.382
      vertex 50 -1.61803 -33.8244
      vertex 53 -1.61803 -33.8244
    endloop
  endfacet
  facet normal 0 0.891006 -0.453991
    outer loop
      vertex 50 -1.61803 -33.8244
      vertex 53 -1.90211 -34.382
      vertex 50 -1.90211 -34.382
    endloop
  endfacet
  facet normal 0 0 -1
    outer loop
      vertex 50 -35.5 -25
      vertex 53 -32.5 -25
      vertex 53 -35.5 -25
    endloop
  endfacet
  facet normal -0 0 -1
    outer loop
      vertex 53 -32.5 -25
      vertex 50 -35.5 -25
      vertex 50 -32.5 -25
    endloop
  endfacet
  facet normal -0.613095 0 -0.790009
    outer loop
      vertex 25.7395 -35.5 -6.17238
      vertex 50 -32.5 -25
      vertex 50 -35.5 -25
    endloop
  endfacet
  facet normal -0.613095 0 -0.790009
    outer loop
      vertex 50 -32.5 -25
      vertex 25.7395 -35.5 -6.17238
      vertex 25.7395 -32.5 -6.17238
    endloop
  endfacet
  facet normal -0 0 1
    outer loop
      vertex 50 -32.5 25
      vertex 53 -35.5 25
      vertex 53 -32.5 25
    endloop
  endfacet
  facet normal 0 0 1
    outer loop
      vertex 53 -35.5 25
      vertex 50 -32.5 25
      vertex 50 -35.5 25
    endloop
  endfacet
  facet normal -0.98362 0 -0.180254
    outer loop
      vertex 22.7179 -35.5 -1.79487
      vertex 22.5547 -32.5 -0.904025
      vertex 22.7179 -32.5 -1.79487
    endloop
  endfacet
  facet normal -0.98362 -0 -0.180254
    outer loop
      vertex 22.5547 -32.5 -0.904025
      vertex 22.7179 -35.5 -1.79487
      vertex 22.5547 -35.5 -0.904025
    endloop
  endfacet
  facet normal -0.61672 0 -0.787183
    outer loop
      vertex 25.0266 -35.5 -5.61383
      vertex 25.7395 -32.5 -6.17238
      vertex 25.7395 -35.5 -6.17238
    endloop
  endfacet
  facet normal -0.61672 0 -0.787183
    outer loop
      vertex 25.7395 -32.5 -6.17238
      vertex 25.0266 -35.5 -5.61383
      vertex 25.0266 -32.5 -5.61383
    endloop
  endfacet
  facet normal -0.707107 0 -0.707107
    outer loop
      vertex 25.0266 -35.5 -5.61383
      vertex 24.3862 -32.5 -4.97342
      vertex 25.0266 -32.5 -5.61383
    endloop
  endfacet
  facet normal -0.707107 -0 -0.707107
    outer loop
      vertex 24.3862 -32.5 -4.97342
      vertex 25.0266 -35.5 -5.61383
      vertex 24.3862 -35.5 -4.97342
    endloop
  endfacet
  facet normal -0.954721 0 -0.297503
    outer loop
      vertex 22.9874 -35.5 -2.65954
      vertex 22.7179 -32.5 -1.79487
      vertex 22.9874 -32.5 -2.65954
    endloop
  endfacet
  facet normal -0.954721 -0 -0.297503
    outer loop
      vertex 22.7179 -32.5 -1.79487
      vertex 22.9874 -35.5 -2.65954
      vertex 22.7179 -35.5 -1.79487
    endloop
  endfacet
  facet normal -0.9119 0 0.410413
    outer loop
      vertex 22.9874 -35.5 2.65954
      vertex 23.3591 -32.5 3.48542
      vertex 22.9874 -32.5 2.65954
    endloop
  endfacet
  facet normal -0.9119 0 0.410413
    outer loop
      vertex 23.3591 -32.5 3.48542
      vertex 22.9874 -35.5 2.65954
      vertex 23.3591 -35.5 3.48542
    endloop
  endfacet
  facet normal -0.613095 0 0.790009
    outer loop
      vertex 25.7395 -32.5 6.17238
      vertex 50 -35.5 25
      vertex 50 -32.5 25
    endloop
  endfacet
  facet normal -0.613095 0 0.790009
    outer loop
      vertex 50 -35.5 25
      vertex 25.7395 -32.5 6.17238
      vertex 25.7395 -35.5 6.17238
    endloop
  endfacet
  facet normal -0.998176 0 -0.0603788
    outer loop
      vertex 22.5547 -35.5 -0.904025
      vertex 22.5 -32.5 0
      vertex 22.5547 -32.5 -0.904025
    endloop
  endfacet
  facet normal -0.998176 -0 -0.0603788
    outer loop
      vertex 22.5 -32.5 0
      vertex 22.5547 -35.5 -0.904025
      vertex 22.5 -35.5 0
    endloop
  endfacet
  facet normal -0.9119 0 -0.410413
    outer loop
      vertex 23.3591 -35.5 -3.48542
      vertex 22.9874 -32.5 -2.65954
      vertex 23.3591 -32.5 -3.48542
    endloop
  endfacet
  facet normal -0.9119 -0 -0.410413
    outer loop
      vertex 22.9874 -32.5 -2.65954
      vertex 23.3591 -35.5 -3.48542
      vertex 22.9874 -35.5 -2.65954
    endloop
  endfacet
  facet normal -0.787184 0 -0.616719
    outer loop
      vertex 24.3862 -35.5 -4.97342
      vertex 23.8276 -32.5 -4.26048
      vertex 24.3862 -32.5 -4.97342
    endloop
  endfacet
  facet normal -0.787184 -0 -0.616719
    outer loop
      vertex 23.8276 -32.5 -4.26048
      vertex 24.3862 -35.5 -4.97342
      vertex 23.8276 -35.5 -4.26048
    endloop
  endfacet
  facet normal -0.855781 0 -0.517339
    outer loop
      vertex 23.8276 -35.5 -4.26048
      vertex 23.3591 -32.5 -3.48542
      vertex 23.8276 -32.5 -4.26048
    endloop
  endfacet
  facet normal -0.855781 -0 -0.517339
    outer loop
      vertex 23.3591 -32.5 -3.48542
      vertex 23.8276 -35.5 -4.26048
      vertex 23.3591 -35.5 -3.48542
    endloop
  endfacet
  facet normal -0.707107 0 0.707107
    outer loop
      vertex 24.3862 -35.5 4.97342
      vertex 25.0266 -32.5 5.61383
      vertex 24.3862 -32.5 4.97342
    endloop
  endfacet
  facet normal -0.707107 0 0.707107
    outer loop
      vertex 25.0266 -32.5 5.61383
      vertex 24.3862 -35.5 4.97342
      vertex 25.0266 -35.5 5.61383
    endloop
  endfacet
  facet normal -0.98362 0 0.180254
    outer loop
      vertex 22.5547 -35.5 0.904025
      vertex 22.7179 -32.5 1.79487
      vertex 22.5547 -32.5 0.904025
    endloop
  endfacet
  facet normal -0.98362 0 0.180254
    outer loop
      vertex 22.7179 -32.5 1.79487
      vertex 22.5547 -35.5 0.904025
      vertex 22.7179 -35.5 1.79487
    endloop
  endfacet
  facet normal 0 -1 0
    outer loop
      vertex 25.7395 -35.5 6.17238
      vertex 29.9227 -35.5 1.98776
      vertex 30 -35.5 2
    endloop
  endfacet
  facet normal 0 -1 0
    outer loop
      vertex 23.3591 -35.5 3.48542
      vertex 29.382 -35.5 1.90211
      vertex 29.9227 -35.5 1.98776
    endloop
  endfacet
  facet normal 0 -1 0
    outer loop
      vertex 28.0979 -35.5 0.618033
      vertex 22.9874 -35.5 2.65954
      vertex 22.7179 -35.5 1.79487
    endloop
  endfacet
  facet normal 0 -1 0
    outer loop
      vertex 23.3591 -35.5 3.48542
      vertex 28.8244 -35.5 1.61803
      vertex 29.382 -35.5 1.90211
    endloop
  endfacet
  facet normal 0 -1 0
    outer loop
      vertex 23.3591 -35.5 3.48542
      vertex 28.382 -35.5 1.17557
      vertex 28.8244 -35.5 1.61803
    endloop
  endfacet
  facet normal 0 -1 0
    outer loop
      vertex 28.0979 -35.5 0.618033
      vertex 22.7179 -35.5 1.79487
      vertex 22.5547 -35.5 0.904025
    endloop
  endfacet
  facet normal 0 -1 0
    outer loop
      vertex 23.3591 -35.5 3.48542
      vertex 28.0979 -35.5 0.618033
      vertex 28.382 -35.5 1.17557
    endloop
  endfacet
  facet normal 0 -1 0
    outer loop
      vertex 28 -35.5 0
      vertex 22.5547 -35.5 0.904025
      vertex 22.5 -35.5 0
    endloop
  endfacet
  facet normal 0 -1 0
    outer loop
      vertex 22.5547 -35.5 0.904025
      vertex 28 -35.5 0
      vertex 28.0979 -35.5 0.618033
    endloop
  endfacet
  facet normal 0 -1 0
    outer loop
      vertex 22.5547 -35.5 -0.904025
      vertex 28 -35.5 0
      vertex 22.5 -35.5 0
    endloop
  endfacet
  facet normal 0 -1 -0
    outer loop
      vertex 28 -35.5 0
      vertex 22.5547 -35.5 -0.904025
      vertex 28.0979 -35.5 -0.618033
    endloop
  endfacet
  facet normal 0 -1 0
    outer loop
      vertex 22.7179 -35.5 -1.79487
      vertex 28.0979 -35.5 -0.618033
      vertex 22.5547 -35.5 -0.904025
    endloop
  endfacet
  facet normal 0 -1 0
    outer loop
      vertex 22.9874 -35.5 -2.65954
      vertex 28.0979 -35.5 -0.618033
      vertex 22.7179 -35.5 -1.79487
    endloop
  endfacet
  facet normal 0 -1 0
    outer loop
      vertex 23.3591 -35.5 -3.48542
      vertex 28.0979 -35.5 -0.618033
      vertex 22.9874 -35.5 -2.65954
    endloop
  endfacet
  facet normal 0 -1 -0
    outer loop
      vertex 28.0979 -35.5 -0.618033
      vertex 23.3591 -35.5 -3.48542
      vertex 28.382 -35.5 -1.17557
    endloop
  endfacet
  facet normal 0 -1 0
    outer loop
      vertex 23.8276 -35.5 -4.26048
      vertex 28.382 -35.5 -1.17557
      vertex 23.3591 -35.5 -3.48542
    endloop
  endfacet
  facet normal 0 -1 0
    outer loop
      vertex 24.3862 -35.5 -4.97342
      vertex 28.382 -35.5 -1.17557
      vertex 23.8276 -35.5 -4.26048
    endloop
  endfacet
  facet normal 0 -1 -0
    outer loop
      vertex 28.382 -35.5 -1.17557
      vertex 24.3862 -35.5 -4.97342
      vertex 28.8244 -35.5 -1.61803
    endloop
  endfacet
  facet normal 0 -1 0
    outer loop
      vertex 31.1756 -35.5 1.61803
      vertex 50 -35.5 25
      vertex 25.7395 -35.5 6.17238
    endloop
  endfacet
  facet normal 0 -1 0
    outer loop
      vertex 29.9227 -35.5 1.98776
      vertex 25.7395 -35.5 6.17238
      vertex 25.0266 -35.5 5.61383
    endloop
  endfacet
  facet normal 0 -1 0
    outer loop
      vertex 29.9227 -35.5 1.98776
      vertex 25.0266 -35.5 5.61383
      vertex 24.3862 -35.5 4.97342
    endloop
  endfacet
  facet normal 0 -1 0
    outer loop
      vertex 29.9227 -35.5 1.98776
      vertex 24.3862 -35.5 4.97342
      vertex 23.8276 -35.5 4.26048
    endloop
  endfacet
  facet normal 0 -1 0
    outer loop
      vertex 29.9227 -35.5 1.98776
      vertex 23.8276 -35.5 4.26048
      vertex 23.3591 -35.5 3.48542
    endloop
  endfacet
  facet normal 0 -1 0
    outer loop
      vertex 28.0979 -35.5 0.618033
      vertex 23.3591 -35.5 3.48542
      vertex 22.9874 -35.5 2.65954
    endloop
  endfacet
  facet normal 0 -1 0
    outer loop
      vertex 25.7395 -35.5 6.17238
      vertex 30 -35.5 2
      vertex 30.0773 -35.5 1.98776
    endloop
  endfacet
  facet normal 0 -1 0
    outer loop
      vertex 25.7395 -35.5 6.17238
      vertex 30.0773 -35.5 1.98776
      vertex 30.618 -35.5 1.90211
    endloop
  endfacet
  facet normal 0 -1 0
    outer loop
      vertex 31.1756 -35.5 1.61803
      vertex 25.7395 -35.5 6.17238
      vertex 30.618 -35.5 1.90211
    endloop
  endfacet
  facet normal 0 -1 0
    outer loop
      vertex 31.618 -35.5 1.17557
      vertex 50 -35.5 25
      vertex 31.1756 -35.5 1.61803
    endloop
  endfacet
  facet normal 0 -1 0
    outer loop
      vertex 31.9021 -35.5 0.618033
      vertex 50 -35.5 25
      vertex 31.618 -35.5 1.17557
    endloop
  endfacet
  facet normal 0 -1 -0
    outer loop
      vertex 50 -35.5 25
      vertex 31.9021 -35.5 0.618033
      vertex 53 -35.5 25
    endloop
  endfacet
  facet normal 0 -1 0
    outer loop
      vertex 32 -35.5 0
      vertex 53 -35.5 25
      vertex 31.9021 -35.5 0.618033
    endloop
  endfacet
  facet normal 0 -1 0
    outer loop
      vertex 53 -35.5 -25
      vertex 32 -35.5 0
      vertex 31.9021 -35.5 -0.618033
    endloop
  endfacet
  facet normal 0 -1 0
    outer loop
      vertex 50 -35.5 -25
      vertex 31.9021 -35.5 -0.618033
      vertex 31.618 -35.5 -1.17557
    endloop
  endfacet
  facet normal 0 -1 0
    outer loop
      vertex 25.7395 -35.5 -6.17238
      vertex 30.5408 -35.5 -1.91435
      vertex 30 -35.5 -2
    endloop
  endfacet
  facet normal 0 -1 0
    outer loop
      vertex 25.0266 -35.5 -5.61383
      vertex 28.8244 -35.5 -1.61803
      vertex 24.3862 -35.5 -4.97342
    endloop
  endfacet
  facet normal 0 -1 0
    outer loop
      vertex 25.7395 -35.5 -6.17238
      vertex 28.8244 -35.5 -1.61803
      vertex 25.0266 -35.5 -5.61383
    endloop
  endfacet
  facet normal 0 -1 -0
    outer loop
      vertex 28.8244 -35.5 -1.61803
      vertex 25.7395 -35.5 -6.17238
      vertex 29.382 -35.5 -1.90211
    endloop
  endfacet
  facet normal 0 -1 -0
    outer loop
      vertex 29.382 -35.5 -1.90211
      vertex 25.7395 -35.5 -6.17238
      vertex 29.4592 -35.5 -1.91435
    endloop
  endfacet
  facet normal 0 -1 -0
    outer loop
      vertex 29.4592 -35.5 -1.91435
      vertex 25.7395 -35.5 -6.17238
      vertex 30 -35.5 -2
    endloop
  endfacet
  facet normal 0 -1 -0
    outer loop
      vertex 30.5408 -35.5 -1.91435
      vertex 25.7395 -35.5 -6.17238
      vertex 30.618 -35.5 -1.90211
    endloop
  endfacet
  facet normal 0 -1 -0
    outer loop
      vertex 30.618 -35.5 -1.90211
      vertex 25.7395 -35.5 -6.17238
      vertex 31.1756 -35.5 -1.61803
    endloop
  endfacet
  facet normal 0 -1 0
    outer loop
      vertex 50 -35.5 -25
      vertex 31.1756 -35.5 -1.61803
      vertex 25.7395 -35.5 -6.17238
    endloop
  endfacet
  facet normal 0 -1 0
    outer loop
      vertex 50 -35.5 -25
      vertex 31.618 -35.5 -1.17557
      vertex 31.1756 -35.5 -1.61803
    endloop
  endfacet
  facet normal 0 -1 0
    outer loop
      vertex 31.9021 -35.5 -0.618033
      vertex 50 -35.5 -25
      vertex 53 -35.5 -25
    endloop
  endfacet
  facet normal 0 -1 0
    outer loop
      vertex 32 -35.5 0
      vertex 53 -35.5 -25
      vertex 53 -35.5 25
    endloop
  endfacet
  facet normal -0.61672 0 0.787183
    outer loop
      vertex 25.0266 -32.5 5.61383
      vertex 25.7395 -35.5 6.17238
      vertex 25.7395 -32.5 6.17238
    endloop
  endfacet
  facet normal -0.61672 0 0.787183
    outer loop
      vertex 25.7395 -35.5 6.17238
      vertex 25.0266 -32.5 5.61383
      vertex 25.0266 -35.5 5.61383
    endloop
  endfacet
  facet normal -0.855781 0 0.517339
    outer loop
      vertex 23.3591 -35.5 3.48542
      vertex 23.8276 -32.5 4.26048
      vertex 23.3591 -32.5 3.48542
    endloop
  endfacet
  facet normal -0.855781 0 0.517339
    outer loop
      vertex 23.8276 -32.5 4.26048
      vertex 23.3591 -35.5 3.48542
      vertex 23.8276 -35.5 4.26048
    endloop
  endfacet
  facet normal -0.954721 0 0.297503
    outer loop
      vertex 22.7179 -35.5 1.79487
      vertex 22.9874 -32.5 2.65954
      vertex 22.7179 -32.5 1.79487
    endloop
  endfacet
  facet normal -0.954721 0 0.297503
    outer loop
      vertex 22.9874 -32.5 2.65954
      vertex 22.7179 -35.5 1.79487
      vertex 22.9874 -35.5 2.65954
    endloop
  endfacet
  facet normal -0.998176 0 0.0603788
    outer loop
      vertex 22.5 -35.5 0
      vertex 22.5547 -32.5 0.904025
      vertex 22.5 -32.5 0
    endloop
  endfacet
  facet normal -0.998176 0 0.0603788
    outer loop
      vertex 22.5547 -32.5 0.904025
      vertex 22.5 -35.5 0
      vertex 22.5547 -35.5 0.904025
    endloop
  endfacet
  facet normal -0.787184 0 0.616719
    outer loop
      vertex 23.8276 -35.5 4.26048
      vertex 24.3862 -32.5 4.97342
      vertex 23.8276 -32.5 4.26048
    endloop
  endfacet
  facet normal -0.787184 0 0.616719
    outer loop
      vertex 24.3862 -32.5 4.97342
      vertex 23.8276 -35.5 4.26048
      vertex 24.3862 -35.5 4.97342
    endloop
  endfacet
  facet normal -0.987688 0 -0.156435
    outer loop
      vertex 32 -35.5 0
      vertex 31.9021 -32.5 0.618033
      vertex 32 -32.5 0
    endloop
  endfacet
  facet normal -0.987688 -0 -0.156435
    outer loop
      vertex 31.9021 -32.5 0.618033
      vertex 32 -35.5 0
      vertex 31.9021 -35.5 0.618033
    endloop
  endfacet
  facet normal -0.891007 0 -0.45399
    outer loop
      vertex 31.9021 -35.5 0.618033
      vertex 31.618 -32.5 1.17557
      vertex 31.9021 -32.5 0.618033
    endloop
  endfacet
  facet normal -0.891007 -0 -0.45399
    outer loop
      vertex 31.618 -32.5 1.17557
      vertex 31.9021 -35.5 0.618033
      vertex 31.618 -35.5 1.17557
    endloop
  endfacet
  facet normal 0.156435 -5.68335e-008 -0.987688
    outer loop
      vertex 29.382 -35.5 1.90211
      vertex 29.4592 -32.5 1.91435
      vertex 29.9227 -35.5 1.98776
    endloop
  endfacet
  facet normal 0.156433 0 -0.987689
    outer loop
      vertex 29.4592 -32.5 1.91435
      vertex 29.382 -35.5 1.90211
      vertex 29.382 -32.5 1.90211
    endloop
  endfacet
  facet normal -0.156433 0 0.987689
    outer loop
      vertex 30.618 -32.5 -1.90211
      vertex 30.5408 -35.5 -1.91435
      vertex 30.618 -35.5 -1.90211
    endloop
  endfacet
  facet normal -0.156434 4.26249e-008 0.987688
    outer loop
      vertex 30.5408 -35.5 -1.91435
      vertex 30.618 -32.5 -1.90211
      vertex 30.0773 -32.5 -1.98776
    endloop
  endfacet
  facet normal -0.453991 0 -0.891006
    outer loop
      vertex 30.618 -35.5 1.90211
      vertex 31.1756 -32.5 1.61803
      vertex 31.1756 -35.5 1.61803
    endloop
  endfacet
  facet normal -0.453991 0 -0.891006
    outer loop
      vertex 31.1756 -32.5 1.61803
      vertex 30.618 -35.5 1.90211
      vertex 30.618 -32.5 1.90211
    endloop
  endfacet
  facet normal -0.156433 0 -0.987689
    outer loop
      vertex 30.618 -35.5 1.90211
      vertex 30.5408 -32.5 1.91435
      vertex 30.618 -32.5 1.90211
    endloop
  endfacet
  facet normal -0.156434 -4.26249e-008 -0.987688
    outer loop
      vertex 30.5408 -32.5 1.91435
      vertex 30.618 -35.5 1.90211
      vertex 30.0773 -35.5 1.98776
    endloop
  endfacet
  facet normal 0.453991 0 -0.891006
    outer loop
      vertex 28.8244 -35.5 1.61803
      vertex 29.382 -32.5 1.90211
      vertex 29.382 -35.5 1.90211
    endloop
  endfacet
  facet normal 0.453991 0 -0.891006
    outer loop
      vertex 29.382 -32.5 1.90211
      vertex 28.8244 -35.5 1.61803
      vertex 28.8244 -32.5 1.61803
    endloop
  endfacet
  facet normal -0.453991 0 0.891006
    outer loop
      vertex 30.618 -32.5 -1.90211
      vertex 31.1756 -35.5 -1.61803
      vertex 31.1756 -32.5 -1.61803
    endloop
  endfacet
  facet normal -0.453991 0 0.891006
    outer loop
      vertex 31.1756 -35.5 -1.61803
      vertex 30.618 -32.5 -1.90211
      vertex 30.618 -35.5 -1.90211
    endloop
  endfacet
  facet normal 0.156435 5.68335e-008 0.987688
    outer loop
      vertex 29.382 -32.5 -1.90211
      vertex 29.4592 -35.5 -1.91435
      vertex 29.9227 -32.5 -1.98776
    endloop
  endfacet
  facet normal 0.156433 0 0.987689
    outer loop
      vertex 29.4592 -35.5 -1.91435
      vertex 29.382 -32.5 -1.90211
      vertex 29.382 -35.5 -1.90211
    endloop
  endfacet
  facet normal 0.891006 -0 0.453992
    outer loop
      vertex 28.0979 -35.5 -0.618033
      vertex 28.382 -32.5 -1.17557
      vertex 28.0979 -32.5 -0.618033
    endloop
  endfacet
  facet normal 0.891006 0 0.453992
    outer loop
      vertex 28.382 -32.5 -1.17557
      vertex 28.0979 -35.5 -0.618033
      vertex 28.382 -35.5 -1.17557
    endloop
  endfacet
  facet normal -0.156435 -2.35483e-007 -0.987688
    outer loop
      vertex 30 -32.5 2
      vertex 30.0773 -35.5 1.98776
      vertex 30 -35.5 2
    endloop
  endfacet
  facet normal -0.156433 -1.92859e-007 -0.987689
    outer loop
      vertex 30.0773 -35.5 1.98776
      vertex 30 -32.5 2
      vertex 30.5408 -32.5 1.91435
    endloop
  endfacet
  facet normal 0.156431 -2.35483e-007 -0.987689
    outer loop
      vertex 29.9227 -35.5 1.98776
      vertex 30 -32.5 2
      vertex 30 -35.5 2
    endloop
  endfacet
  facet normal 0.156433 -2.92316e-007 -0.987689
    outer loop
      vertex 30 -32.5 2
      vertex 29.9227 -35.5 1.98776
      vertex 29.4592 -32.5 1.91435
    endloop
  endfacet
  facet normal 0.987689 0 -0.156432
    outer loop
      vertex 28.0979 -35.5 0.618033
      vertex 28 -32.5 0
      vertex 28.0979 -32.5 0.618033
    endloop
  endfacet
  facet normal 0.987689 0 -0.156432
    outer loop
      vertex 28 -32.5 0
      vertex 28.0979 -35.5 0.618033
      vertex 28 -35.5 0
    endloop
  endfacet
  facet normal 0.987689 -0 0.156432
    outer loop
      vertex 28 -35.5 0
      vertex 28.0979 -32.5 -0.618033
      vertex 28 -32.5 0
    endloop
  endfacet
  facet normal 0.987689 0 0.156432
    outer loop
      vertex 28.0979 -32.5 -0.618033
      vertex 28 -35.5 0
      vertex 28.0979 -35.5 -0.618033
    endloop
  endfacet
  facet normal 0.156431 2.35483e-007 0.987689
    outer loop
      vertex 29.9227 -32.5 -1.98776
      vertex 30 -35.5 -2
      vertex 30 -32.5 -2
    endloop
  endfacet
  facet normal 0.156433 2.92316e-007 0.987689
    outer loop
      vertex 30 -35.5 -2
      vertex 29.9227 -32.5 -1.98776
      vertex 29.4592 -35.5 -1.91435
    endloop
  endfacet
  facet normal -0.156435 2.35483e-007 0.987688
    outer loop
      vertex 30 -35.5 -2
      vertex 30.0773 -32.5 -1.98776
      vertex 30 -32.5 -2
    endloop
  endfacet
  facet normal -0.156433 1.92859e-007 0.987689
    outer loop
      vertex 30.0773 -32.5 -1.98776
      vertex 30 -35.5 -2
      vertex 30.5408 -35.5 -1.91435
    endloop
  endfacet
  facet normal -0.707107 0 -0.707107
    outer loop
      vertex 31.618 -35.5 1.17557
      vertex 31.1756 -32.5 1.61803
      vertex 31.618 -32.5 1.17557
    endloop
  endfacet
  facet normal -0.707107 -0 -0.707107
    outer loop
      vertex 31.1756 -32.5 1.61803
      vertex 31.618 -35.5 1.17557
      vertex 31.1756 -35.5 1.61803
    endloop
  endfacet
  facet normal 0.707107 0 -0.707107
    outer loop
      vertex 28.8244 -35.5 1.61803
      vertex 28.382 -32.5 1.17557
      vertex 28.8244 -32.5 1.61803
    endloop
  endfacet
  facet normal 0.707107 0 -0.707107
    outer loop
      vertex 28.382 -32.5 1.17557
      vertex 28.8244 -35.5 1.61803
      vertex 28.382 -35.5 1.17557
    endloop
  endfacet
  facet normal 0.891006 0 -0.453992
    outer loop
      vertex 28.382 -35.5 1.17557
      vertex 28.0979 -32.5 0.618033
      vertex 28.382 -32.5 1.17557
    endloop
  endfacet
  facet normal 0.891006 0 -0.453992
    outer loop
      vertex 28.0979 -32.5 0.618033
      vertex 28.382 -35.5 1.17557
      vertex 28.0979 -35.5 0.618033
    endloop
  endfacet
  facet normal -0.707107 0 0.707107
    outer loop
      vertex 31.1756 -35.5 -1.61803
      vertex 31.618 -32.5 -1.17557
      vertex 31.1756 -32.5 -1.61803
    endloop
  endfacet
  facet normal -0.707107 0 0.707107
    outer loop
      vertex 31.618 -32.5 -1.17557
      vertex 31.1756 -35.5 -1.61803
      vertex 31.618 -35.5 -1.17557
    endloop
  endfacet
  facet normal -0.891007 0 0.45399
    outer loop
      vertex 31.618 -35.5 -1.17557
      vertex 31.9021 -32.5 -0.618033
      vertex 31.618 -32.5 -1.17557
    endloop
  endfacet
  facet normal -0.891007 0 0.45399
    outer loop
      vertex 31.9021 -32.5 -0.618033
      vertex 31.618 -35.5 -1.17557
      vertex 31.9021 -35.5 -0.618033
    endloop
  endfacet
  facet normal -0.987688 0 0.156435
    outer loop
      vertex 31.9021 -35.5 -0.618033
      vertex 32 -32.5 0
      vertex 31.9021 -32.5 -0.618033
    endloop
  endfacet
  facet normal -0.987688 0 0.156435
    outer loop
      vertex 32 -32.5 0
      vertex 31.9021 -35.5 -0.618033
      vertex 32 -35.5 0
    endloop
  endfacet
  facet normal 0.707107 -0 0.707107
    outer loop
      vertex 28.382 -35.5 -1.17557
      vertex 28.8244 -32.5 -1.61803
      vertex 28.382 -32.5 -1.17557
    endloop
  endfacet
  facet normal 0.707107 0 0.707107
    outer loop
      vertex 28.8244 -32.5 -1.61803
      vertex 28.382 -35.5 -1.17557
      vertex 28.8244 -35.5 -1.61803
    endloop
  endfacet
  facet normal 0.453991 0 0.891006
    outer loop
      vertex 28.8244 -32.5 -1.61803
      vertex 29.382 -35.5 -1.90211
      vertex 29.382 -32.5 -1.90211
    endloop
  endfacet
  facet normal 0.453991 0 0.891006
    outer loop
      vertex 29.382 -35.5 -1.90211
      vertex 28.8244 -32.5 -1.61803
      vertex 28.8244 -35.5 -1.61803
    endloop
  endfacet
  facet normal 0 0 -1
    outer loop
      vertex 50 32.5 -25
      vertex 53 35.5 -25
      vertex 53 32.5 -25
    endloop
  endfacet
  facet normal -0 0 -1
    outer loop
      vertex 53 35.5 -25
      vertex 50 32.5 -25
      vertex 50 35.5 -25
    endloop
  endfacet
  facet normal -0.613095 0 -0.790009
    outer loop
      vertex 25.7395 32.5 -6.17238
      vertex 50 35.5 -25
      vertex 50 32.5 -25
    endloop
  endfacet
  facet normal -0.613095 0 -0.790009
    outer loop
      vertex 50 35.5 -25
      vertex 25.7395 32.5 -6.17238
      vertex 25.7395 35.5 -6.17238
    endloop
  endfacet
  facet normal -0 0 1
    outer loop
      vertex 50 35.5 25
      vertex 53 32.5 25
      vertex 53 35.5 25
    endloop
  endfacet
  facet normal 0 0 1
    outer loop
      vertex 53 32.5 25
      vertex 50 35.5 25
      vertex 50 32.5 25
    endloop
  endfacet
  facet normal -0.61672 0 -0.787183
    outer loop
      vertex 25.0266 32.5 -5.61383
      vertex 25.7395 35.5 -6.17238
      vertex 25.7395 32.5 -6.17238
    endloop
  endfacet
  facet normal -0.61672 0 -0.787183
    outer loop
      vertex 25.7395 35.5 -6.17238
      vertex 25.0266 32.5 -5.61383
      vertex 25.0266 35.5 -5.61383
    endloop
  endfacet
  facet normal -0.707107 0 -0.707107
    outer loop
      vertex 25.0266 32.5 -5.61383
      vertex 24.3862 35.5 -4.97342
      vertex 25.0266 35.5 -5.61383
    endloop
  endfacet
  facet normal -0.707107 -0 -0.707107
    outer loop
      vertex 24.3862 35.5 -4.97342
      vertex 25.0266 32.5 -5.61383
      vertex 24.3862 32.5 -4.97342
    endloop
  endfacet
  facet normal -0.954721 0 -0.297503
    outer loop
      vertex 22.9874 32.5 -2.65954
      vertex 22.7179 35.5 -1.79487
      vertex 22.9874 35.5 -2.65954
    endloop
  endfacet
  facet normal -0.954721 -0 -0.297503
    outer loop
      vertex 22.7179 35.5 -1.79487
      vertex 22.9874 32.5 -2.65954
      vertex 22.7179 32.5 -1.79487
    endloop
  endfacet
  facet normal -0.9119 0 0.410413
    outer loop
      vertex 22.9874 32.5 2.65954
      vertex 23.3591 35.5 3.48542
      vertex 22.9874 35.5 2.65954
    endloop
  endfacet
  facet normal -0.9119 0 0.410413
    outer loop
      vertex 23.3591 35.5 3.48542
      vertex 22.9874 32.5 2.65954
      vertex 23.3591 32.5 3.48542
    endloop
  endfacet
  facet normal -0.613095 0 0.790009
    outer loop
      vertex 25.7395 35.5 6.17238
      vertex 50 32.5 25
      vertex 50 35.5 25
    endloop
  endfacet
  facet normal -0.613095 0 0.790009
    outer loop
      vertex 50 32.5 25
      vertex 25.7395 35.5 6.17238
      vertex 25.7395 32.5 6.17238
    endloop
  endfacet
  facet normal -0.998176 0 -0.0603788
    outer loop
      vertex 22.5547 32.5 -0.904025
      vertex 22.5 35.5 0
      vertex 22.5547 35.5 -0.904025
    endloop
  endfacet
  facet normal -0.998176 -0 -0.0603788
    outer loop
      vertex 22.5 35.5 0
      vertex 22.5547 32.5 -0.904025
      vertex 22.5 32.5 0
    endloop
  endfacet
  facet normal -0.9119 0 -0.410413
    outer loop
      vertex 23.3591 32.5 -3.48542
      vertex 22.9874 35.5 -2.65954
      vertex 23.3591 35.5 -3.48542
    endloop
  endfacet
  facet normal -0.9119 -0 -0.410413
    outer loop
      vertex 22.9874 35.5 -2.65954
      vertex 23.3591 32.5 -3.48542
      vertex 22.9874 32.5 -2.65954
    endloop
  endfacet
  facet normal -0.787184 0 -0.616719
    outer loop
      vertex 24.3862 32.5 -4.97342
      vertex 23.8276 35.5 -4.26048
      vertex 24.3862 35.5 -4.97342
    endloop
  endfacet
  facet normal -0.787184 -0 -0.616719
    outer loop
      vertex 23.8276 35.5 -4.26048
      vertex 24.3862 32.5 -4.97342
      vertex 23.8276 32.5 -4.26048
    endloop
  endfacet
  facet normal -0.855781 0 -0.517339
    outer loop
      vertex 23.8276 32.5 -4.26048
      vertex 23.3591 35.5 -3.48542
      vertex 23.8276 35.5 -4.26048
    endloop
  endfacet
  facet normal -0.855781 -0 -0.517339
    outer loop
      vertex 23.3591 35.5 -3.48542
      vertex 23.8276 32.5 -4.26048
      vertex 23.3591 32.5 -3.48542
    endloop
  endfacet
  facet normal -0.707107 0 0.707107
    outer loop
      vertex 24.3862 32.5 4.97342
      vertex 25.0266 35.5 5.61383
      vertex 24.3862 35.5 4.97342
    endloop
  endfacet
  facet normal -0.707107 0 0.707107
    outer loop
      vertex 25.0266 35.5 5.61383
      vertex 24.3862 32.5 4.97342
      vertex 25.0266 32.5 5.61383
    endloop
  endfacet
  facet normal -0.98362 0 0.180254
    outer loop
      vertex 22.5547 32.5 0.904025
      vertex 22.7179 35.5 1.79487
      vertex 22.5547 35.5 0.904025
    endloop
  endfacet
  facet normal -0.98362 0 0.180254
    outer loop
      vertex 22.7179 35.5 1.79487
      vertex 22.5547 32.5 0.904025
      vertex 22.7179 32.5 1.79487
    endloop
  endfacet
  facet normal 0 1 0
    outer loop
      vertex 31.9021 35.5 0.618033
      vertex 50 35.5 25
      vertex 53 35.5 25
    endloop
  endfacet
  facet normal 0 1 0
    outer loop
      vertex 50 35.5 25
      vertex 31.1756 35.5 1.61803
      vertex 25.7395 35.5 6.17238
    endloop
  endfacet
  facet normal -0 1 -0
    outer loop
      vertex 30.5408 35.5 1.91435
      vertex 25.7395 35.5 6.17238
      vertex 30.618 35.5 1.90211
    endloop
  endfacet
  facet normal -0 1 -0
    outer loop
      vertex 30 35.5 2
      vertex 25.7395 35.5 6.17238
      vertex 30.5408 35.5 1.91435
    endloop
  endfacet
  facet normal 0 1 -0
    outer loop
      vertex 29.382 35.5 1.90211
      vertex 25.7395 35.5 6.17238
      vertex 29.4592 35.5 1.91435
    endloop
  endfacet
  facet normal 0 1 0
    outer loop
      vertex 25.7395 35.5 6.17238
      vertex 28.8244 35.5 1.61803
      vertex 25.0266 35.5 5.61383
    endloop
  endfacet
  facet normal 0 1 0
    outer loop
      vertex 25.0266 35.5 5.61383
      vertex 28.8244 35.5 1.61803
      vertex 24.3862 35.5 4.97342
    endloop
  endfacet
  facet normal 0 1 -0
    outer loop
      vertex 28.8244 35.5 1.61803
      vertex 25.7395 35.5 6.17238
      vertex 29.382 35.5 1.90211
    endloop
  endfacet
  facet normal 0 1 -0
    outer loop
      vertex 29.4592 35.5 1.91435
      vertex 25.7395 35.5 6.17238
      vertex 30 35.5 2
    endloop
  endfacet
  facet normal 0 1 0
    outer loop
      vertex 25.7395 35.5 6.17238
      vertex 31.1756 35.5 1.61803
      vertex 30.618 35.5 1.90211
    endloop
  endfacet
  facet normal 0 1 0
    outer loop
      vertex 50 35.5 25
      vertex 31.618 35.5 1.17557
      vertex 31.1756 35.5 1.61803
    endloop
  endfacet
  facet normal 0 1 0
    outer loop
      vertex 50 35.5 25
      vertex 31.9021 35.5 0.618033
      vertex 31.618 35.5 1.17557
    endloop
  endfacet
  facet normal 0 1 0
    outer loop
      vertex 53 35.5 25
      vertex 32 35.5 0
      vertex 31.9021 35.5 0.618033
    endloop
  endfacet
  facet normal 0 1 -0
    outer loop
      vertex 53 35.5 -25
      vertex 32 35.5 0
      vertex 53 35.5 25
    endloop
  endfacet
  facet normal 0 1 0
    outer loop
      vertex 32 35.5 0
      vertex 53 35.5 -25
      vertex 31.9021 35.5 -0.618033
    endloop
  endfacet
  facet normal 0 1 0
    outer loop
      vertex 25.7395 35.5 -6.17238
      vertex 30.0773 35.5 -1.98776
      vertex 30.618 35.5 -1.90211
    endloop
  endfacet
  facet normal 0 1 0
    outer loop
      vertex 28.0979 35.5 -0.618033
      vertex 23.3591 35.5 -3.48542
      vertex 22.9874 35.5 -2.65954
    endloop
  endfacet
  facet normal 0 1 0
    outer loop
      vertex 30.0773 35.5 -1.98776
      vertex 25.7395 35.5 -6.17238
      vertex 30 35.5 -2
    endloop
  endfacet
  facet normal 0 1 0
    outer loop
      vertex 29.9227 35.5 -1.98776
      vertex 23.8276 35.5 -4.26048
      vertex 23.3591 35.5 -3.48542
    endloop
  endfacet
  facet normal 0 1 0
    outer loop
      vertex 29.9227 35.5 -1.98776
      vertex 24.3862 35.5 -4.97342
      vertex 23.8276 35.5 -4.26048
    endloop
  endfacet
  facet normal 0 1 0
    outer loop
      vertex 29.9227 35.5 -1.98776
      vertex 25.0266 35.5 -5.61383
      vertex 24.3862 35.5 -4.97342
    endloop
  endfacet
  facet normal 0 1 0
    outer loop
      vertex 25.7395 35.5 -6.17238
      vertex 30.618 35.5 -1.90211
      vertex 31.1756 35.5 -1.61803
    endloop
  endfacet
  facet normal 0 1 0
    outer loop
      vertex 29.9227 35.5 -1.98776
      vertex 25.7395 35.5 -6.17238
      vertex 25.0266 35.5 -5.61383
    endloop
  endfacet
  facet normal 0 1 -0
    outer loop
      vertex 50 35.5 -25
      vertex 31.9021 35.5 -0.618033
      vertex 53 35.5 -25
    endloop
  endfacet
  facet normal 0 1 0
    outer loop
      vertex 31.9021 35.5 -0.618033
      vertex 50 35.5 -25
      vertex 31.618 35.5 -1.17557
    endloop
  endfacet
  facet normal 0 1 0
    outer loop
      vertex 31.618 35.5 -1.17557
      vertex 50 35.5 -25
      vertex 31.1756 35.5 -1.61803
    endloop
  endfacet
  facet normal 0 1 0
    outer loop
      vertex 31.1756 35.5 -1.61803
      vertex 50 35.5 -25
      vertex 25.7395 35.5 -6.17238
    endloop
  endfacet
  facet normal 0 1 -0
    outer loop
      vertex 28.382 35.5 1.17557
      vertex 24.3862 35.5 4.97342
      vertex 28.8244 35.5 1.61803
    endloop
  endfacet
  facet normal 0 1 0
    outer loop
      vertex 24.3862 35.5 4.97342
      vertex 28.382 35.5 1.17557
      vertex 23.8276 35.5 4.26048
    endloop
  endfacet
  facet normal 0 1 0
    outer loop
      vertex 23.8276 35.5 4.26048
      vertex 28.382 35.5 1.17557
      vertex 23.3591 35.5 3.48542
    endloop
  endfacet
  facet normal 0 1 -0
    outer loop
      vertex 28.0979 35.5 0.618033
      vertex 23.3591 35.5 3.48542
      vertex 28.382 35.5 1.17557
    endloop
  endfacet
  facet normal 0 1 0
    outer loop
      vertex 23.3591 35.5 3.48542
      vertex 28.0979 35.5 0.618033
      vertex 22.9874 35.5 2.65954
    endloop
  endfacet
  facet normal 0 1 0
    outer loop
      vertex 22.9874 35.5 2.65954
      vertex 28.0979 35.5 0.618033
      vertex 22.7179 35.5 1.79487
    endloop
  endfacet
  facet normal 0 1 0
    outer loop
      vertex 22.7179 35.5 1.79487
      vertex 28.0979 35.5 0.618033
      vertex 22.5547 35.5 0.904025
    endloop
  endfacet
  facet normal 0 1 -0
    outer loop
      vertex 28 35.5 0
      vertex 22.5547 35.5 0.904025
      vertex 28.0979 35.5 0.618033
    endloop
  endfacet
  facet normal 0 1 0
    outer loop
      vertex 28 35.5 0
      vertex 22.5 35.5 0
      vertex 22.5547 35.5 0.904025
    endloop
  endfacet
  facet normal 0 1 0
    outer loop
      vertex 22.5547 35.5 -0.904025
      vertex 28 35.5 0
      vertex 28.0979 35.5 -0.618033
    endloop
  endfacet
  facet normal 0 1 0
    outer loop
      vertex 28 35.5 0
      vertex 22.5547 35.5 -0.904025
      vertex 22.5 35.5 0
    endloop
  endfacet
  facet normal 0 1 0
    outer loop
      vertex 23.3591 35.5 -3.48542
      vertex 28.0979 35.5 -0.618033
      vertex 28.382 35.5 -1.17557
    endloop
  endfacet
  facet normal 0 1 0
    outer loop
      vertex 23.3591 35.5 -3.48542
      vertex 28.382 35.5 -1.17557
      vertex 28.8244 35.5 -1.61803
    endloop
  endfacet
  facet normal 0 1 0
    outer loop
      vertex 28.0979 35.5 -0.618033
      vertex 22.7179 35.5 -1.79487
      vertex 22.5547 35.5 -0.904025
    endloop
  endfacet
  facet normal 0 1 0
    outer loop
      vertex 23.3591 35.5 -3.48542
      vertex 28.8244 35.5 -1.61803
      vertex 29.382 35.5 -1.90211
    endloop
  endfacet
  facet normal 0 1 0
    outer loop
      vertex 23.3591 35.5 -3.48542
      vertex 29.382 35.5 -1.90211
      vertex 29.9227 35.5 -1.98776
    endloop
  endfacet
  facet normal 0 1 0
    outer loop
      vertex 25.7395 35.5 -6.17238
      vertex 29.9227 35.5 -1.98776
      vertex 30 35.5 -2
    endloop
  endfacet
  facet normal 0 1 0
    outer loop
      vertex 28.0979 35.5 -0.618033
      vertex 22.9874 35.5 -2.65954
      vertex 22.7179 35.5 -1.79487
    endloop
  endfacet
  facet normal -0.98362 0 -0.180254
    outer loop
      vertex 22.7179 32.5 -1.79487
      vertex 22.5547 35.5 -0.904025
      vertex 22.7179 35.5 -1.79487
    endloop
  endfacet
  facet normal -0.98362 -0 -0.180254
    outer loop
      vertex 22.5547 35.5 -0.904025
      vertex 22.7179 32.5 -1.79487
      vertex 22.5547 32.5 -0.904025
    endloop
  endfacet
  facet normal -0.61672 0 0.787183
    outer loop
      vertex 25.0266 35.5 5.61383
      vertex 25.7395 32.5 6.17238
      vertex 25.7395 35.5 6.17238
    endloop
  endfacet
  facet normal -0.61672 0 0.787183
    outer loop
      vertex 25.7395 32.5 6.17238
      vertex 25.0266 35.5 5.61383
      vertex 25.0266 32.5 5.61383
    endloop
  endfacet
  facet normal -0.855781 0 0.517339
    outer loop
      vertex 23.3591 32.5 3.48542
      vertex 23.8276 35.5 4.26048
      vertex 23.3591 35.5 3.48542
    endloop
  endfacet
  facet normal -0.855781 0 0.517339
    outer loop
      vertex 23.8276 35.5 4.26048
      vertex 23.3591 32.5 3.48542
      vertex 23.8276 32.5 4.26048
    endloop
  endfacet
  facet normal -0.954721 0 0.297503
    outer loop
      vertex 22.7179 32.5 1.79487
      vertex 22.9874 35.5 2.65954
      vertex 22.7179 35.5 1.79487
    endloop
  endfacet
  facet normal -0.954721 0 0.297503
    outer loop
      vertex 22.9874 35.5 2.65954
      vertex 22.7179 32.5 1.79487
      vertex 22.9874 32.5 2.65954
    endloop
  endfacet
  facet normal -0.998176 0 0.0603788
    outer loop
      vertex 22.5 32.5 0
      vertex 22.5547 35.5 0.904025
      vertex 22.5 35.5 0
    endloop
  endfacet
  facet normal -0.998176 0 0.0603788
    outer loop
      vertex 22.5547 35.5 0.904025
      vertex 22.5 32.5 0
      vertex 22.5547 32.5 0.904025
    endloop
  endfacet
  facet normal -0.787184 0 0.616719
    outer loop
      vertex 23.8276 32.5 4.26048
      vertex 24.3862 35.5 4.97342
      vertex 23.8276 35.5 4.26048
    endloop
  endfacet
  facet normal -0.787184 0 0.616719
    outer loop
      vertex 24.3862 35.5 4.97342
      vertex 23.8276 32.5 4.26048
      vertex 24.3862 32.5 4.97342
    endloop
  endfacet
  facet normal -0.987688 0 -0.156435
    outer loop
      vertex 32 32.5 0
      vertex 31.9021 35.5 0.618033
      vertex 32 35.5 0
    endloop
  endfacet
  facet normal -0.987688 -0 -0.156435
    outer loop
      vertex 31.9021 35.5 0.618033
      vertex 32 32.5 0
      vertex 31.9021 32.5 0.618033
    endloop
  endfacet
  facet normal -0.891007 0 -0.45399
    outer loop
      vertex 31.9021 32.5 0.618033
      vertex 31.618 35.5 1.17557
      vertex 31.9021 35.5 0.618033
    endloop
  endfacet
  facet normal -0.891007 -0 -0.45399
    outer loop
      vertex 31.618 35.5 1.17557
      vertex 31.9021 32.5 0.618033
      vertex 31.618 32.5 1.17557
    endloop
  endfacet
  facet normal 0.156435 -5.68335e-008 -0.987688
    outer loop
      vertex 29.382 32.5 1.90211
      vertex 29.4592 35.5 1.91435
      vertex 29.9227 32.5 1.98776
    endloop
  endfacet
  facet normal 0.156433 0 -0.987689
    outer loop
      vertex 29.4592 35.5 1.91435
      vertex 29.382 32.5 1.90211
      vertex 29.382 35.5 1.90211
    endloop
  endfacet
  facet normal -0.156433 0 0.987689
    outer loop
      vertex 30.618 35.5 -1.90211
      vertex 30.5408 32.5 -1.91435
      vertex 30.618 32.5 -1.90211
    endloop
  endfacet
  facet normal -0.156434 4.26249e-008 0.987688
    outer loop
      vertex 30.5408 32.5 -1.91435
      vertex 30.618 35.5 -1.90211
      vertex 30.0773 35.5 -1.98776
    endloop
  endfacet
  facet normal -0.453991 0 -0.891006
    outer loop
      vertex 30.618 32.5 1.90211
      vertex 31.1756 35.5 1.61803
      vertex 31.1756 32.5 1.61803
    endloop
  endfacet
  facet normal -0.453991 0 -0.891006
    outer loop
      vertex 31.1756 35.5 1.61803
      vertex 30.618 32.5 1.90211
      vertex 30.618 35.5 1.90211
    endloop
  endfacet
  facet normal -0.156433 0 -0.987689
    outer loop
      vertex 30.618 32.5 1.90211
      vertex 30.5408 35.5 1.91435
      vertex 30.618 35.5 1.90211
    endloop
  endfacet
  facet normal -0.156434 -4.26249e-008 -0.987688
    outer loop
      vertex 30.5408 35.5 1.91435
      vertex 30.618 32.5 1.90211
      vertex 30.0773 32.5 1.98776
    endloop
  endfacet
  facet normal 0.891006 0 -0.453992
    outer loop
      vertex 28.382 32.5 1.17557
      vertex 28.0979 35.5 0.618033
      vertex 28.382 35.5 1.17557
    endloop
  endfacet
  facet normal 0.891006 0 -0.453992
    outer loop
      vertex 28.0979 35.5 0.618033
      vertex 28.382 32.5 1.17557
      vertex 28.0979 32.5 0.618033
    endloop
  endfacet
  facet normal 0.453991 0 -0.891006
    outer loop
      vertex 28.8244 32.5 1.61803
      vertex 29.382 35.5 1.90211
      vertex 29.382 32.5 1.90211
    endloop
  endfacet
  facet normal 0.453991 0 -0.891006
    outer loop
      vertex 29.382 35.5 1.90211
      vertex 28.8244 32.5 1.61803
      vertex 28.8244 35.5 1.61803
    endloop
  endfacet
  facet normal -0.453991 0 0.891006
    outer loop
      vertex 30.618 35.5 -1.90211
      vertex 31.1756 32.5 -1.61803
      vertex 31.1756 35.5 -1.61803
    endloop
  endfacet
  facet normal -0.453991 0 0.891006
    outer loop
      vertex 31.1756 32.5 -1.61803
      vertex 30.618 35.5 -1.90211
      vertex 30.618 32.5 -1.90211
    endloop
  endfacet
  facet normal 0.156435 5.68335e-008 0.987688
    outer loop
      vertex 29.382 35.5 -1.90211
      vertex 29.4592 32.5 -1.91435
      vertex 29.9227 35.5 -1.98776
    endloop
  endfacet
  facet normal 0.156433 0 0.987689
    outer loop
      vertex 29.4592 32.5 -1.91435
      vertex 29.382 35.5 -1.90211
      vertex 29.382 32.5 -1.90211
    endloop
  endfacet
  facet normal 0.891006 -0 0.453992
    outer loop
      vertex 28.0979 32.5 -0.618033
      vertex 28.382 35.5 -1.17557
      vertex 28.0979 35.5 -0.618033
    endloop
  endfacet
  facet normal 0.891006 0 0.453992
    outer loop
      vertex 28.382 35.5 -1.17557
      vertex 28.0979 32.5 -0.618033
      vertex 28.382 32.5 -1.17557
    endloop
  endfacet
  facet normal -0.156435 -2.35483e-007 -0.987688
    outer loop
      vertex 30 35.5 2
      vertex 30.0773 32.5 1.98776
      vertex 30 32.5 2
    endloop
  endfacet
  facet normal -0.156433 -1.92859e-007 -0.987689
    outer loop
      vertex 30.0773 32.5 1.98776
      vertex 30 35.5 2
      vertex 30.5408 35.5 1.91435
    endloop
  endfacet
  facet normal 0.156431 -2.35483e-007 -0.987689
    outer loop
      vertex 29.9227 32.5 1.98776
      vertex 30 35.5 2
      vertex 30 32.5 2
    endloop
  endfacet
  facet normal 0.156433 -2.92316e-007 -0.987689
    outer loop
      vertex 30 35.5 2
      vertex 29.9227 32.5 1.98776
      vertex 29.4592 35.5 1.91435
    endloop
  endfacet
  facet normal 0.987689 0 -0.156432
    outer loop
      vertex 28.0979 32.5 0.618033
      vertex 28 35.5 0
      vertex 28.0979 35.5 0.618033
    endloop
  endfacet
  facet normal 0.987689 0 -0.156432
    outer loop
      vertex 28 35.5 0
      vertex 28.0979 32.5 0.618033
      vertex 28 32.5 0
    endloop
  endfacet
  facet normal 0.987689 -0 0.156432
    outer loop
      vertex 28 32.5 0
      vertex 28.0979 35.5 -0.618033
      vertex 28 35.5 0
    endloop
  endfacet
  facet normal 0.987689 0 0.156432
    outer loop
      vertex 28.0979 35.5 -0.618033
      vertex 28 32.5 0
      vertex 28.0979 32.5 -0.618033
    endloop
  endfacet
  facet normal 0.156431 2.35483e-007 0.987689
    outer loop
      vertex 29.9227 35.5 -1.98776
      vertex 30 32.5 -2
      vertex 30 35.5 -2
    endloop
  endfacet
  facet normal 0.156433 2.92316e-007 0.987689
    outer loop
      vertex 30 32.5 -2
      vertex 29.9227 35.5 -1.98776
      vertex 29.4592 32.5 -1.91435
    endloop
  endfacet
  facet normal -0.156435 2.35483e-007 0.987688
    outer loop
      vertex 30 32.5 -2
      vertex 30.0773 35.5 -1.98776
      vertex 30 35.5 -2
    endloop
  endfacet
  facet normal -0.156433 1.92859e-007 0.987689
    outer loop
      vertex 30.0773 35.5 -1.98776
      vertex 30 32.5 -2
      vertex 30.5408 32.5 -1.91435
    endloop
  endfacet
  facet normal -0.707107 0 -0.707107
    outer loop
      vertex 31.618 32.5 1.17557
      vertex 31.1756 35.5 1.61803
      vertex 31.618 35.5 1.17557
    endloop
  endfacet
  facet normal -0.707107 -0 -0.707107
    outer loop
      vertex 31.1756 35.5 1.61803
      vertex 31.618 32.5 1.17557
      vertex 31.1756 32.5 1.61803
    endloop
  endfacet
  facet normal 0.707107 0 -0.707107
    outer loop
      vertex 28.8244 32.5 1.61803
      vertex 28.382 35.5 1.17557
      vertex 28.8244 35.5 1.61803
    endloop
  endfacet
  facet normal 0.707107 0 -0.707107
    outer loop
      vertex 28.382 35.5 1.17557
      vertex 28.8244 32.5 1.61803
      vertex 28.382 32.5 1.17557
    endloop
  endfacet
  facet normal -0.707107 0 0.707107
    outer loop
      vertex 31.1756 32.5 -1.61803
      vertex 31.618 35.5 -1.17557
      vertex 31.1756 35.5 -1.61803
    endloop
  endfacet
  facet normal -0.707107 0 0.707107
    outer loop
      vertex 31.618 35.5 -1.17557
      vertex 31.1756 32.5 -1.61803
      vertex 31.618 32.5 -1.17557
    endloop
  endfacet
  facet normal -0.891007 0 0.45399
    outer loop
      vertex 31.618 32.5 -1.17557
      vertex 31.9021 35.5 -0.618033
      vertex 31.618 35.5 -1.17557
    endloop
  endfacet
  facet normal -0.891007 0 0.45399
    outer loop
      vertex 31.9021 35.5 -0.618033
      vertex 31.618 32.5 -1.17557
      vertex 31.9021 32.5 -0.618033
    endloop
  endfacet
  facet normal -0.987688 0 0.156435
    outer loop
      vertex 31.9021 32.5 -0.618033
      vertex 32 35.5 0
      vertex 31.9021 35.5 -0.618033
    endloop
  endfacet
  facet normal -0.987688 0 0.156435
    outer loop
      vertex 32 35.5 0
      vertex 31.9021 32.5 -0.618033
      vertex 32 32.5 0
    endloop
  endfacet
  facet normal 0.707107 -0 0.707107
    outer loop
      vertex 28.382 32.5 -1.17557
      vertex 28.8244 35.5 -1.61803
      vertex 28.382 35.5 -1.17557
    endloop
  endfacet
  facet normal 0.707107 0 0.707107
    outer loop
      vertex 28.8244 35.5 -1.61803
      vertex 28.382 32.5 -1.17557
      vertex 28.8244 32.5 -1.61803
    endloop
  endfacet
  facet normal 0.453991 0 0.891006
    outer loop
      vertex 28.8244 35.5 -1.61803
      vertex 29.382 32.5 -1.90211
      vertex 29.382 35.5 -1.90211
    endloop
  endfacet
  facet normal 0.453991 0 0.891006
    outer loop
      vertex 29.382 32.5 -1.90211
      vertex 28.8244 35.5 -1.61803
      vertex 28.8244 32.5 -1.61803
    endloop
  endfacet
endsolid OpenSCAD_Model
