solid OpenSCAD_Model
  facet normal -1 0 0
    outer loop
      vertex -46 -32.5 -97.9698
      vertex -46 32.5 -97.9698
      vertex -46 32.5 -98
    endloop
  endfacet
  facet normal -1 0 0
    outer loop
      vertex -46 -32.5 -97.9698
      vertex -46 32.5 -98
      vertex -46 -32.5 -98
    endloop
  endfacet
  facet normal -1 0 0
    outer loop
      vertex -46 32.5 -97.9698
      vertex -46 -32.5 -97.9698
      vertex -46 32.5 -95
    endloop
  endfacet
  facet normal -1 -0 0
    outer loop
      vertex -46 32.5 -95
      vertex -46 -32.5 -97.9698
      vertex -46 -32.5 -95
    endloop
  endfacet
  facet normal -0 0 1
    outer loop
      vertex 16 32.5 -95
      vertex 34 -32.5 -95
      vertex 34 32.5 -95
    endloop
  endfacet
  facet normal 0 0 1
    outer loop
      vertex 16 32.5 -95
      vertex 16 -32.5 -95
      vertex 34 -32.5 -95
    endloop
  endfacet
  facet normal -0 0 1
    outer loop
      vertex -46 32.5 -95
      vertex 16 -32.5 -95
      vertex 16 32.5 -95
    endloop
  endfacet
  facet normal 0 0 1
    outer loop
      vertex 16 -32.5 -95
      vertex -46 32.5 -95
      vertex -46 -32.5 -95
    endloop
  endfacet
  facet normal 1 -0 0
    outer loop
      vertex 34 -32.5 -95
      vertex 34 32.5 -98
      vertex 34 32.5 -95
    endloop
  endfacet
  facet normal 1 0 0
    outer loop
      vertex 34 32.5 -98
      vertex 34 -32.5 -95
      vertex 34 -32.5 -98
    endloop
  endfacet
  facet normal 0 -1 0
    outer loop
      vertex -53 32.5 -90.5
      vertex -52.9453 32.5 -91.404
      vertex -50 32.5 -90.5
    endloop
  endfacet
  facet normal 0 -1 -0
    outer loop
      vertex -50 32.5 -90.5
      vertex -51.1138 32.5 -95.4734
      vertex -46 32.5 -95
    endloop
  endfacet
  facet normal 0 -1 0
    outer loop
      vertex -50.4734 32.5 -96.1138
      vertex -46 32.5 -95
      vertex -51.1138 32.5 -95.4734
    endloop
  endfacet
  facet normal 0 -1 0
    outer loop
      vertex -49.7605 32.5 -96.6724
      vertex -46 32.5 -95
      vertex -50.4734 32.5 -96.1138
    endloop
  endfacet
  facet normal 0 -1 0
    outer loop
      vertex -48.9854 32.5 -97.1409
      vertex -46 32.5 -95
      vertex -49.7605 32.5 -96.6724
    endloop
  endfacet
  facet normal 0 -1 0
    outer loop
      vertex -48.1595 32.5 -97.5126
      vertex -46 32.5 -95
      vertex -48.9854 32.5 -97.1409
    endloop
  endfacet
  facet normal 0 -1 0
    outer loop
      vertex -47.2949 32.5 -97.7821
      vertex -46 32.5 -95
      vertex -48.1595 32.5 -97.5126
    endloop
  endfacet
  facet normal 0 -1 0
    outer loop
      vertex -46.404 32.5 -97.9453
      vertex -46 32.5 -95
      vertex -47.2949 32.5 -97.7821
    endloop
  endfacet
  facet normal 0 -1 -0
    outer loop
      vertex -46 32.5 -95
      vertex -46.404 32.5 -97.9453
      vertex -46 32.5 -97.9698
    endloop
  endfacet
  facet normal 0 -1 0
    outer loop
      vertex -50 32.5 -29
      vertex -26.118 32.5 -68.5979
      vertex -25.5 32.5 -68.5
    endloop
  endfacet
  facet normal 0 -1 0
    outer loop
      vertex -50 32.5 -29
      vertex -26.6756 32.5 -68.882
      vertex -26.118 32.5 -68.5979
    endloop
  endfacet
  facet normal 0 -1 0
    outer loop
      vertex -50 32.5 -29
      vertex -27.118 32.5 -69.3244
      vertex -26.6756 32.5 -68.882
    endloop
  endfacet
  facet normal 0 -1 0
    outer loop
      vertex -50 32.5 -29
      vertex -27.4021 32.5 -69.882
      vertex -27.118 32.5 -69.3244
    endloop
  endfacet
  facet normal 0 -1 0
    outer loop
      vertex -50 32.5 -90.5
      vertex -27.4021 32.5 -69.882
      vertex -50 32.5 -29
    endloop
  endfacet
  facet normal 0 -1 0
    outer loop
      vertex -27.4021 32.5 -69.882
      vertex -50 32.5 -90.5
      vertex -27.5 32.5 -70.5
    endloop
  endfacet
  facet normal 0 -1 -0
    outer loop
      vertex -27.5 32.5 -70.5
      vertex -50 32.5 -90.5
      vertex -27.4021 32.5 -71.118
    endloop
  endfacet
  facet normal 0 -1 -0
    outer loop
      vertex -26.6756 32.5 -72.118
      vertex -46 32.5 -95
      vertex -26.118 32.5 -72.4021
    endloop
  endfacet
  facet normal 0 -1 0
    outer loop
      vertex -46 32.5 -95
      vertex -26.6756 32.5 -72.118
      vertex -50 32.5 -90.5
    endloop
  endfacet
  facet normal 0 -1 -0
    outer loop
      vertex -27.118 32.5 -71.6756
      vertex -50 32.5 -90.5
      vertex -26.6756 32.5 -72.118
    endloop
  endfacet
  facet normal 0 -1 -0
    outer loop
      vertex -27.4021 32.5 -71.118
      vertex -50 32.5 -90.5
      vertex -27.118 32.5 -71.6756
    endloop
  endfacet
  facet normal 0 -1 0
    outer loop
      vertex -24.882 32.5 -68.5979
      vertex -50 32.5 -29
      vertex -25.5 32.5 -68.5
    endloop
  endfacet
  facet normal 0 -1 0
    outer loop
      vertex -24.3244 32.5 -68.882
      vertex -50 32.5 -29
      vertex -24.882 32.5 -68.5979
    endloop
  endfacet
  facet normal 0 -1 0
    outer loop
      vertex -23.882 32.5 -69.3244
      vertex -50 32.5 -29
      vertex -24.3244 32.5 -68.882
    endloop
  endfacet
  facet normal 0 -1 -0
    outer loop
      vertex -26.118 32.5 -72.4021
      vertex -46 32.5 -95
      vertex -25.5 32.5 -72.5
    endloop
  endfacet
  facet normal 0 -1 -0
    outer loop
      vertex -25.5 32.5 -72.5
      vertex -46 32.5 -95
      vertex -24.882 32.5 -72.4021
    endloop
  endfacet
  facet normal 0 -1 0
    outer loop
      vertex -52.7821 32.5 -92.2949
      vertex -50 32.5 -90.5
      vertex -52.9453 32.5 -91.404
    endloop
  endfacet
  facet normal 0 -1 0
    outer loop
      vertex -52.5126 32.5 -93.1595
      vertex -50 32.5 -90.5
      vertex -52.7821 32.5 -92.2949
    endloop
  endfacet
  facet normal 0 -1 0
    outer loop
      vertex -52.1409 32.5 -93.9854
      vertex -50 32.5 -90.5
      vertex -52.5126 32.5 -93.1595
    endloop
  endfacet
  facet normal 0 -1 0
    outer loop
      vertex -51.6724 32.5 -94.7605
      vertex -50 32.5 -90.5
      vertex -52.1409 32.5 -93.9854
    endloop
  endfacet
  facet normal 0 -1 0
    outer loop
      vertex -51.1138 32.5 -95.4734
      vertex -50 32.5 -90.5
      vertex -51.6724 32.5 -94.7605
    endloop
  endfacet
  facet normal 0 -1 0
    outer loop
      vertex 16 32.5 -95
      vertex -24.882 32.5 -72.4021
      vertex -46 32.5 -95
    endloop
  endfacet
  facet normal 0 -1 0
    outer loop
      vertex -24.882 32.5 -72.4021
      vertex 16 32.5 -95
      vertex -24.3244 32.5 -72.118
    endloop
  endfacet
  facet normal 0 -1 0
    outer loop
      vertex -23.882 32.5 -69.3244
      vertex 16 32.5 -95
      vertex -50 32.5 -29
    endloop
  endfacet
  facet normal 0 -1 0
    outer loop
      vertex -23.5979 32.5 -69.882
      vertex 16 32.5 -95
      vertex -23.882 32.5 -69.3244
    endloop
  endfacet
  facet normal 0 -1 0
    outer loop
      vertex -23.5 32.5 -70.5
      vertex 16 32.5 -95
      vertex -23.5979 32.5 -69.882
    endloop
  endfacet
  facet normal 0 -1 0
    outer loop
      vertex -23.5979 32.5 -71.118
      vertex 16 32.5 -95
      vertex -23.5 32.5 -70.5
    endloop
  endfacet
  facet normal 0 -1 0
    outer loop
      vertex -23.882 32.5 -71.6756
      vertex 16 32.5 -95
      vertex -23.5979 32.5 -71.118
    endloop
  endfacet
  facet normal 0 -1 0
    outer loop
      vertex -24.3244 32.5 -72.118
      vertex 16 32.5 -95
      vertex -23.882 32.5 -71.6756
    endloop
  endfacet
  facet normal 0 1 0
    outer loop
      vertex -50 32.5 39.5
      vertex -52 32.5 -27
      vertex -53 32.5 39.5
    endloop
  endfacet
  facet normal -0 1 0
    outer loop
      vertex -52 32.5 -27
      vertex -50 32.5 39.5
      vertex -50 32.5 -29
    endloop
  endfacet
  facet normal 0 1 0
    outer loop
      vertex -53 32.5 39.5
      vertex -52 32.5 -27
      vertex -53 32.5 -27
    endloop
  endfacet
  facet normal 0 1 0
    outer loop
      vertex 34 32.5 -95
      vertex 18 32.5 -97
      vertex 16 32.5 -95
    endloop
  endfacet
  facet normal 0 1 -0
    outer loop
      vertex 34 32.5 -98
      vertex 18 32.5 -97
      vertex 34 32.5 -95
    endloop
  endfacet
  facet normal 0 1 0
    outer loop
      vertex 18 32.5 -97
      vertex 34 32.5 -98
      vertex 18 32.5 -98
    endloop
  endfacet
  facet normal 0 1 0
    outer loop
      vertex -45.5 32.5 -98
      vertex -46 32.5 -98
      vertex -46 32.5 -97.9698
    endloop
  endfacet
  facet normal 0 0 -1
    outer loop
      vertex -46 -32.5 -98
      vertex -45.5 32.5 -98
      vertex -45.5 -32.5 -98
    endloop
  endfacet
  facet normal -0 0 -1
    outer loop
      vertex -45.5 32.5 -98
      vertex -46 -32.5 -98
      vertex -46 32.5 -98
    endloop
  endfacet
  facet normal 0 0 -1
    outer loop
      vertex -45.5 -32.5 -98
      vertex 18 -32.5 -98
      vertex 18 -35.5 -98
    endloop
  endfacet
  facet normal 0 0 -1
    outer loop
      vertex 18 -32.5 -98
      vertex -45.5 -32.5 -98
      vertex 18 32.5 -98
    endloop
  endfacet
  facet normal 0 0 -1
    outer loop
      vertex -45.5 -32.5 -98
      vertex 18 -35.5 -98
      vertex -45.5 -35.5 -98
    endloop
  endfacet
  facet normal 0 0 -1
    outer loop
      vertex -45.5 32.5 -98
      vertex 18 32.5 -98
      vertex -45.5 -32.5 -98
    endloop
  endfacet
  facet normal 0 0 -1
    outer loop
      vertex 18 32.5 -98
      vertex -45.5 32.5 -98
      vertex 18 35.5 -98
    endloop
  endfacet
  facet normal -0 0 -1
    outer loop
      vertex 18 35.5 -98
      vertex -45.5 32.5 -98
      vertex -45.5 35.5 -98
    endloop
  endfacet
  facet normal 0 0 -1
    outer loop
      vertex 18 -32.5 -98
      vertex 34 32.5 -98
      vertex 34 -32.5 -98
    endloop
  endfacet
  facet normal -0 0 -1
    outer loop
      vertex 34 32.5 -98
      vertex 18 -32.5 -98
      vertex 18 32.5 -98
    endloop
  endfacet
  facet normal 0 -1 0
    outer loop
      vertex -52 -32.5 -27
      vertex -53 -32.5 39.5
      vertex -53 -32.5 -27
    endloop
  endfacet
  facet normal 0 -1 0
    outer loop
      vertex -53 -32.5 39.5
      vertex -52 -32.5 -27
      vertex -50 -32.5 39.5
    endloop
  endfacet
  facet normal 0 -1 -0
    outer loop
      vertex -50 -32.5 39.5
      vertex -52 -32.5 -27
      vertex -50 -32.5 -29
    endloop
  endfacet
  facet normal 0 1 0
    outer loop
      vertex -50 -32.5 -29
      vertex -24.882 -32.5 -68.5979
      vertex -25.5 -32.5 -68.5
    endloop
  endfacet
  facet normal 0 1 0
    outer loop
      vertex -50 -32.5 -29
      vertex -24.3244 -32.5 -68.882
      vertex -24.882 -32.5 -68.5979
    endloop
  endfacet
  facet normal 0 1 0
    outer loop
      vertex -50 -32.5 -29
      vertex -23.882 -32.5 -69.3244
      vertex -24.3244 -32.5 -68.882
    endloop
  endfacet
  facet normal 0 1 0
    outer loop
      vertex -46 -32.5 -95
      vertex -25.5 -32.5 -72.5
      vertex -24.882 -32.5 -72.4021
    endloop
  endfacet
  facet normal 0 1 0
    outer loop
      vertex 16 -32.5 -95
      vertex -24.882 -32.5 -72.4021
      vertex -24.3244 -32.5 -72.118
    endloop
  endfacet
  facet normal 0 1 0
    outer loop
      vertex -50 -32.5 -90.5
      vertex -52.9453 -32.5 -91.404
      vertex -53 -32.5 -90.5
    endloop
  endfacet
  facet normal 0 1 0
    outer loop
      vertex -50 -32.5 -90.5
      vertex -52.7821 -32.5 -92.2949
      vertex -52.9453 -32.5 -91.404
    endloop
  endfacet
  facet normal 0 1 0
    outer loop
      vertex -50 -32.5 -90.5
      vertex -52.5126 -32.5 -93.1595
      vertex -52.7821 -32.5 -92.2949
    endloop
  endfacet
  facet normal 0 1 0
    outer loop
      vertex -25.5 -32.5 -72.5
      vertex -46 -32.5 -95
      vertex -50 -32.5 -90.5
    endloop
  endfacet
  facet normal 0 1 0
    outer loop
      vertex -51.1138 -32.5 -95.4734
      vertex -50 -32.5 -90.5
      vertex -46 -32.5 -95
    endloop
  endfacet
  facet normal 0 1 0
    outer loop
      vertex -50 -32.5 -90.5
      vertex -52.1409 -32.5 -93.9854
      vertex -52.5126 -32.5 -93.1595
    endloop
  endfacet
  facet normal 0 1 0
    outer loop
      vertex 16 -32.5 -95
      vertex -23.882 -32.5 -69.3244
      vertex -50 -32.5 -29
    endloop
  endfacet
  facet normal 0 1 0
    outer loop
      vertex 16 -32.5 -95
      vertex -23.5979 -32.5 -69.882
      vertex -23.882 -32.5 -69.3244
    endloop
  endfacet
  facet normal 0 1 0
    outer loop
      vertex 16 -32.5 -95
      vertex -23.5 -32.5 -70.5
      vertex -23.5979 -32.5 -69.882
    endloop
  endfacet
  facet normal 0 1 0
    outer loop
      vertex 16 -32.5 -95
      vertex -23.5979 -32.5 -71.118
      vertex -23.5 -32.5 -70.5
    endloop
  endfacet
  facet normal 0 1 0
    outer loop
      vertex 16 -32.5 -95
      vertex -23.882 -32.5 -71.6756
      vertex -23.5979 -32.5 -71.118
    endloop
  endfacet
  facet normal 0 1 0
    outer loop
      vertex 16 -32.5 -95
      vertex -24.3244 -32.5 -72.118
      vertex -23.882 -32.5 -71.6756
    endloop
  endfacet
  facet normal 0 1 0
    outer loop
      vertex -24.882 -32.5 -72.4021
      vertex 16 -32.5 -95
      vertex -46 -32.5 -95
    endloop
  endfacet
  facet normal 0 1 0
    outer loop
      vertex -50 -32.5 -90.5
      vertex -51.6724 -32.5 -94.7605
      vertex -52.1409 -32.5 -93.9854
    endloop
  endfacet
  facet normal 0 1 0
    outer loop
      vertex -50 -32.5 -90.5
      vertex -51.1138 -32.5 -95.4734
      vertex -51.6724 -32.5 -94.7605
    endloop
  endfacet
  facet normal 0 1 0
    outer loop
      vertex -46 -32.5 -95
      vertex -50.4734 -32.5 -96.1138
      vertex -51.1138 -32.5 -95.4734
    endloop
  endfacet
  facet normal 0 1 0
    outer loop
      vertex -46 -32.5 -95
      vertex -49.7605 -32.5 -96.6724
      vertex -50.4734 -32.5 -96.1138
    endloop
  endfacet
  facet normal 0 1 0
    outer loop
      vertex -46 -32.5 -95
      vertex -48.9854 -32.5 -97.1409
      vertex -49.7605 -32.5 -96.6724
    endloop
  endfacet
  facet normal 0 1 0
    outer loop
      vertex -46 -32.5 -95
      vertex -48.1595 -32.5 -97.5126
      vertex -48.9854 -32.5 -97.1409
    endloop
  endfacet
  facet normal 0 1 0
    outer loop
      vertex -46 -32.5 -95
      vertex -47.2949 -32.5 -97.7821
      vertex -48.1595 -32.5 -97.5126
    endloop
  endfacet
  facet normal 0 1 0
    outer loop
      vertex -46 -32.5 -95
      vertex -46.404 -32.5 -97.9453
      vertex -47.2949 -32.5 -97.7821
    endloop
  endfacet
  facet normal -0 1 0
    outer loop
      vertex -46.404 -32.5 -97.9453
      vertex -46 -32.5 -95
      vertex -46 -32.5 -97.9698
    endloop
  endfacet
  facet normal 0 1 -0
    outer loop
      vertex -26.118 -32.5 -68.5979
      vertex -50 -32.5 -29
      vertex -25.5 -32.5 -68.5
    endloop
  endfacet
  facet normal 0 1 -0
    outer loop
      vertex -26.6756 -32.5 -68.882
      vertex -50 -32.5 -29
      vertex -26.118 -32.5 -68.5979
    endloop
  endfacet
  facet normal 0 1 -0
    outer loop
      vertex -27.118 -32.5 -69.3244
      vertex -50 -32.5 -29
      vertex -26.6756 -32.5 -68.882
    endloop
  endfacet
  facet normal 0 1 -0
    outer loop
      vertex -27.4021 -32.5 -69.882
      vertex -50 -32.5 -29
      vertex -27.118 -32.5 -69.3244
    endloop
  endfacet
  facet normal 0 1 0
    outer loop
      vertex -50 -32.5 -90.5
      vertex -27.4021 -32.5 -69.882
      vertex -27.5 -32.5 -70.5
    endloop
  endfacet
  facet normal 0 1 0
    outer loop
      vertex -50 -32.5 -90.5
      vertex -27.5 -32.5 -70.5
      vertex -27.4021 -32.5 -71.118
    endloop
  endfacet
  facet normal 0 1 0
    outer loop
      vertex -50 -32.5 -90.5
      vertex -27.4021 -32.5 -71.118
      vertex -27.118 -32.5 -71.6756
    endloop
  endfacet
  facet normal 0 1 0
    outer loop
      vertex -27.4021 -32.5 -69.882
      vertex -50 -32.5 -90.5
      vertex -50 -32.5 -29
    endloop
  endfacet
  facet normal 0 1 0
    outer loop
      vertex -26.6756 -32.5 -72.118
      vertex -50 -32.5 -90.5
      vertex -27.118 -32.5 -71.6756
    endloop
  endfacet
  facet normal 0 1 0
    outer loop
      vertex -26.118 -32.5 -72.4021
      vertex -50 -32.5 -90.5
      vertex -26.6756 -32.5 -72.118
    endloop
  endfacet
  facet normal 0 1 0
    outer loop
      vertex -50 -32.5 -90.5
      vertex -26.118 -32.5 -72.4021
      vertex -25.5 -32.5 -72.5
    endloop
  endfacet
  facet normal 0 -1 0
    outer loop
      vertex 18 -32.5 -97
      vertex 34 -32.5 -95
      vertex 16 -32.5 -95
    endloop
  endfacet
  facet normal 0 -1 0
    outer loop
      vertex 34 -32.5 -98
      vertex 18 -32.5 -97
      vertex 18 -32.5 -98
    endloop
  endfacet
  facet normal 0 -1 0
    outer loop
      vertex 18 -32.5 -97
      vertex 34 -32.5 -98
      vertex 34 -32.5 -95
    endloop
  endfacet
  facet normal 0 -1 0
    outer loop
      vertex -46 -32.5 -97.9698
      vertex -46 -32.5 -98
      vertex -45.5 -32.5 -98
    endloop
  endfacet
  facet normal -0 0 1
    outer loop
      vertex -53 32.5 39.5
      vertex -50 -32.5 39.5
      vertex -50 32.5 39.5
    endloop
  endfacet
  facet normal 0 0 1
    outer loop
      vertex -50 -32.5 39.5
      vertex -53 32.5 39.5
      vertex -53 -32.5 39.5
    endloop
  endfacet
  facet normal 1 0 0
    outer loop
      vertex -50 -32.5 -29
      vertex -50 32.5 -29
      vertex -50 32.5 39.5
    endloop
  endfacet
  facet normal 1 0 0
    outer loop
      vertex -50 -32.5 -29
      vertex -50 32.5 39.5
      vertex -50 -32.5 39.5
    endloop
  endfacet
  facet normal 1 0 0
    outer loop
      vertex -50 32.5 -29
      vertex -50 -32.5 -29
      vertex -50 32.5 -90.5
    endloop
  endfacet
  facet normal 1 0 0
    outer loop
      vertex -50 32.5 -90.5
      vertex -50 -32.5 -29
      vertex -50 -32.5 -90.5
    endloop
  endfacet
  facet normal 0 0 -1
    outer loop
      vertex -53 -32.5 -90.5
      vertex -50 32.5 -90.5
      vertex -50 -32.5 -90.5
    endloop
  endfacet
  facet normal -0 0 -1
    outer loop
      vertex -50 32.5 -90.5
      vertex -53 -32.5 -90.5
      vertex -53 32.5 -90.5
    endloop
  endfacet
  facet normal -1 0 0
    outer loop
      vertex -53 -32.5 -27
      vertex -53 32.5 -27
      vertex -53 32.5 -90.5
    endloop
  endfacet
  facet normal -1 0 0
    outer loop
      vertex -53 -32.5 -27
      vertex -53 32.5 -90.5
      vertex -53 -32.5 -90.5
    endloop
  endfacet
  facet normal -1 0 0
    outer loop
      vertex -53 32.5 -27
      vertex -53 -32.5 -27
      vertex -53 32.5 39.5
    endloop
  endfacet
  facet normal -1 -0 0
    outer loop
      vertex -53 32.5 39.5
      vertex -53 -32.5 -27
      vertex -53 -32.5 39.5
    endloop
  endfacet
  facet normal -0 0 1
    outer loop
      vertex -53 -32.5 -27
      vertex -52 -35.5 -27
      vertex -52 -32.5 -27
    endloop
  endfacet
  facet normal 0 0 1
    outer loop
      vertex -52 -35.5 -27
      vertex -53 -32.5 -27
      vertex -53 -35.5 -27
    endloop
  endfacet
  facet normal 0.707107 -0 0.707107
    outer loop
      vertex -52 -35.5 -27
      vertex -50 -32.5 -29
      vertex -52 -32.5 -27
    endloop
  endfacet
  facet normal 0.707107 0 0.707107
    outer loop
      vertex -50 -32.5 -29
      vertex -52 -35.5 -27
      vertex 16 -32.5 -95
    endloop
  endfacet
  facet normal 0.707107 0 0.707107
    outer loop
      vertex 18 -35.5 -97
      vertex 16 -32.5 -95
      vertex -52 -35.5 -27
    endloop
  endfacet
  facet normal 0.707107 0 0.707107
    outer loop
      vertex 16 -32.5 -95
      vertex 18 -35.5 -97
      vertex 18 -32.5 -97
    endloop
  endfacet
  facet normal -1 0 0
    outer loop
      vertex -53 -35.5 -90.5
      vertex -53 -32.5 -27
      vertex -53 -32.5 -90.5
    endloop
  endfacet
  facet normal -1 -0 0
    outer loop
      vertex -53 -32.5 -27
      vertex -53 -35.5 -90.5
      vertex -53 -35.5 -27
    endloop
  endfacet
  facet normal -0.707107 0 -0.707107
    outer loop
      vertex -50.4734 -35.5 -96.1138
      vertex -51.1138 -32.5 -95.4734
      vertex -50.4734 -32.5 -96.1138
    endloop
  endfacet
  facet normal -0.707107 -0 -0.707107
    outer loop
      vertex -51.1138 -32.5 -95.4734
      vertex -50.4734 -35.5 -96.1138
      vertex -51.1138 -35.5 -95.4734
    endloop
  endfacet
  facet normal 1 -0 0
    outer loop
      vertex 18 -35.5 -97
      vertex 18 -32.5 -98
      vertex 18 -32.5 -97
    endloop
  endfacet
  facet normal 1 0 0
    outer loop
      vertex 18 -32.5 -98
      vertex 18 -35.5 -97
      vertex 18 -35.5 -98
    endloop
  endfacet
  facet normal -0.998176 0 -0.060379
    outer loop
      vertex -52.9453 -35.5 -91.404
      vertex -53 -32.5 -90.5
      vertex -52.9453 -32.5 -91.404
    endloop
  endfacet
  facet normal -0.998176 -0 -0.060379
    outer loop
      vertex -53 -32.5 -90.5
      vertex -52.9453 -35.5 -91.404
      vertex -53 -35.5 -90.5
    endloop
  endfacet
  facet normal 0 -1 0
    outer loop
      vertex -27.118 -35.5 -69.3244
      vertex -52 -35.5 -27
      vertex -53 -35.5 -27
    endloop
  endfacet
  facet normal 0 -1 0
    outer loop
      vertex -52 -35.5 -27
      vertex -26.118 -35.5 -68.5979
      vertex -25.5 -35.5 -68.5
    endloop
  endfacet
  facet normal 0 -1 0
    outer loop
      vertex -52 -35.5 -27
      vertex -26.6756 -35.5 -68.882
      vertex -26.118 -35.5 -68.5979
    endloop
  endfacet
  facet normal 0 -1 0
    outer loop
      vertex -52 -35.5 -27
      vertex -27.118 -35.5 -69.3244
      vertex -26.6756 -35.5 -68.882
    endloop
  endfacet
  facet normal 0 -1 0
    outer loop
      vertex -53 -35.5 -27
      vertex -27.4021 -35.5 -69.882
      vertex -27.118 -35.5 -69.3244
    endloop
  endfacet
  facet normal 0 -1 0
    outer loop
      vertex -53 -35.5 -90.5
      vertex -27.4021 -35.5 -69.882
      vertex -53 -35.5 -27
    endloop
  endfacet
  facet normal 0 -1 0
    outer loop
      vertex -27.4021 -35.5 -69.882
      vertex -53 -35.5 -90.5
      vertex -27.5 -35.5 -70.5
    endloop
  endfacet
  facet normal 0 -1 -0
    outer loop
      vertex -27.5 -35.5 -70.5
      vertex -53 -35.5 -90.5
      vertex -27.4021 -35.5 -71.118
    endloop
  endfacet
  facet normal 0 -1 -0
    outer loop
      vertex -26.6756 -35.5 -72.118
      vertex -45.5 -35.5 -98
      vertex -26.118 -35.5 -72.4021
    endloop
  endfacet
  facet normal 0 -1 0
    outer loop
      vertex -45.5 -35.5 -98
      vertex -26.6756 -35.5 -72.118
      vertex -53 -35.5 -90.5
    endloop
  endfacet
  facet normal 0 -1 -0
    outer loop
      vertex -27.118 -35.5 -71.6756
      vertex -53 -35.5 -90.5
      vertex -26.6756 -35.5 -72.118
    endloop
  endfacet
  facet normal 0 -1 -0
    outer loop
      vertex -27.4021 -35.5 -71.118
      vertex -53 -35.5 -90.5
      vertex -27.118 -35.5 -71.6756
    endloop
  endfacet
  facet normal 0 -1 0
    outer loop
      vertex -24.882 -35.5 -68.5979
      vertex -52 -35.5 -27
      vertex -25.5 -35.5 -68.5
    endloop
  endfacet
  facet normal 0 -1 0
    outer loop
      vertex -24.3244 -35.5 -68.882
      vertex -52 -35.5 -27
      vertex -24.882 -35.5 -68.5979
    endloop
  endfacet
  facet normal 0 -1 0
    outer loop
      vertex -23.882 -35.5 -69.3244
      vertex -52 -35.5 -27
      vertex -24.3244 -35.5 -68.882
    endloop
  endfacet
  facet normal 0 -1 -0
    outer loop
      vertex -26.118 -35.5 -72.4021
      vertex -45.5 -35.5 -98
      vertex -25.5 -35.5 -72.5
    endloop
  endfacet
  facet normal 0 -1 -0
    outer loop
      vertex -25.5 -35.5 -72.5
      vertex -45.5 -35.5 -98
      vertex -24.882 -35.5 -72.4021
    endloop
  endfacet
  facet normal 0 -1 0
    outer loop
      vertex -45.5 -35.5 -98
      vertex -53 -35.5 -90.5
      vertex -52.9453 -35.5 -91.404
    endloop
  endfacet
  facet normal 0 -1 0
    outer loop
      vertex -45.5 -35.5 -98
      vertex -52.9453 -35.5 -91.404
      vertex -52.7821 -35.5 -92.2949
    endloop
  endfacet
  facet normal 0 -1 0
    outer loop
      vertex -45.5 -35.5 -98
      vertex -52.7821 -35.5 -92.2949
      vertex -52.5126 -35.5 -93.1595
    endloop
  endfacet
  facet normal 0 -1 0
    outer loop
      vertex -45.5 -35.5 -98
      vertex -52.5126 -35.5 -93.1595
      vertex -52.1409 -35.5 -93.9854
    endloop
  endfacet
  facet normal 0 -1 0
    outer loop
      vertex -45.5 -35.5 -98
      vertex -52.1409 -35.5 -93.9854
      vertex -51.6724 -35.5 -94.7605
    endloop
  endfacet
  facet normal 0 -1 0
    outer loop
      vertex -45.5 -35.5 -98
      vertex -51.6724 -35.5 -94.7605
      vertex -51.1138 -35.5 -95.4734
    endloop
  endfacet
  facet normal 0 -1 0
    outer loop
      vertex -45.5 -35.5 -98
      vertex -51.1138 -35.5 -95.4734
      vertex -50.4734 -35.5 -96.1138
    endloop
  endfacet
  facet normal 0 -1 0
    outer loop
      vertex -45.5 -35.5 -98
      vertex -50.4734 -35.5 -96.1138
      vertex -49.7605 -35.5 -96.6724
    endloop
  endfacet
  facet normal 0 -1 0
    outer loop
      vertex -23.882 -35.5 -69.3244
      vertex 18 -35.5 -97
      vertex -52 -35.5 -27
    endloop
  endfacet
  facet normal 0 -1 0
    outer loop
      vertex -23.5979 -35.5 -69.882
      vertex 18 -35.5 -97
      vertex -23.882 -35.5 -69.3244
    endloop
  endfacet
  facet normal 0 -1 0
    outer loop
      vertex -23.5 -35.5 -70.5
      vertex 18 -35.5 -97
      vertex -23.5979 -35.5 -69.882
    endloop
  endfacet
  facet normal 0 -1 0
    outer loop
      vertex -23.5979 -35.5 -71.118
      vertex 18 -35.5 -97
      vertex -23.5 -35.5 -70.5
    endloop
  endfacet
  facet normal 0 -1 0
    outer loop
      vertex -23.882 -35.5 -71.6756
      vertex 18 -35.5 -97
      vertex -23.5979 -35.5 -71.118
    endloop
  endfacet
  facet normal 0 -1 0
    outer loop
      vertex -24.3244 -35.5 -72.118
      vertex 18 -35.5 -97
      vertex -23.882 -35.5 -71.6756
    endloop
  endfacet
  facet normal 0 -1 0
    outer loop
      vertex 18 -35.5 -98
      vertex -24.882 -35.5 -72.4021
      vertex -45.5 -35.5 -98
    endloop
  endfacet
  facet normal 0 -1 0
    outer loop
      vertex -45.5 -35.5 -98
      vertex -49.7605 -35.5 -96.6724
      vertex -48.9854 -35.5 -97.1409
    endloop
  endfacet
  facet normal 0 -1 0
    outer loop
      vertex -45.5 -35.5 -98
      vertex -48.9854 -35.5 -97.1409
      vertex -48.1595 -35.5 -97.5126
    endloop
  endfacet
  facet normal 0 -1 0
    outer loop
      vertex -45.5 -35.5 -98
      vertex -48.1595 -35.5 -97.5126
      vertex -47.2949 -35.5 -97.7821
    endloop
  endfacet
  facet normal 0 -1 0
    outer loop
      vertex -45.5 -35.5 -98
      vertex -47.2949 -35.5 -97.7821
      vertex -46.404 -35.5 -97.9453
    endloop
  endfacet
  facet normal 0 -1 0
    outer loop
      vertex -24.882 -35.5 -72.4021
      vertex 18 -35.5 -98
      vertex -24.3244 -35.5 -72.118
    endloop
  endfacet
  facet normal 0 -1 0
    outer loop
      vertex -24.3244 -35.5 -72.118
      vertex 18 -35.5 -98
      vertex 18 -35.5 -97
    endloop
  endfacet
  facet normal -0.855782 0 -0.517337
    outer loop
      vertex -51.6724 -35.5 -94.7605
      vertex -52.1409 -32.5 -93.9854
      vertex -51.6724 -32.5 -94.7605
    endloop
  endfacet
  facet normal -0.855782 -0 -0.517337
    outer loop
      vertex -52.1409 -32.5 -93.9854
      vertex -51.6724 -35.5 -94.7605
      vertex -52.1409 -35.5 -93.9854
    endloop
  endfacet
  facet normal -0.410409 0 -0.911902
    outer loop
      vertex -48.9854 -35.5 -97.1409
      vertex -48.1595 -32.5 -97.5126
      vertex -48.1595 -35.5 -97.5126
    endloop
  endfacet
  facet normal -0.410409 0 -0.911902
    outer loop
      vertex -48.1595 -32.5 -97.5126
      vertex -48.9854 -35.5 -97.1409
      vertex -48.9854 -32.5 -97.1409
    endloop
  endfacet
  facet normal -0.98362 0 -0.180255
    outer loop
      vertex -52.7821 -35.5 -92.2949
      vertex -52.9453 -32.5 -91.404
      vertex -52.7821 -32.5 -92.2949
    endloop
  endfacet
  facet normal -0.98362 -0 -0.180255
    outer loop
      vertex -52.9453 -32.5 -91.404
      vertex -52.7821 -35.5 -92.2949
      vertex -52.9453 -35.5 -91.404
    endloop
  endfacet
  facet normal -0.787185 0 -0.616717
    outer loop
      vertex -51.1138 -35.5 -95.4734
      vertex -51.6724 -32.5 -94.7605
      vertex -51.1138 -32.5 -95.4734
    endloop
  endfacet
  facet normal -0.787185 -0 -0.616717
    outer loop
      vertex -51.6724 -32.5 -94.7605
      vertex -51.1138 -35.5 -95.4734
      vertex -51.6724 -35.5 -94.7605
    endloop
  endfacet
  facet normal -0.517342 0 -0.855779
    outer loop
      vertex -49.7605 -35.5 -96.6724
      vertex -48.9854 -32.5 -97.1409
      vertex -48.9854 -35.5 -97.1409
    endloop
  endfacet
  facet normal -0.517342 0 -0.855779
    outer loop
      vertex -48.9854 -32.5 -97.1409
      vertex -49.7605 -35.5 -96.6724
      vertex -49.7605 -32.5 -96.6724
    endloop
  endfacet
  facet normal -0.616717 0 -0.787185
    outer loop
      vertex -50.4734 -35.5 -96.1138
      vertex -49.7605 -32.5 -96.6724
      vertex -49.7605 -35.5 -96.6724
    endloop
  endfacet
  facet normal -0.616717 0 -0.787185
    outer loop
      vertex -49.7605 -32.5 -96.6724
      vertex -50.4734 -35.5 -96.1138
      vertex -50.4734 -32.5 -96.1138
    endloop
  endfacet
  facet normal -0.297508 0 -0.954719
    outer loop
      vertex -48.1595 -35.5 -97.5126
      vertex -47.2949 -32.5 -97.7821
      vertex -47.2949 -35.5 -97.7821
    endloop
  endfacet
  facet normal -0.297508 0 -0.954719
    outer loop
      vertex -47.2949 -32.5 -97.7821
      vertex -48.1595 -35.5 -97.5126
      vertex -48.1595 -32.5 -97.5126
    endloop
  endfacet
  facet normal -0.180248 0 -0.983621
    outer loop
      vertex -47.2949 -35.5 -97.7821
      vertex -46.404 -32.5 -97.9453
      vertex -46.404 -35.5 -97.9453
    endloop
  endfacet
  facet normal -0.180248 0 -0.983621
    outer loop
      vertex -46.404 -32.5 -97.9453
      vertex -47.2949 -35.5 -97.7821
      vertex -47.2949 -32.5 -97.7821
    endloop
  endfacet
  facet normal -0.0603755 0 -0.998176
    outer loop
      vertex -45.5 -35.5 -98
      vertex -46 -32.5 -97.9698
      vertex -45.5 -32.5 -98
    endloop
  endfacet
  facet normal -0.0603829 -1.23779e-006 -0.998175
    outer loop
      vertex -46.404 -35.5 -97.9453
      vertex -46 -32.5 -97.9698
      vertex -45.5 -35.5 -98
    endloop
  endfacet
  facet normal -0.0603921 0 -0.998175
    outer loop
      vertex -46 -32.5 -97.9698
      vertex -46.404 -35.5 -97.9453
      vertex -46.404 -32.5 -97.9453
    endloop
  endfacet
  facet normal -0.95472 0 -0.297505
    outer loop
      vertex -52.5126 -35.5 -93.1595
      vertex -52.7821 -32.5 -92.2949
      vertex -52.5126 -32.5 -93.1595
    endloop
  endfacet
  facet normal -0.95472 -0 -0.297505
    outer loop
      vertex -52.7821 -32.5 -92.2949
      vertex -52.5126 -35.5 -93.1595
      vertex -52.7821 -35.5 -92.2949
    endloop
  endfacet
  facet normal -0.911899 0 -0.410414
    outer loop
      vertex -52.1409 -35.5 -93.9854
      vertex -52.5126 -32.5 -93.1595
      vertex -52.1409 -32.5 -93.9854
    endloop
  endfacet
  facet normal -0.911899 -0 -0.410414
    outer loop
      vertex -52.5126 -32.5 -93.1595
      vertex -52.1409 -35.5 -93.9854
      vertex -52.5126 -35.5 -93.1595
    endloop
  endfacet
  facet normal -0.987688 0 -0.156434
    outer loop
      vertex -23.5 -35.5 -70.5
      vertex -23.5979 -32.5 -69.882
      vertex -23.5 -32.5 -70.5
    endloop
  endfacet
  facet normal -0.987688 -0 -0.156434
    outer loop
      vertex -23.5979 -32.5 -69.882
      vertex -23.5 -35.5 -70.5
      vertex -23.5979 -35.5 -69.882
    endloop
  endfacet
  facet normal -0.891006 0 -0.453992
    outer loop
      vertex -23.5979 -35.5 -69.882
      vertex -23.882 -32.5 -69.3244
      vertex -23.5979 -32.5 -69.882
    endloop
  endfacet
  facet normal -0.891006 -0 -0.453992
    outer loop
      vertex -23.882 -32.5 -69.3244
      vertex -23.5979 -35.5 -69.882
      vertex -23.882 -35.5 -69.3244
    endloop
  endfacet
  facet normal 0.156432 0 -0.987689
    outer loop
      vertex -26.118 -35.5 -68.5979
      vertex -25.5 -32.5 -68.5
      vertex -25.5 -35.5 -68.5
    endloop
  endfacet
  facet normal 0.156432 0 -0.987689
    outer loop
      vertex -25.5 -32.5 -68.5
      vertex -26.118 -35.5 -68.5979
      vertex -26.118 -32.5 -68.5979
    endloop
  endfacet
  facet normal 0.453992 0 -0.891006
    outer loop
      vertex -26.6756 -35.5 -68.882
      vertex -26.118 -32.5 -68.5979
      vertex -26.118 -35.5 -68.5979
    endloop
  endfacet
  facet normal 0.453992 0 -0.891006
    outer loop
      vertex -26.118 -32.5 -68.5979
      vertex -26.6756 -35.5 -68.882
      vertex -26.6756 -32.5 -68.882
    endloop
  endfacet
  facet normal -0.453992 0 0.891006
    outer loop
      vertex -24.882 -32.5 -72.4021
      vertex -24.3244 -35.5 -72.118
      vertex -24.3244 -32.5 -72.118
    endloop
  endfacet
  facet normal -0.453992 0 0.891006
    outer loop
      vertex -24.3244 -35.5 -72.118
      vertex -24.882 -32.5 -72.4021
      vertex -24.882 -35.5 -72.4021
    endloop
  endfacet
  facet normal 0.891005 -0 0.453994
    outer loop
      vertex -27.4021 -35.5 -71.118
      vertex -27.118 -32.5 -71.6756
      vertex -27.4021 -32.5 -71.118
    endloop
  endfacet
  facet normal 0.891005 0 0.453994
    outer loop
      vertex -27.118 -32.5 -71.6756
      vertex -27.4021 -35.5 -71.118
      vertex -27.118 -35.5 -71.6756
    endloop
  endfacet
  facet normal -0.156432 0 -0.987689
    outer loop
      vertex -25.5 -35.5 -68.5
      vertex -24.882 -32.5 -68.5979
      vertex -24.882 -35.5 -68.5979
    endloop
  endfacet
  facet normal -0.156432 0 -0.987689
    outer loop
      vertex -24.882 -32.5 -68.5979
      vertex -25.5 -35.5 -68.5
      vertex -25.5 -32.5 -68.5
    endloop
  endfacet
  facet normal 0.987689 0 -0.156432
    outer loop
      vertex -27.4021 -35.5 -69.882
      vertex -27.5 -32.5 -70.5
      vertex -27.4021 -32.5 -69.882
    endloop
  endfacet
  facet normal 0.987689 0 -0.156432
    outer loop
      vertex -27.5 -32.5 -70.5
      vertex -27.4021 -35.5 -69.882
      vertex -27.5 -35.5 -70.5
    endloop
  endfacet
  facet normal 0.987689 -0 0.156432
    outer loop
      vertex -27.5 -35.5 -70.5
      vertex -27.4021 -32.5 -71.118
      vertex -27.5 -32.5 -70.5
    endloop
  endfacet
  facet normal 0.987689 0 0.156432
    outer loop
      vertex -27.4021 -32.5 -71.118
      vertex -27.5 -35.5 -70.5
      vertex -27.4021 -35.5 -71.118
    endloop
  endfacet
  facet normal 0.156432 0 0.987689
    outer loop
      vertex -26.118 -32.5 -72.4021
      vertex -25.5 -35.5 -72.5
      vertex -25.5 -32.5 -72.5
    endloop
  endfacet
  facet normal 0.156432 0 0.987689
    outer loop
      vertex -25.5 -35.5 -72.5
      vertex -26.118 -32.5 -72.4021
      vertex -26.118 -35.5 -72.4021
    endloop
  endfacet
  facet normal -0.156432 0 0.987689
    outer loop
      vertex -25.5 -32.5 -72.5
      vertex -24.882 -35.5 -72.4021
      vertex -24.882 -32.5 -72.4021
    endloop
  endfacet
  facet normal -0.156432 0 0.987689
    outer loop
      vertex -24.882 -35.5 -72.4021
      vertex -25.5 -32.5 -72.5
      vertex -25.5 -35.5 -72.5
    endloop
  endfacet
  facet normal -0.70711 0 -0.707104
    outer loop
      vertex -23.882 -35.5 -69.3244
      vertex -24.3244 -32.5 -68.882
      vertex -23.882 -32.5 -69.3244
    endloop
  endfacet
  facet normal -0.70711 -0 -0.707104
    outer loop
      vertex -24.3244 -32.5 -68.882
      vertex -23.882 -35.5 -69.3244
      vertex -24.3244 -35.5 -68.882
    endloop
  endfacet
  facet normal -0.453992 0 -0.891006
    outer loop
      vertex -24.882 -35.5 -68.5979
      vertex -24.3244 -32.5 -68.882
      vertex -24.3244 -35.5 -68.882
    endloop
  endfacet
  facet normal -0.453992 0 -0.891006
    outer loop
      vertex -24.3244 -32.5 -68.882
      vertex -24.882 -35.5 -68.5979
      vertex -24.882 -32.5 -68.5979
    endloop
  endfacet
  facet normal 0.70711 0 -0.707104
    outer loop
      vertex -26.6756 -35.5 -68.882
      vertex -27.118 -32.5 -69.3244
      vertex -26.6756 -32.5 -68.882
    endloop
  endfacet
  facet normal 0.70711 0 -0.707104
    outer loop
      vertex -27.118 -32.5 -69.3244
      vertex -26.6756 -35.5 -68.882
      vertex -27.118 -35.5 -69.3244
    endloop
  endfacet
  facet normal 0.891005 0 -0.453994
    outer loop
      vertex -27.118 -35.5 -69.3244
      vertex -27.4021 -32.5 -69.882
      vertex -27.118 -32.5 -69.3244
    endloop
  endfacet
  facet normal 0.891005 0 -0.453994
    outer loop
      vertex -27.4021 -32.5 -69.882
      vertex -27.118 -35.5 -69.3244
      vertex -27.4021 -35.5 -69.882
    endloop
  endfacet
  facet normal -0.70711 0 0.707104
    outer loop
      vertex -24.3244 -35.5 -72.118
      vertex -23.882 -32.5 -71.6756
      vertex -24.3244 -32.5 -72.118
    endloop
  endfacet
  facet normal -0.70711 0 0.707104
    outer loop
      vertex -23.882 -32.5 -71.6756
      vertex -24.3244 -35.5 -72.118
      vertex -23.882 -35.5 -71.6756
    endloop
  endfacet
  facet normal -0.891006 0 0.453992
    outer loop
      vertex -23.882 -35.5 -71.6756
      vertex -23.5979 -32.5 -71.118
      vertex -23.882 -32.5 -71.6756
    endloop
  endfacet
  facet normal -0.891006 0 0.453992
    outer loop
      vertex -23.5979 -32.5 -71.118
      vertex -23.882 -35.5 -71.6756
      vertex -23.5979 -35.5 -71.118
    endloop
  endfacet
  facet normal -0.987688 0 0.156434
    outer loop
      vertex -23.5979 -35.5 -71.118
      vertex -23.5 -32.5 -70.5
      vertex -23.5979 -32.5 -71.118
    endloop
  endfacet
  facet normal -0.987688 0 0.156434
    outer loop
      vertex -23.5 -32.5 -70.5
      vertex -23.5979 -35.5 -71.118
      vertex -23.5 -35.5 -70.5
    endloop
  endfacet
  facet normal 0.70711 -0 0.707104
    outer loop
      vertex -27.118 -35.5 -71.6756
      vertex -26.6756 -32.5 -72.118
      vertex -27.118 -32.5 -71.6756
    endloop
  endfacet
  facet normal 0.70711 0 0.707104
    outer loop
      vertex -26.6756 -32.5 -72.118
      vertex -27.118 -35.5 -71.6756
      vertex -26.6756 -35.5 -72.118
    endloop
  endfacet
  facet normal 0.453992 0 0.891006
    outer loop
      vertex -26.6756 -32.5 -72.118
      vertex -26.118 -35.5 -72.4021
      vertex -26.118 -32.5 -72.4021
    endloop
  endfacet
  facet normal 0.453992 0 0.891006
    outer loop
      vertex -26.118 -35.5 -72.4021
      vertex -26.6756 -32.5 -72.118
      vertex -26.6756 -35.5 -72.118
    endloop
  endfacet
  facet normal -0 0 1
    outer loop
      vertex -53 35.5 -27
      vertex -52 32.5 -27
      vertex -52 35.5 -27
    endloop
  endfacet
  facet normal 0 0 1
    outer loop
      vertex -52 32.5 -27
      vertex -53 35.5 -27
      vertex -53 32.5 -27
    endloop
  endfacet
  facet normal 0.707107 0 0.707107
    outer loop
      vertex -50 32.5 -29
      vertex -52 35.5 -27
      vertex -52 32.5 -27
    endloop
  endfacet
  facet normal 0.707107 0 0.707107
    outer loop
      vertex -52 35.5 -27
      vertex -50 32.5 -29
      vertex 18 35.5 -97
    endloop
  endfacet
  facet normal 0.707107 0 0.707107
    outer loop
      vertex 16 32.5 -95
      vertex 18 35.5 -97
      vertex -50 32.5 -29
    endloop
  endfacet
  facet normal 0.707107 0 0.707107
    outer loop
      vertex 18 35.5 -97
      vertex 16 32.5 -95
      vertex 18 32.5 -97
    endloop
  endfacet
  facet normal -1 0 0
    outer loop
      vertex -53 32.5 -90.5
      vertex -53 35.5 -27
      vertex -53 35.5 -90.5
    endloop
  endfacet
  facet normal -1 -0 0
    outer loop
      vertex -53 35.5 -27
      vertex -53 32.5 -90.5
      vertex -53 32.5 -27
    endloop
  endfacet
  facet normal 0 1 -0
    outer loop
      vertex -26.118 35.5 -68.5979
      vertex -52 35.5 -27
      vertex -25.5 35.5 -68.5
    endloop
  endfacet
  facet normal 0 1 0
    outer loop
      vertex -52 35.5 -27
      vertex -24.882 35.5 -68.5979
      vertex -25.5 35.5 -68.5
    endloop
  endfacet
  facet normal 0 1 0
    outer loop
      vertex -52 35.5 -27
      vertex -24.3244 35.5 -68.882
      vertex -24.882 35.5 -68.5979
    endloop
  endfacet
  facet normal 0 1 0
    outer loop
      vertex -52 35.5 -27
      vertex -23.882 35.5 -69.3244
      vertex -24.3244 35.5 -68.882
    endloop
  endfacet
  facet normal 0 1 0
    outer loop
      vertex -45.5 35.5 -98
      vertex -25.5 35.5 -72.5
      vertex -24.882 35.5 -72.4021
    endloop
  endfacet
  facet normal 0 1 0
    outer loop
      vertex 18 35.5 -98
      vertex -24.882 35.5 -72.4021
      vertex -24.3244 35.5 -72.118
    endloop
  endfacet
  facet normal 0 1 0
    outer loop
      vertex -25.5 35.5 -72.5
      vertex -45.5 35.5 -98
      vertex -53 35.5 -90.5
    endloop
  endfacet
  facet normal 0 1 0
    outer loop
      vertex -53 35.5 -90.5
      vertex -45.5 35.5 -98
      vertex -52.9453 35.5 -91.404
    endloop
  endfacet
  facet normal 0 1 0
    outer loop
      vertex -52.9453 35.5 -91.404
      vertex -45.5 35.5 -98
      vertex -52.7821 35.5 -92.2949
    endloop
  endfacet
  facet normal 0 1 0
    outer loop
      vertex -52.7821 35.5 -92.2949
      vertex -45.5 35.5 -98
      vertex -52.5126 35.5 -93.1595
    endloop
  endfacet
  facet normal 0 1 0
    outer loop
      vertex -52.5126 35.5 -93.1595
      vertex -45.5 35.5 -98
      vertex -52.1409 35.5 -93.9854
    endloop
  endfacet
  facet normal 0 1 0
    outer loop
      vertex -52.1409 35.5 -93.9854
      vertex -45.5 35.5 -98
      vertex -51.6724 35.5 -94.7605
    endloop
  endfacet
  facet normal 0 1 0
    outer loop
      vertex -51.6724 35.5 -94.7605
      vertex -45.5 35.5 -98
      vertex -51.1138 35.5 -95.4734
    endloop
  endfacet
  facet normal 0 1 0
    outer loop
      vertex -51.1138 35.5 -95.4734
      vertex -45.5 35.5 -98
      vertex -50.4734 35.5 -96.1138
    endloop
  endfacet
  facet normal 0 1 0
    outer loop
      vertex 18 35.5 -97
      vertex -23.882 35.5 -69.3244
      vertex -52 35.5 -27
    endloop
  endfacet
  facet normal 0 1 0
    outer loop
      vertex 18 35.5 -97
      vertex -23.5979 35.5 -69.882
      vertex -23.882 35.5 -69.3244
    endloop
  endfacet
  facet normal 0 1 0
    outer loop
      vertex 18 35.5 -97
      vertex -23.5 35.5 -70.5
      vertex -23.5979 35.5 -69.882
    endloop
  endfacet
  facet normal 0 1 0
    outer loop
      vertex 18 35.5 -97
      vertex -23.5979 35.5 -71.118
      vertex -23.5 35.5 -70.5
    endloop
  endfacet
  facet normal 0 1 0
    outer loop
      vertex 18 35.5 -97
      vertex -23.882 35.5 -71.6756
      vertex -23.5979 35.5 -71.118
    endloop
  endfacet
  facet normal 0 1 0
    outer loop
      vertex 18 35.5 -97
      vertex -24.3244 35.5 -72.118
      vertex -23.882 35.5 -71.6756
    endloop
  endfacet
  facet normal 0 1 -0
    outer loop
      vertex 18 35.5 -98
      vertex -24.3244 35.5 -72.118
      vertex 18 35.5 -97
    endloop
  endfacet
  facet normal 0 1 0
    outer loop
      vertex -50.4734 35.5 -96.1138
      vertex -45.5 35.5 -98
      vertex -49.7605 35.5 -96.6724
    endloop
  endfacet
  facet normal 0 1 0
    outer loop
      vertex -49.7605 35.5 -96.6724
      vertex -45.5 35.5 -98
      vertex -48.9854 35.5 -97.1409
    endloop
  endfacet
  facet normal 0 1 0
    outer loop
      vertex -48.9854 35.5 -97.1409
      vertex -45.5 35.5 -98
      vertex -48.1595 35.5 -97.5126
    endloop
  endfacet
  facet normal 0 1 0
    outer loop
      vertex -48.1595 35.5 -97.5126
      vertex -45.5 35.5 -98
      vertex -47.2949 35.5 -97.7821
    endloop
  endfacet
  facet normal 0 1 0
    outer loop
      vertex -24.882 35.5 -72.4021
      vertex 18 35.5 -98
      vertex -45.5 35.5 -98
    endloop
  endfacet
  facet normal 0 1 0
    outer loop
      vertex -47.2949 35.5 -97.7821
      vertex -45.5 35.5 -98
      vertex -46.404 35.5 -97.9453
    endloop
  endfacet
  facet normal 0 1 -0
    outer loop
      vertex -26.6756 35.5 -68.882
      vertex -52 35.5 -27
      vertex -26.118 35.5 -68.5979
    endloop
  endfacet
  facet normal 0 1 -0
    outer loop
      vertex -27.118 35.5 -69.3244
      vertex -52 35.5 -27
      vertex -26.6756 35.5 -68.882
    endloop
  endfacet
  facet normal 0 1 0
    outer loop
      vertex -52 35.5 -27
      vertex -27.118 35.5 -69.3244
      vertex -53 35.5 -27
    endloop
  endfacet
  facet normal 0 1 -0
    outer loop
      vertex -27.4021 35.5 -69.882
      vertex -53 35.5 -27
      vertex -27.118 35.5 -69.3244
    endloop
  endfacet
  facet normal 0 1 0
    outer loop
      vertex -53 35.5 -90.5
      vertex -27.4021 35.5 -69.882
      vertex -27.5 35.5 -70.5
    endloop
  endfacet
  facet normal 0 1 0
    outer loop
      vertex -53 35.5 -90.5
      vertex -27.5 35.5 -70.5
      vertex -27.4021 35.5 -71.118
    endloop
  endfacet
  facet normal 0 1 0
    outer loop
      vertex -53 35.5 -90.5
      vertex -27.4021 35.5 -71.118
      vertex -27.118 35.5 -71.6756
    endloop
  endfacet
  facet normal 0 1 0
    outer loop
      vertex -27.4021 35.5 -69.882
      vertex -53 35.5 -90.5
      vertex -53 35.5 -27
    endloop
  endfacet
  facet normal 0 1 0
    outer loop
      vertex -26.6756 35.5 -72.118
      vertex -53 35.5 -90.5
      vertex -27.118 35.5 -71.6756
    endloop
  endfacet
  facet normal 0 1 0
    outer loop
      vertex -26.118 35.5 -72.4021
      vertex -53 35.5 -90.5
      vertex -26.6756 35.5 -72.118
    endloop
  endfacet
  facet normal 0 1 0
    outer loop
      vertex -53 35.5 -90.5
      vertex -26.118 35.5 -72.4021
      vertex -25.5 35.5 -72.5
    endloop
  endfacet
  facet normal -0.707107 0 -0.707107
    outer loop
      vertex -50.4734 32.5 -96.1138
      vertex -51.1138 35.5 -95.4734
      vertex -50.4734 35.5 -96.1138
    endloop
  endfacet
  facet normal -0.707107 -0 -0.707107
    outer loop
      vertex -51.1138 35.5 -95.4734
      vertex -50.4734 32.5 -96.1138
      vertex -51.1138 32.5 -95.4734
    endloop
  endfacet
  facet normal 1 -0 0
    outer loop
      vertex 18 32.5 -97
      vertex 18 35.5 -98
      vertex 18 35.5 -97
    endloop
  endfacet
  facet normal 1 0 0
    outer loop
      vertex 18 35.5 -98
      vertex 18 32.5 -97
      vertex 18 32.5 -98
    endloop
  endfacet
  facet normal -0.998176 0 -0.060379
    outer loop
      vertex -52.9453 32.5 -91.404
      vertex -53 35.5 -90.5
      vertex -52.9453 35.5 -91.404
    endloop
  endfacet
  facet normal -0.998176 -0 -0.060379
    outer loop
      vertex -53 35.5 -90.5
      vertex -52.9453 32.5 -91.404
      vertex -53 32.5 -90.5
    endloop
  endfacet
  facet normal -0.855782 0 -0.517337
    outer loop
      vertex -51.6724 32.5 -94.7605
      vertex -52.1409 35.5 -93.9854
      vertex -51.6724 35.5 -94.7605
    endloop
  endfacet
  facet normal -0.855782 -0 -0.517337
    outer loop
      vertex -52.1409 35.5 -93.9854
      vertex -51.6724 32.5 -94.7605
      vertex -52.1409 32.5 -93.9854
    endloop
  endfacet
  facet normal -0.410409 0 -0.911902
    outer loop
      vertex -48.9854 32.5 -97.1409
      vertex -48.1595 35.5 -97.5126
      vertex -48.1595 32.5 -97.5126
    endloop
  endfacet
  facet normal -0.410409 0 -0.911902
    outer loop
      vertex -48.1595 35.5 -97.5126
      vertex -48.9854 32.5 -97.1409
      vertex -48.9854 35.5 -97.1409
    endloop
  endfacet
  facet normal -0.98362 0 -0.180255
    outer loop
      vertex -52.7821 32.5 -92.2949
      vertex -52.9453 35.5 -91.404
      vertex -52.7821 35.5 -92.2949
    endloop
  endfacet
  facet normal -0.98362 -0 -0.180255
    outer loop
      vertex -52.9453 35.5 -91.404
      vertex -52.7821 32.5 -92.2949
      vertex -52.9453 32.5 -91.404
    endloop
  endfacet
  facet normal -0.787185 0 -0.616717
    outer loop
      vertex -51.1138 32.5 -95.4734
      vertex -51.6724 35.5 -94.7605
      vertex -51.1138 35.5 -95.4734
    endloop
  endfacet
  facet normal -0.787185 -0 -0.616717
    outer loop
      vertex -51.6724 35.5 -94.7605
      vertex -51.1138 32.5 -95.4734
      vertex -51.6724 32.5 -94.7605
    endloop
  endfacet
  facet normal -0.517342 0 -0.855779
    outer loop
      vertex -49.7605 32.5 -96.6724
      vertex -48.9854 35.5 -97.1409
      vertex -48.9854 32.5 -97.1409
    endloop
  endfacet
  facet normal -0.517342 0 -0.855779
    outer loop
      vertex -48.9854 35.5 -97.1409
      vertex -49.7605 32.5 -96.6724
      vertex -49.7605 35.5 -96.6724
    endloop
  endfacet
  facet normal -0.616717 0 -0.787185
    outer loop
      vertex -50.4734 32.5 -96.1138
      vertex -49.7605 35.5 -96.6724
      vertex -49.7605 32.5 -96.6724
    endloop
  endfacet
  facet normal -0.616717 0 -0.787185
    outer loop
      vertex -49.7605 35.5 -96.6724
      vertex -50.4734 32.5 -96.1138
      vertex -50.4734 35.5 -96.1138
    endloop
  endfacet
  facet normal -0.297508 0 -0.954719
    outer loop
      vertex -48.1595 32.5 -97.5126
      vertex -47.2949 35.5 -97.7821
      vertex -47.2949 32.5 -97.7821
    endloop
  endfacet
  facet normal -0.297508 0 -0.954719
    outer loop
      vertex -47.2949 35.5 -97.7821
      vertex -48.1595 32.5 -97.5126
      vertex -48.1595 35.5 -97.5126
    endloop
  endfacet
  facet normal -0.180248 0 -0.983621
    outer loop
      vertex -47.2949 32.5 -97.7821
      vertex -46.404 35.5 -97.9453
      vertex -46.404 32.5 -97.9453
    endloop
  endfacet
  facet normal -0.180248 0 -0.983621
    outer loop
      vertex -46.404 35.5 -97.9453
      vertex -47.2949 32.5 -97.7821
      vertex -47.2949 35.5 -97.7821
    endloop
  endfacet
  facet normal -0.0603755 0 -0.998176
    outer loop
      vertex -46 32.5 -97.9698
      vertex -45.5 35.5 -98
      vertex -45.5 32.5 -98
    endloop
  endfacet
  facet normal -0.0603921 -0 -0.998175
    outer loop
      vertex -46.404 35.5 -97.9453
      vertex -46 32.5 -97.9698
      vertex -46.404 32.5 -97.9453
    endloop
  endfacet
  facet normal -0.0603829 1.23779e-006 -0.998175
    outer loop
      vertex -46 32.5 -97.9698
      vertex -46.404 35.5 -97.9453
      vertex -45.5 35.5 -98
    endloop
  endfacet
  facet normal -0.95472 0 -0.297505
    outer loop
      vertex -52.5126 32.5 -93.1595
      vertex -52.7821 35.5 -92.2949
      vertex -52.5126 35.5 -93.1595
    endloop
  endfacet
  facet normal -0.95472 -0 -0.297505
    outer loop
      vertex -52.7821 35.5 -92.2949
      vertex -52.5126 32.5 -93.1595
      vertex -52.7821 32.5 -92.2949
    endloop
  endfacet
  facet normal -0.911899 0 -0.410414
    outer loop
      vertex -52.1409 32.5 -93.9854
      vertex -52.5126 35.5 -93.1595
      vertex -52.1409 35.5 -93.9854
    endloop
  endfacet
  facet normal -0.911899 -0 -0.410414
    outer loop
      vertex -52.5126 35.5 -93.1595
      vertex -52.1409 32.5 -93.9854
      vertex -52.5126 32.5 -93.1595
    endloop
  endfacet
  facet normal -0.987688 0 -0.156434
    outer loop
      vertex -23.5 32.5 -70.5
      vertex -23.5979 35.5 -69.882
      vertex -23.5 35.5 -70.5
    endloop
  endfacet
  facet normal -0.987688 -0 -0.156434
    outer loop
      vertex -23.5979 35.5 -69.882
      vertex -23.5 32.5 -70.5
      vertex -23.5979 32.5 -69.882
    endloop
  endfacet
  facet normal -0.891006 0 -0.453992
    outer loop
      vertex -23.5979 32.5 -69.882
      vertex -23.882 35.5 -69.3244
      vertex -23.5979 35.5 -69.882
    endloop
  endfacet
  facet normal -0.891006 -0 -0.453992
    outer loop
      vertex -23.882 35.5 -69.3244
      vertex -23.5979 32.5 -69.882
      vertex -23.882 32.5 -69.3244
    endloop
  endfacet
  facet normal 0.156432 0 -0.987689
    outer loop
      vertex -26.118 32.5 -68.5979
      vertex -25.5 35.5 -68.5
      vertex -25.5 32.5 -68.5
    endloop
  endfacet
  facet normal 0.156432 0 -0.987689
    outer loop
      vertex -25.5 35.5 -68.5
      vertex -26.118 32.5 -68.5979
      vertex -26.118 35.5 -68.5979
    endloop
  endfacet
  facet normal 0.453992 0 -0.891006
    outer loop
      vertex -26.6756 32.5 -68.882
      vertex -26.118 35.5 -68.5979
      vertex -26.118 32.5 -68.5979
    endloop
  endfacet
  facet normal 0.453992 0 -0.891006
    outer loop
      vertex -26.118 35.5 -68.5979
      vertex -26.6756 32.5 -68.882
      vertex -26.6756 35.5 -68.882
    endloop
  endfacet
  facet normal -0.453992 0 0.891006
    outer loop
      vertex -24.882 35.5 -72.4021
      vertex -24.3244 32.5 -72.118
      vertex -24.3244 35.5 -72.118
    endloop
  endfacet
  facet normal -0.453992 0 0.891006
    outer loop
      vertex -24.3244 32.5 -72.118
      vertex -24.882 35.5 -72.4021
      vertex -24.882 32.5 -72.4021
    endloop
  endfacet
  facet normal 0.891005 -0 0.453994
    outer loop
      vertex -27.4021 32.5 -71.118
      vertex -27.118 35.5 -71.6756
      vertex -27.4021 35.5 -71.118
    endloop
  endfacet
  facet normal 0.891005 0 0.453994
    outer loop
      vertex -27.118 35.5 -71.6756
      vertex -27.4021 32.5 -71.118
      vertex -27.118 32.5 -71.6756
    endloop
  endfacet
  facet normal -0.156432 0 -0.987689
    outer loop
      vertex -25.5 32.5 -68.5
      vertex -24.882 35.5 -68.5979
      vertex -24.882 32.5 -68.5979
    endloop
  endfacet
  facet normal -0.156432 0 -0.987689
    outer loop
      vertex -24.882 35.5 -68.5979
      vertex -25.5 32.5 -68.5
      vertex -25.5 35.5 -68.5
    endloop
  endfacet
  facet normal 0.987689 0 -0.156432
    outer loop
      vertex -27.4021 32.5 -69.882
      vertex -27.5 35.5 -70.5
      vertex -27.4021 35.5 -69.882
    endloop
  endfacet
  facet normal 0.987689 0 -0.156432
    outer loop
      vertex -27.5 35.5 -70.5
      vertex -27.4021 32.5 -69.882
      vertex -27.5 32.5 -70.5
    endloop
  endfacet
  facet normal 0.987689 -0 0.156432
    outer loop
      vertex -27.5 32.5 -70.5
      vertex -27.4021 35.5 -71.118
      vertex -27.5 35.5 -70.5
    endloop
  endfacet
  facet normal 0.987689 0 0.156432
    outer loop
      vertex -27.4021 35.5 -71.118
      vertex -27.5 32.5 -70.5
      vertex -27.4021 32.5 -71.118
    endloop
  endfacet
  facet normal 0.156432 0 0.987689
    outer loop
      vertex -26.118 35.5 -72.4021
      vertex -25.5 32.5 -72.5
      vertex -25.5 35.5 -72.5
    endloop
  endfacet
  facet normal 0.156432 0 0.987689
    outer loop
      vertex -25.5 32.5 -72.5
      vertex -26.118 35.5 -72.4021
      vertex -26.118 32.5 -72.4021
    endloop
  endfacet
  facet normal -0.156432 0 0.987689
    outer loop
      vertex -25.5 35.5 -72.5
      vertex -24.882 32.5 -72.4021
      vertex -24.882 35.5 -72.4021
    endloop
  endfacet
  facet normal -0.156432 0 0.987689
    outer loop
      vertex -24.882 32.5 -72.4021
      vertex -25.5 35.5 -72.5
      vertex -25.5 32.5 -72.5
    endloop
  endfacet
  facet normal -0.70711 0 -0.707104
    outer loop
      vertex -23.882 32.5 -69.3244
      vertex -24.3244 35.5 -68.882
      vertex -23.882 35.5 -69.3244
    endloop
  endfacet
  facet normal -0.70711 -0 -0.707104
    outer loop
      vertex -24.3244 35.5 -68.882
      vertex -23.882 32.5 -69.3244
      vertex -24.3244 32.5 -68.882
    endloop
  endfacet
  facet normal -0.453992 0 -0.891006
    outer loop
      vertex -24.882 32.5 -68.5979
      vertex -24.3244 35.5 -68.882
      vertex -24.3244 32.5 -68.882
    endloop
  endfacet
  facet normal -0.453992 0 -0.891006
    outer loop
      vertex -24.3244 35.5 -68.882
      vertex -24.882 32.5 -68.5979
      vertex -24.882 35.5 -68.5979
    endloop
  endfacet
  facet normal 0.70711 0 -0.707104
    outer loop
      vertex -26.6756 32.5 -68.882
      vertex -27.118 35.5 -69.3244
      vertex -26.6756 35.5 -68.882
    endloop
  endfacet
  facet normal 0.70711 0 -0.707104
    outer loop
      vertex -27.118 35.5 -69.3244
      vertex -26.6756 32.5 -68.882
      vertex -27.118 32.5 -69.3244
    endloop
  endfacet
  facet normal 0.891005 0 -0.453994
    outer loop
      vertex -27.118 32.5 -69.3244
      vertex -27.4021 35.5 -69.882
      vertex -27.118 35.5 -69.3244
    endloop
  endfacet
  facet normal 0.891005 0 -0.453994
    outer loop
      vertex -27.4021 35.5 -69.882
      vertex -27.118 32.5 -69.3244
      vertex -27.4021 32.5 -69.882
    endloop
  endfacet
  facet normal -0.70711 0 0.707104
    outer loop
      vertex -24.3244 32.5 -72.118
      vertex -23.882 35.5 -71.6756
      vertex -24.3244 35.5 -72.118
    endloop
  endfacet
  facet normal -0.70711 0 0.707104
    outer loop
      vertex -23.882 35.5 -71.6756
      vertex -24.3244 32.5 -72.118
      vertex -23.882 32.5 -71.6756
    endloop
  endfacet
  facet normal -0.891006 0 0.453992
    outer loop
      vertex -23.882 32.5 -71.6756
      vertex -23.5979 35.5 -71.118
      vertex -23.882 35.5 -71.6756
    endloop
  endfacet
  facet normal -0.891006 0 0.453992
    outer loop
      vertex -23.5979 35.5 -71.118
      vertex -23.882 32.5 -71.6756
      vertex -23.5979 32.5 -71.118
    endloop
  endfacet
  facet normal -0.987688 0 0.156434
    outer loop
      vertex -23.5979 32.5 -71.118
      vertex -23.5 35.5 -70.5
      vertex -23.5979 35.5 -71.118
    endloop
  endfacet
  facet normal -0.987688 0 0.156434
    outer loop
      vertex -23.5 35.5 -70.5
      vertex -23.5979 32.5 -71.118
      vertex -23.5 32.5 -70.5
    endloop
  endfacet
  facet normal 0.70711 -0 0.707104
    outer loop
      vertex -27.118 32.5 -71.6756
      vertex -26.6756 35.5 -72.118
      vertex -27.118 35.5 -71.6756
    endloop
  endfacet
  facet normal 0.70711 0 0.707104
    outer loop
      vertex -26.6756 35.5 -72.118
      vertex -27.118 32.5 -71.6756
      vertex -26.6756 32.5 -72.118
    endloop
  endfacet
  facet normal 0.453992 0 0.891006
    outer loop
      vertex -26.6756 35.5 -72.118
      vertex -26.118 32.5 -72.4021
      vertex -26.118 35.5 -72.4021
    endloop
  endfacet
  facet normal 0.453992 0 0.891006
    outer loop
      vertex -26.118 32.5 -72.4021
      vertex -26.6756 35.5 -72.118
      vertex -26.6756 32.5 -72.118
    endloop
  endfacet
endsolid OpenSCAD_Model
