solid OpenSCAD_Model
  facet normal 0.998176 -0 0.0603788
    outer loop
      vertex 38.9344 36 1.08483
      vertex 39 39 0
      vertex 38.9344 39 1.08483
    endloop
  endfacet
  facet normal 0.998176 0 0.0603788
    outer loop
      vertex 39 39 0
      vertex 38.9344 36 1.08483
      vertex 39 36 0
    endloop
  endfacet
  facet normal 0.85578 -0 0.51734
    outer loop
      vertex 37.4069 36 5.11258
      vertex 37.9691 39 4.18251
      vertex 37.4069 39 5.11258
    endloop
  endfacet
  facet normal 0.85578 0 0.51734
    outer loop
      vertex 37.9691 39 4.18251
      vertex 37.4069 36 5.11258
      vertex 37.9691 36 4.18251
    endloop
  endfacet
  facet normal 0.787184 0 -0.616719
    outer loop
      vertex 37.4069 36 -5.11258
      vertex 36.7366 39 -5.9681
      vertex 37.4069 39 -5.11258
    endloop
  endfacet
  facet normal 0.787184 0 -0.616719
    outer loop
      vertex 36.7366 39 -5.9681
      vertex 37.4069 36 -5.11258
      vertex 36.7366 36 -5.9681
    endloop
  endfacet
  facet normal 0.297502 0 0.954721
    outer loop
      vertex 32.1538 39 8.73848
      vertex 33.1914 36 8.41515
      vertex 33.1914 39 8.41515
    endloop
  endfacet
  facet normal 0.297502 0 0.954721
    outer loop
      vertex 33.1914 36 8.41515
      vertex 32.1538 39 8.73848
      vertex 32.1538 36 8.73848
    endloop
  endfacet
  facet normal 0.707108 0 -0.707106
    outer loop
      vertex -18.7634 36 -76.4681
      vertex -19.5319 39 -77.2366
      vertex -18.7634 39 -76.4681
    endloop
  endfacet
  facet normal 0.707108 0 -0.707106
    outer loop
      vertex -19.5319 39 -77.2366
      vertex -18.7634 36 -76.4681
      vertex -19.5319 36 -77.2366
    endloop
  endfacet
  facet normal -0.98362 0 -0.180256
    outer loop
      vertex -34.2385 36 -72.6538
      vertex -34.4344 39 -71.5848
      vertex -34.2385 39 -72.6538
    endloop
  endfacet
  facet normal -0.98362 -0 -0.180256
    outer loop
      vertex -34.4344 39 -71.5848
      vertex -34.2385 36 -72.6538
      vertex -34.4344 36 -71.5848
    endloop
  endfacet
  facet normal 0 1 0
    outer loop
      vertex 30 39 6
      vertex 30 39 9
      vertex 31.0848 39 8.93438
    endloop
  endfacet
  facet normal 0 1 -0
    outer loop
      vertex 31.8541 39 5.70634
      vertex 31.0848 39 8.93438
      vertex 32.1538 39 8.73848
    endloop
  endfacet
  facet normal 0 1 0
    outer loop
      vertex 30 39 9
      vertex 30 39 6
      vertex 28.9152 39 8.93438
    endloop
  endfacet
  facet normal 0 1 0
    outer loop
      vertex 31.8541 39 5.70634
      vertex 32.1538 39 8.73848
      vertex 33.1914 39 8.41515
    endloop
  endfacet
  facet normal 0 1 0
    outer loop
      vertex 28.1459 39 5.70634
      vertex 28.9152 39 8.93438
      vertex 30 39 6
    endloop
  endfacet
  facet normal 0 1 0
    outer loop
      vertex 31.8541 39 5.70634
      vertex 33.1914 39 8.41515
      vertex 34.1825 39 7.9691
    endloop
  endfacet
  facet normal 0 1 0
    outer loop
      vertex 28.9152 39 8.93438
      vertex 28.1459 39 5.70634
      vertex 27.8462 39 8.73848
    endloop
  endfacet
  facet normal 0 1 0
    outer loop
      vertex 33.5267 39 4.8541
      vertex 34.1825 39 7.9691
      vertex 35.1126 39 7.40685
    endloop
  endfacet
  facet normal 0 1 0
    outer loop
      vertex 27.8462 39 8.73848
      vertex 28.1459 39 5.70634
      vertex 26.8086 39 8.41515
    endloop
  endfacet
  facet normal 0 1 0
    outer loop
      vertex 33.5267 39 4.8541
      vertex 35.1126 39 7.40685
      vertex 35.9681 39 6.7366
    endloop
  endfacet
  facet normal 0 1 0
    outer loop
      vertex 26.8086 39 8.41515
      vertex 28.1459 39 5.70634
      vertex 25.8175 39 7.9691
    endloop
  endfacet
  facet normal 0 1 -0
    outer loop
      vertex 26.4733 39 4.8541
      vertex 25.8175 39 7.9691
      vertex 28.1459 39 5.70634
    endloop
  endfacet
  facet normal 0 1 0
    outer loop
      vertex 33.5267 39 4.8541
      vertex 35.9681 39 6.7366
      vertex 36.7366 39 5.9681
    endloop
  endfacet
  facet normal 0 1 0
    outer loop
      vertex 31.0848 39 8.93438
      vertex 31.8541 39 5.70634
      vertex 30 39 6
    endloop
  endfacet
  facet normal 0 1 0
    outer loop
      vertex 34.8541 39 3.52671
      vertex 36.7366 39 5.9681
      vertex 37.4069 39 5.11258
    endloop
  endfacet
  facet normal 0 1 0
    outer loop
      vertex 34.1825 39 7.9691
      vertex 33.5267 39 4.8541
      vertex 31.8541 39 5.70634
    endloop
  endfacet
  facet normal 0 1 0
    outer loop
      vertex 34.8541 39 3.52671
      vertex 37.4069 39 5.11258
      vertex 37.9691 39 4.18251
    endloop
  endfacet
  facet normal 0 1 0
    outer loop
      vertex 36.7366 39 5.9681
      vertex 34.8541 39 3.52671
      vertex 33.5267 39 4.8541
    endloop
  endfacet
  facet normal 0 1 0
    outer loop
      vertex 35.7063 39 1.8541
      vertex 37.9691 39 4.18251
      vertex 38.4151 39 3.19144
    endloop
  endfacet
  facet normal 0 1 0
    outer loop
      vertex 35.7063 39 1.8541
      vertex 38.4151 39 3.19144
      vertex 38.7385 39 2.15384
    endloop
  endfacet
  facet normal 0 1 0
    outer loop
      vertex 37.9691 39 4.18251
      vertex 35.7063 39 1.8541
      vertex 34.8541 39 3.52671
    endloop
  endfacet
  facet normal 0 1 0
    outer loop
      vertex 38.9344 39 1.08483
      vertex 35.7063 39 1.8541
      vertex 38.7385 39 2.15384
    endloop
  endfacet
  facet normal 0 1 0
    outer loop
      vertex 36 39 0
      vertex 38.9344 39 1.08483
      vertex 39 39 0
    endloop
  endfacet
  facet normal 0 1 0
    outer loop
      vertex 38.9344 39 1.08483
      vertex 36 39 0
      vertex 35.7063 39 1.8541
    endloop
  endfacet
  facet normal 0 1 -0
    outer loop
      vertex 38.9344 39 -1.08483
      vertex 36 39 0
      vertex 39 39 0
    endloop
  endfacet
  facet normal 0 1 0
    outer loop
      vertex 38.9344 39 -1.08483
      vertex 35.7063 39 -1.8541
      vertex 36 39 0
    endloop
  endfacet
  facet normal 0 1 -0
    outer loop
      vertex 38.7385 39 -2.15384
      vertex 35.7063 39 -1.8541
      vertex 38.9344 39 -1.08483
    endloop
  endfacet
  facet normal 0 1 -0
    outer loop
      vertex 38.4151 39 -3.19144
      vertex 35.7063 39 -1.8541
      vertex 38.7385 39 -2.15384
    endloop
  endfacet
  facet normal 0 1 -0
    outer loop
      vertex 37.9691 39 -4.18251
      vertex 35.7063 39 -1.8541
      vertex 38.4151 39 -3.19144
    endloop
  endfacet
  facet normal 0 1 0
    outer loop
      vertex 35.7063 39 -1.8541
      vertex 37.9691 39 -4.18251
      vertex 34.8541 39 -3.52671
    endloop
  endfacet
  facet normal 0 1 -0
    outer loop
      vertex 37.4069 39 -5.11258
      vertex 34.8541 39 -3.52671
      vertex 37.9691 39 -4.18251
    endloop
  endfacet
  facet normal 0 1 -0
    outer loop
      vertex 36.7366 39 -5.9681
      vertex 34.8541 39 -3.52671
      vertex 37.4069 39 -5.11258
    endloop
  endfacet
  facet normal 0 1 0
    outer loop
      vertex 34.8541 39 -3.52671
      vertex 36.7366 39 -5.9681
      vertex 33.5267 39 -4.8541
    endloop
  endfacet
  facet normal 0 1 0
    outer loop
      vertex 33.5267 39 -4.8541
      vertex 36.7366 39 -5.9681
      vertex 31.8541 39 -5.70634
    endloop
  endfacet
  facet normal 0 1 0
    outer loop
      vertex 36.7366 39 -5.9681
      vertex 30 39 -6
      vertex 31.8541 39 -5.70634
    endloop
  endfacet
  facet normal 0 1 0
    outer loop
      vertex -19.7937 39 -68.6459
      vertex 30 39 -6
      vertex 36.7366 39 -5.9681
    endloop
  endfacet
  facet normal 0 1 0
    outer loop
      vertex 30 39 -6
      vertex -23.6459 39 -64.7937
      vertex -25.5 39 -64.5
    endloop
  endfacet
  facet normal 0 1 0
    outer loop
      vertex 30 39 -6
      vertex -21.9733 39 -65.6459
      vertex -23.6459 39 -64.7937
    endloop
  endfacet
  facet normal 0 1 0
    outer loop
      vertex 30 39 -6
      vertex -20.6459 39 -66.9733
      vertex -21.9733 39 -65.6459
    endloop
  endfacet
  facet normal 0 1 0
    outer loop
      vertex 30 39 -6
      vertex -19.7937 39 -68.6459
      vertex -20.6459 39 -66.9733
    endloop
  endfacet
  facet normal 0 1 0
    outer loop
      vertex 36.7366 39 -5.9681
      vertex -19.5 39 -70.5
      vertex -19.7937 39 -68.6459
    endloop
  endfacet
  facet normal 0 1 -0
    outer loop
      vertex -18.7634 39 -76.4681
      vertex -19.5 39 -70.5
      vertex 36.7366 39 -5.9681
    endloop
  endfacet
  facet normal 0 1 0
    outer loop
      vertex -19.5 39 -70.5
      vertex -18.7634 39 -76.4681
      vertex -19.7937 39 -72.3541
    endloop
  endfacet
  facet normal 0 1 0
    outer loop
      vertex -19.7937 39 -72.3541
      vertex -18.7634 39 -76.4681
      vertex -20.6459 39 -74.0267
    endloop
  endfacet
  facet normal 0 1 0
    outer loop
      vertex -18.7634 39 -76.4681
      vertex -21.9733 39 -75.3541
      vertex -20.6459 39 -74.0267
    endloop
  endfacet
  facet normal 0 1 -0
    outer loop
      vertex -19.5319 39 -77.2366
      vertex -21.9733 39 -75.3541
      vertex -18.7634 39 -76.4681
    endloop
  endfacet
  facet normal 0 1 -0
    outer loop
      vertex -20.3874 39 -77.9069
      vertex -21.9733 39 -75.3541
      vertex -19.5319 39 -77.2366
    endloop
  endfacet
  facet normal 0 1 -0
    outer loop
      vertex -21.3175 39 -78.4691
      vertex -21.9733 39 -75.3541
      vertex -20.3874 39 -77.9069
    endloop
  endfacet
  facet normal 0 1 0
    outer loop
      vertex 25.8175 39 7.9691
      vertex 26.4733 39 4.8541
      vertex 24.8874 39 7.40685
    endloop
  endfacet
  facet normal 0 1 0
    outer loop
      vertex 24.8874 39 7.40685
      vertex 26.4733 39 4.8541
      vertex 24.0319 39 6.7366
    endloop
  endfacet
  facet normal 0 1 0
    outer loop
      vertex 24.0319 39 6.7366
      vertex 26.4733 39 4.8541
      vertex 23.2634 39 5.9681
    endloop
  endfacet
  facet normal 0 1 -0
    outer loop
      vertex 25.1459 39 3.52671
      vertex 23.2634 39 5.9681
      vertex 26.4733 39 4.8541
    endloop
  endfacet
  facet normal 0 1 -0
    outer loop
      vertex 24.2937 39 1.8541
      vertex 23.2634 39 5.9681
      vertex 25.1459 39 3.52671
    endloop
  endfacet
  facet normal 0 1 -0
    outer loop
      vertex 24 39 0
      vertex 23.2634 39 5.9681
      vertex 24.2937 39 1.8541
    endloop
  endfacet
  facet normal 0 1 0
    outer loop
      vertex -25.5 39 -64.5
      vertex 28.1459 39 -5.70634
      vertex 30 39 -6
    endloop
  endfacet
  facet normal 0 1 0
    outer loop
      vertex -25.5 39 -64.5
      vertex 26.4733 39 -4.8541
      vertex 28.1459 39 -5.70634
    endloop
  endfacet
  facet normal 0 1 0
    outer loop
      vertex -25.5 39 -64.5
      vertex 25.1459 39 -3.52671
      vertex 26.4733 39 -4.8541
    endloop
  endfacet
  facet normal 0 1 0
    outer loop
      vertex -25.5 39 -64.5
      vertex 24.2937 39 -1.8541
      vertex 25.1459 39 -3.52671
    endloop
  endfacet
  facet normal 0 1 0
    outer loop
      vertex -32.2366 39 -64.5319
      vertex 24.2937 39 -1.8541
      vertex -25.5 39 -64.5
    endloop
  endfacet
  facet normal 0 1 0
    outer loop
      vertex 24.2937 39 -1.8541
      vertex -32.2366 39 -64.5319
      vertex 24 39 0
    endloop
  endfacet
  facet normal 0 1 0
    outer loop
      vertex 24 39 0
      vertex -32.2366 39 -64.5319
      vertex 23.2634 39 5.9681
    endloop
  endfacet
  facet normal 0 1 -0
    outer loop
      vertex -27.3541 39 -64.7937
      vertex -32.2366 39 -64.5319
      vertex -25.5 39 -64.5
    endloop
  endfacet
  facet normal 0 1 -0
    outer loop
      vertex -29.0267 39 -65.6459
      vertex -32.2366 39 -64.5319
      vertex -27.3541 39 -64.7937
    endloop
  endfacet
  facet normal 0 1 -0
    outer loop
      vertex -30.3541 39 -66.9733
      vertex -32.2366 39 -64.5319
      vertex -29.0267 39 -65.6459
    endloop
  endfacet
  facet normal 0 1 0
    outer loop
      vertex -32.2366 39 -64.5319
      vertex -30.3541 39 -66.9733
      vertex -32.9069 39 -65.3874
    endloop
  endfacet
  facet normal 0 1 0
    outer loop
      vertex -32.9069 39 -65.3874
      vertex -30.3541 39 -66.9733
      vertex -33.4691 39 -66.3175
    endloop
  endfacet
  facet normal 0 1 -0
    outer loop
      vertex -31.2063 39 -68.6459
      vertex -33.4691 39 -66.3175
      vertex -30.3541 39 -66.9733
    endloop
  endfacet
  facet normal 0 1 0
    outer loop
      vertex -33.4691 39 -66.3175
      vertex -31.2063 39 -68.6459
      vertex -33.9151 39 -67.3086
    endloop
  endfacet
  facet normal 0 1 0
    outer loop
      vertex -33.9151 39 -67.3086
      vertex -31.2063 39 -68.6459
      vertex -34.2385 39 -68.3462
    endloop
  endfacet
  facet normal 0 1 0
    outer loop
      vertex -31.2063 39 -68.6459
      vertex -34.4344 39 -69.4152
      vertex -34.2385 39 -68.3462
    endloop
  endfacet
  facet normal 0 1 -0
    outer loop
      vertex -31.5 39 -70.5
      vertex -34.4344 39 -69.4152
      vertex -31.2063 39 -68.6459
    endloop
  endfacet
  facet normal 0 1 0
    outer loop
      vertex -31.5 39 -70.5
      vertex -34.5 39 -70.5
      vertex -34.4344 39 -69.4152
    endloop
  endfacet
  facet normal 0 1 0
    outer loop
      vertex -31.5 39 -70.5
      vertex -34.4344 39 -71.5848
      vertex -34.5 39 -70.5
    endloop
  endfacet
  facet normal 0 1 0
    outer loop
      vertex -31.2063 39 -72.3541
      vertex -34.4344 39 -71.5848
      vertex -31.5 39 -70.5
    endloop
  endfacet
  facet normal 0 1 0
    outer loop
      vertex -31.2063 39 -72.3541
      vertex -34.2385 39 -72.6538
      vertex -34.4344 39 -71.5848
    endloop
  endfacet
  facet normal 0 1 0
    outer loop
      vertex -31.2063 39 -72.3541
      vertex -33.9151 39 -73.6914
      vertex -34.2385 39 -72.6538
    endloop
  endfacet
  facet normal 0 1 0
    outer loop
      vertex -33.4691 39 -74.6825
      vertex -31.2063 39 -72.3541
      vertex -30.3541 39 -74.0267
    endloop
  endfacet
  facet normal 0 1 0
    outer loop
      vertex -31.2063 39 -72.3541
      vertex -33.4691 39 -74.6825
      vertex -33.9151 39 -73.6914
    endloop
  endfacet
  facet normal 0 1 0
    outer loop
      vertex -32.2366 39 -76.4681
      vertex -30.3541 39 -74.0267
      vertex -29.0267 39 -75.3541
    endloop
  endfacet
  facet normal 0 1 0
    outer loop
      vertex -30.3541 39 -74.0267
      vertex -32.9069 39 -75.6126
      vertex -33.4691 39 -74.6825
    endloop
  endfacet
  facet normal 0 1 0
    outer loop
      vertex -29.6825 39 -78.4691
      vertex -29.0267 39 -75.3541
      vertex -27.3541 39 -76.2063
    endloop
  endfacet
  facet normal 0 1 0
    outer loop
      vertex -30.3541 39 -74.0267
      vertex -32.2366 39 -76.4681
      vertex -32.9069 39 -75.6126
    endloop
  endfacet
  facet normal 0 1 -0
    outer loop
      vertex -26.5848 39 -79.4344
      vertex -27.3541 39 -76.2063
      vertex -25.5 39 -76.5
    endloop
  endfacet
  facet normal 0 1 0
    outer loop
      vertex -21.9733 39 -75.3541
      vertex -21.3175 39 -78.4691
      vertex -23.6459 39 -76.2063
    endloop
  endfacet
  facet normal 0 1 0
    outer loop
      vertex -29.0267 39 -75.3541
      vertex -31.4681 39 -77.2366
      vertex -32.2366 39 -76.4681
    endloop
  endfacet
  facet normal 0 1 -0
    outer loop
      vertex -22.3086 39 -78.9151
      vertex -23.6459 39 -76.2063
      vertex -21.3175 39 -78.4691
    endloop
  endfacet
  facet normal 0 1 0
    outer loop
      vertex -29.0267 39 -75.3541
      vertex -30.6126 39 -77.9069
      vertex -31.4681 39 -77.2366
    endloop
  endfacet
  facet normal 0 1 -0
    outer loop
      vertex -23.3462 39 -79.2385
      vertex -23.6459 39 -76.2063
      vertex -22.3086 39 -78.9151
    endloop
  endfacet
  facet normal 0 1 0
    outer loop
      vertex -29.0267 39 -75.3541
      vertex -29.6825 39 -78.4691
      vertex -30.6126 39 -77.9069
    endloop
  endfacet
  facet normal 0 1 0
    outer loop
      vertex -24.4152 39 -79.4344
      vertex -23.6459 39 -76.2063
      vertex -23.3462 39 -79.2385
    endloop
  endfacet
  facet normal 0 1 0
    outer loop
      vertex -27.3541 39 -76.2063
      vertex -28.6914 39 -78.9151
      vertex -29.6825 39 -78.4691
    endloop
  endfacet
  facet normal 0 1 0
    outer loop
      vertex -23.6459 39 -76.2063
      vertex -24.4152 39 -79.4344
      vertex -25.5 39 -76.5
    endloop
  endfacet
  facet normal 0 1 0
    outer loop
      vertex -27.3541 39 -76.2063
      vertex -27.6538 39 -79.2385
      vertex -28.6914 39 -78.9151
    endloop
  endfacet
  facet normal 0 1 0
    outer loop
      vertex -25.5 39 -79.5
      vertex -25.5 39 -76.5
      vertex -24.4152 39 -79.4344
    endloop
  endfacet
  facet normal 0 1 0
    outer loop
      vertex -27.3541 39 -76.2063
      vertex -26.5848 39 -79.4344
      vertex -27.6538 39 -79.2385
    endloop
  endfacet
  facet normal 0 1 0
    outer loop
      vertex -25.5 39 -76.5
      vertex -25.5 39 -79.5
      vertex -26.5848 39 -79.4344
    endloop
  endfacet
  facet normal 0.954721 -0 0.297503
    outer loop
      vertex 38.4151 36 3.19144
      vertex 38.7385 39 2.15384
      vertex 38.4151 39 3.19144
    endloop
  endfacet
  facet normal 0.954721 0 0.297503
    outer loop
      vertex 38.7385 39 2.15384
      vertex 38.4151 36 3.19144
      vertex 38.7385 36 2.15384
    endloop
  endfacet
  facet normal 0.785738 0 -0.61856
    outer loop
      vertex 36.7366 36 -5.9681
      vertex -18.7634 39 -76.4681
      vertex 36.7366 39 -5.9681
    endloop
  endfacet
  facet normal 0.785738 0 -0.61856
    outer loop
      vertex -18.7634 39 -76.4681
      vertex 36.7366 36 -5.9681
      vertex -18.7634 36 -76.4681
    endloop
  endfacet
  facet normal -0.707107 0 0.707106
    outer loop
      vertex 23.2634 36 5.9681
      vertex 24.0319 39 6.7366
      vertex 23.2634 39 5.9681
    endloop
  endfacet
  facet normal -0.707107 0 0.707106
    outer loop
      vertex 24.0319 39 6.7366
      vertex 23.2634 36 5.9681
      vertex 24.0319 36 6.7366
    endloop
  endfacet
  facet normal -0.787184 0 0.616718
    outer loop
      vertex -32.9069 36 -65.3874
      vertex -32.2366 39 -64.5319
      vertex -32.9069 39 -65.3874
    endloop
  endfacet
  facet normal -0.787184 0 0.616718
    outer loop
      vertex -32.2366 39 -64.5319
      vertex -32.9069 36 -65.3874
      vertex -32.2366 36 -64.5319
    endloop
  endfacet
  facet normal -0.855779 0 0.517342
    outer loop
      vertex -33.4691 36 -66.3175
      vertex -32.9069 39 -65.3874
      vertex -33.4691 39 -66.3175
    endloop
  endfacet
  facet normal -0.855779 0 0.517342
    outer loop
      vertex -32.9069 39 -65.3874
      vertex -33.4691 36 -66.3175
      vertex -32.9069 36 -65.3874
    endloop
  endfacet
  facet normal -0.9119 0 0.410412
    outer loop
      vertex -33.9151 36 -67.3086
      vertex -33.4691 39 -66.3175
      vertex -33.9151 39 -67.3086
    endloop
  endfacet
  facet normal -0.9119 0 0.410412
    outer loop
      vertex -33.4691 39 -66.3175
      vertex -33.9151 36 -67.3086
      vertex -33.4691 36 -66.3175
    endloop
  endfacet
  facet normal -0.616719 0 0.787184
    outer loop
      vertex 24.0319 39 6.7366
      vertex 24.8874 36 7.40685
      vertex 24.8874 39 7.40685
    endloop
  endfacet
  facet normal -0.616719 0 0.787184
    outer loop
      vertex 24.8874 36 7.40685
      vertex 24.0319 39 6.7366
      vertex 24.0319 36 6.7366
    endloop
  endfacet
  facet normal 0.180255 0 0.98362
    outer loop
      vertex 31.0848 39 8.93438
      vertex 32.1538 36 8.73848
      vertex 32.1538 39 8.73848
    endloop
  endfacet
  facet normal 0.180255 0 0.98362
    outer loop
      vertex 32.1538 36 8.73848
      vertex 31.0848 39 8.93438
      vertex 31.0848 36 8.93438
    endloop
  endfacet
  facet normal -0.0603787 0 0.998176
    outer loop
      vertex 28.9152 39 8.93438
      vertex 30 36 9
      vertex 30 39 9
    endloop
  endfacet
  facet normal -0.0603787 0 0.998176
    outer loop
      vertex 30 36 9
      vertex 28.9152 39 8.93438
      vertex 28.9152 36 8.93438
    endloop
  endfacet
  facet normal -0.180255 0 0.98362
    outer loop
      vertex 27.8462 39 8.73848
      vertex 28.9152 36 8.93438
      vertex 28.9152 39 8.93438
    endloop
  endfacet
  facet normal -0.180255 0 0.98362
    outer loop
      vertex 28.9152 36 8.93438
      vertex 27.8462 39 8.73848
      vertex 27.8462 36 8.73848
    endloop
  endfacet
  facet normal -0.410412 0 0.9119
    outer loop
      vertex 25.8175 39 7.9691
      vertex 26.8086 36 8.41515
      vertex 26.8086 39 8.41515
    endloop
  endfacet
  facet normal -0.410412 0 0.9119
    outer loop
      vertex 26.8086 36 8.41515
      vertex 25.8175 39 7.9691
      vertex 25.8175 36 7.9691
    endloop
  endfacet
  facet normal 0.98362 -0 0.180255
    outer loop
      vertex 38.7385 36 2.15384
      vertex 38.9344 39 1.08483
      vertex 38.7385 39 2.15384
    endloop
  endfacet
  facet normal 0.98362 0 0.180255
    outer loop
      vertex 38.9344 39 1.08483
      vertex 38.7385 36 2.15384
      vertex 38.9344 36 1.08483
    endloop
  endfacet
  facet normal 0.61672 0 0.787182
    outer loop
      vertex 35.1126 39 7.40685
      vertex 35.9681 36 6.7366
      vertex 35.9681 39 6.7366
    endloop
  endfacet
  facet normal 0.61672 0 0.787182
    outer loop
      vertex 35.9681 36 6.7366
      vertex 35.1126 39 7.40685
      vertex 35.1126 36 7.40685
    endloop
  endfacet
  facet normal 0.707106 0 0.707107
    outer loop
      vertex 35.9681 39 6.7366
      vertex 36.7366 36 5.9681
      vertex 36.7366 39 5.9681
    endloop
  endfacet
  facet normal 0.707106 0 0.707107
    outer loop
      vertex 36.7366 36 5.9681
      vertex 35.9681 39 6.7366
      vertex 35.9681 36 6.7366
    endloop
  endfacet
  facet normal 0.998176 0 -0.0603788
    outer loop
      vertex 39 36 0
      vertex 38.9344 39 -1.08483
      vertex 39 39 0
    endloop
  endfacet
  facet normal 0.998176 0 -0.0603788
    outer loop
      vertex 38.9344 39 -1.08483
      vertex 39 36 0
      vertex 38.9344 36 -1.08483
    endloop
  endfacet
  facet normal 0.954721 0 -0.297503
    outer loop
      vertex 38.7385 36 -2.15384
      vertex 38.4151 39 -3.19144
      vertex 38.7385 39 -2.15384
    endloop
  endfacet
  facet normal 0.954721 0 -0.297503
    outer loop
      vertex 38.4151 39 -3.19144
      vertex 38.7385 36 -2.15384
      vertex 38.4151 36 -3.19144
    endloop
  endfacet
  facet normal 0.85578 0 -0.51734
    outer loop
      vertex 37.9691 36 -4.18251
      vertex 37.4069 39 -5.11258
      vertex 37.9691 39 -4.18251
    endloop
  endfacet
  facet normal 0.85578 0 -0.51734
    outer loop
      vertex 37.4069 39 -5.11258
      vertex 37.9691 36 -4.18251
      vertex 37.4069 36 -5.11258
    endloop
  endfacet
  facet normal -0.998176 0 -0.0603787
    outer loop
      vertex -34.4344 36 -71.5848
      vertex -34.5 39 -70.5
      vertex -34.4344 39 -71.5848
    endloop
  endfacet
  facet normal -0.998176 -0 -0.0603787
    outer loop
      vertex -34.5 39 -70.5
      vertex -34.4344 36 -71.5848
      vertex -34.5 36 -70.5
    endloop
  endfacet
  facet normal -0.855779 0 -0.517342
    outer loop
      vertex -32.9069 36 -75.6126
      vertex -33.4691 39 -74.6825
      vertex -32.9069 39 -75.6126
    endloop
  endfacet
  facet normal -0.855779 -0 -0.517342
    outer loop
      vertex -33.4691 39 -74.6825
      vertex -32.9069 36 -75.6126
      vertex -33.4691 36 -74.6825
    endloop
  endfacet
  facet normal -0.9119 0 -0.410412
    outer loop
      vertex -33.4691 36 -74.6825
      vertex -33.9151 39 -73.6914
      vertex -33.4691 39 -74.6825
    endloop
  endfacet
  facet normal -0.9119 -0 -0.410412
    outer loop
      vertex -33.9151 39 -73.6914
      vertex -33.4691 36 -74.6825
      vertex -33.9151 36 -73.6914
    endloop
  endfacet
  facet normal 0.0603787 0 -0.998176
    outer loop
      vertex -25.5 36 -79.5
      vertex -24.4152 39 -79.4344
      vertex -24.4152 36 -79.4344
    endloop
  endfacet
  facet normal 0.0603787 0 -0.998176
    outer loop
      vertex -24.4152 39 -79.4344
      vertex -25.5 36 -79.5
      vertex -25.5 39 -79.5
    endloop
  endfacet
  facet normal -0.785738 0 0.61856
    outer loop
      vertex -32.2366 36 -64.5319
      vertex 23.2634 39 5.9681
      vertex -32.2366 39 -64.5319
    endloop
  endfacet
  facet normal -0.785738 0 0.61856
    outer loop
      vertex 23.2634 39 5.9681
      vertex -32.2366 36 -64.5319
      vertex 23.2634 36 5.9681
    endloop
  endfacet
  facet normal -0.998176 0 0.0603787
    outer loop
      vertex -34.5 36 -70.5
      vertex -34.4344 39 -69.4152
      vertex -34.5 39 -70.5
    endloop
  endfacet
  facet normal -0.998176 0 0.0603787
    outer loop
      vertex -34.4344 39 -69.4152
      vertex -34.5 36 -70.5
      vertex -34.4344 36 -69.4152
    endloop
  endfacet
  facet normal -0.98362 0 0.180256
    outer loop
      vertex -34.4344 36 -69.4152
      vertex -34.2385 39 -68.3462
      vertex -34.4344 39 -69.4152
    endloop
  endfacet
  facet normal -0.98362 0 0.180256
    outer loop
      vertex -34.2385 39 -68.3462
      vertex -34.4344 36 -69.4152
      vertex -34.2385 36 -68.3462
    endloop
  endfacet
  facet normal 0.0603788 0 0.998176
    outer loop
      vertex 30 39 9
      vertex 31.0848 36 8.93438
      vertex 31.0848 39 8.93438
    endloop
  endfacet
  facet normal 0.0603788 0 0.998176
    outer loop
      vertex 31.0848 36 8.93438
      vertex 30 39 9
      vertex 30 36 9
    endloop
  endfacet
  facet normal -0.297503 0 0.954721
    outer loop
      vertex 26.8086 39 8.41515
      vertex 27.8462 36 8.73848
      vertex 27.8462 39 8.73848
    endloop
  endfacet
  facet normal -0.297503 0 0.954721
    outer loop
      vertex 27.8462 36 8.73848
      vertex 26.8086 39 8.41515
      vertex 26.8086 36 8.41515
    endloop
  endfacet
  facet normal -0.517338 0 0.855781
    outer loop
      vertex 24.8874 39 7.40685
      vertex 25.8175 36 7.9691
      vertex 25.8175 39 7.9691
    endloop
  endfacet
  facet normal -0.517338 0 0.855781
    outer loop
      vertex 25.8175 36 7.9691
      vertex 24.8874 39 7.40685
      vertex 24.8874 36 7.40685
    endloop
  endfacet
  facet normal 0.9119 -0 0.410412
    outer loop
      vertex 37.9691 36 4.18251
      vertex 38.4151 39 3.19144
      vertex 37.9691 39 4.18251
    endloop
  endfacet
  facet normal 0.9119 0 0.410412
    outer loop
      vertex 38.4151 39 3.19144
      vertex 37.9691 36 4.18251
      vertex 38.4151 36 3.19144
    endloop
  endfacet
  facet normal 0.787184 -0 0.616719
    outer loop
      vertex 36.7366 36 5.9681
      vertex 37.4069 39 5.11258
      vertex 36.7366 39 5.9681
    endloop
  endfacet
  facet normal 0.787184 0 0.616719
    outer loop
      vertex 37.4069 39 5.11258
      vertex 36.7366 36 5.9681
      vertex 37.4069 36 5.11258
    endloop
  endfacet
  facet normal 0.517338 0 0.855781
    outer loop
      vertex 34.1825 39 7.9691
      vertex 35.1126 36 7.40685
      vertex 35.1126 39 7.40685
    endloop
  endfacet
  facet normal 0.517338 0 0.855781
    outer loop
      vertex 35.1126 36 7.40685
      vertex 34.1825 39 7.9691
      vertex 34.1825 36 7.9691
    endloop
  endfacet
  facet normal 0.410412 0 0.9119
    outer loop
      vertex 33.1914 39 8.41515
      vertex 34.1825 36 7.9691
      vertex 34.1825 39 7.9691
    endloop
  endfacet
  facet normal 0.410412 0 0.9119
    outer loop
      vertex 34.1825 36 7.9691
      vertex 33.1914 39 8.41515
      vertex 33.1914 36 8.41515
    endloop
  endfacet
  facet normal 0.98362 0 -0.180255
    outer loop
      vertex 38.9344 36 -1.08483
      vertex 38.7385 39 -2.15384
      vertex 38.9344 39 -1.08483
    endloop
  endfacet
  facet normal 0.98362 0 -0.180255
    outer loop
      vertex 38.7385 39 -2.15384
      vertex 38.9344 36 -1.08483
      vertex 38.7385 36 -2.15384
    endloop
  endfacet
  facet normal 0.9119 0 -0.410412
    outer loop
      vertex 38.4151 36 -3.19144
      vertex 37.9691 39 -4.18251
      vertex 38.4151 39 -3.19144
    endloop
  endfacet
  facet normal 0.9119 0 -0.410412
    outer loop
      vertex 37.9691 39 -4.18251
      vertex 38.4151 36 -3.19144
      vertex 37.9691 36 -4.18251
    endloop
  endfacet
  facet normal -0.954721 0 -0.297502
    outer loop
      vertex -33.9151 36 -73.6914
      vertex -34.2385 39 -72.6538
      vertex -33.9151 39 -73.6914
    endloop
  endfacet
  facet normal -0.954721 -0 -0.297502
    outer loop
      vertex -34.2385 39 -72.6538
      vertex -33.9151 36 -73.6914
      vertex -34.2385 36 -72.6538
    endloop
  endfacet
  facet normal -0.787184 0 -0.616718
    outer loop
      vertex -32.2366 36 -76.4681
      vertex -32.9069 39 -75.6126
      vertex -32.2366 39 -76.4681
    endloop
  endfacet
  facet normal -0.787184 -0 -0.616718
    outer loop
      vertex -32.9069 39 -75.6126
      vertex -32.2366 36 -76.4681
      vertex -32.9069 36 -75.6126
    endloop
  endfacet
  facet normal 0 -1 0
    outer loop
      vertex 30 36 6
      vertex 30 36 9
      vertex 28.9152 36 8.93438
    endloop
  endfacet
  facet normal 0 -1 0
    outer loop
      vertex 28.1459 36 5.70634
      vertex 28.9152 36 8.93438
      vertex 27.8462 36 8.73848
    endloop
  endfacet
  facet normal 0 -1 0
    outer loop
      vertex 30 36 9
      vertex 30 36 6
      vertex 31.0848 36 8.93438
    endloop
  endfacet
  facet normal 0 -1 0
    outer loop
      vertex 28.1459 36 5.70634
      vertex 27.8462 36 8.73848
      vertex 26.8086 36 8.41515
    endloop
  endfacet
  facet normal 0 -1 0
    outer loop
      vertex 31.8541 36 5.70634
      vertex 31.0848 36 8.93438
      vertex 30 36 6
    endloop
  endfacet
  facet normal 0 -1 0
    outer loop
      vertex 28.1459 36 5.70634
      vertex 26.8086 36 8.41515
      vertex 25.8175 36 7.9691
    endloop
  endfacet
  facet normal 0 -1 0
    outer loop
      vertex 31.0848 36 8.93438
      vertex 31.8541 36 5.70634
      vertex 32.1538 36 8.73848
    endloop
  endfacet
  facet normal 0 -1 0
    outer loop
      vertex 26.4733 36 4.8541
      vertex 25.8175 36 7.9691
      vertex 24.8874 36 7.40685
    endloop
  endfacet
  facet normal 0 -1 -0
    outer loop
      vertex 32.1538 36 8.73848
      vertex 31.8541 36 5.70634
      vertex 33.1914 36 8.41515
    endloop
  endfacet
  facet normal 0 -1 0
    outer loop
      vertex 26.4733 36 4.8541
      vertex 24.8874 36 7.40685
      vertex 24.0319 36 6.7366
    endloop
  endfacet
  facet normal 0 -1 -0
    outer loop
      vertex 33.1914 36 8.41515
      vertex 31.8541 36 5.70634
      vertex 34.1825 36 7.9691
    endloop
  endfacet
  facet normal 0 -1 0
    outer loop
      vertex 33.5267 36 4.8541
      vertex 34.1825 36 7.9691
      vertex 31.8541 36 5.70634
    endloop
  endfacet
  facet normal 0 -1 0
    outer loop
      vertex 26.4733 36 4.8541
      vertex 24.0319 36 6.7366
      vertex 23.2634 36 5.9681
    endloop
  endfacet
  facet normal 0 -1 -0
    outer loop
      vertex 28.9152 36 8.93438
      vertex 28.1459 36 5.70634
      vertex 30 36 6
    endloop
  endfacet
  facet normal 0 -1 0
    outer loop
      vertex 25.8175 36 7.9691
      vertex 26.4733 36 4.8541
      vertex 28.1459 36 5.70634
    endloop
  endfacet
  facet normal 0 -1 0
    outer loop
      vertex 23.2634 36 5.9681
      vertex 25.1459 36 3.52671
      vertex 26.4733 36 4.8541
    endloop
  endfacet
  facet normal 0 -1 0
    outer loop
      vertex 23.2634 36 5.9681
      vertex 24.2937 36 1.8541
      vertex 25.1459 36 3.52671
    endloop
  endfacet
  facet normal 0 -1 0
    outer loop
      vertex 23.2634 36 5.9681
      vertex 24 36 0
      vertex 24.2937 36 1.8541
    endloop
  endfacet
  facet normal 0 -1 -0
    outer loop
      vertex 25.1459 36 -3.52671
      vertex -21.9733 36 -65.6459
      vertex 26.4733 36 -4.8541
    endloop
  endfacet
  facet normal 0 -1 0
    outer loop
      vertex -21.9733 36 -65.6459
      vertex 25.1459 36 -3.52671
      vertex -23.6459 36 -64.7937
    endloop
  endfacet
  facet normal 0 -1 -0
    outer loop
      vertex 24.2937 36 -1.8541
      vertex -23.6459 36 -64.7937
      vertex 25.1459 36 -3.52671
    endloop
  endfacet
  facet normal 0 -1 0
    outer loop
      vertex -23.6459 36 -64.7937
      vertex 24.2937 36 -1.8541
      vertex -25.5 36 -64.5
    endloop
  endfacet
  facet normal 0 -1 0
    outer loop
      vertex -32.2366 36 -64.5319
      vertex 24.2937 36 -1.8541
      vertex 24 36 0
    endloop
  endfacet
  facet normal 0 -1 0
    outer loop
      vertex -32.2366 36 -64.5319
      vertex 24 36 0
      vertex 23.2634 36 5.9681
    endloop
  endfacet
  facet normal 0 -1 0
    outer loop
      vertex 24.2937 36 -1.8541
      vertex -32.2366 36 -64.5319
      vertex -25.5 36 -64.5
    endloop
  endfacet
  facet normal 0 -1 0
    outer loop
      vertex -32.2366 36 -64.5319
      vertex -27.3541 36 -64.7937
      vertex -25.5 36 -64.5
    endloop
  endfacet
  facet normal 0 -1 0
    outer loop
      vertex -30.3541 36 -66.9733
      vertex -32.2366 36 -64.5319
      vertex -32.9069 36 -65.3874
    endloop
  endfacet
  facet normal 0 -1 0
    outer loop
      vertex -32.2366 36 -64.5319
      vertex -29.0267 36 -65.6459
      vertex -27.3541 36 -64.7937
    endloop
  endfacet
  facet normal 0 -1 0
    outer loop
      vertex -30.3541 36 -66.9733
      vertex -32.9069 36 -65.3874
      vertex -33.4691 36 -66.3175
    endloop
  endfacet
  facet normal 0 -1 0
    outer loop
      vertex -32.2366 36 -64.5319
      vertex -30.3541 36 -66.9733
      vertex -29.0267 36 -65.6459
    endloop
  endfacet
  facet normal 0 -1 0
    outer loop
      vertex -31.2063 36 -68.6459
      vertex -33.4691 36 -66.3175
      vertex -33.9151 36 -67.3086
    endloop
  endfacet
  facet normal 0 -1 0
    outer loop
      vertex -31.2063 36 -68.6459
      vertex -33.9151 36 -67.3086
      vertex -34.2385 36 -68.3462
    endloop
  endfacet
  facet normal 0 -1 0
    outer loop
      vertex -33.4691 36 -66.3175
      vertex -31.2063 36 -68.6459
      vertex -30.3541 36 -66.9733
    endloop
  endfacet
  facet normal 0 -1 0
    outer loop
      vertex -34.4344 36 -69.4152
      vertex -31.2063 36 -68.6459
      vertex -34.2385 36 -68.3462
    endloop
  endfacet
  facet normal 0 -1 0
    outer loop
      vertex -31.5 36 -70.5
      vertex -34.4344 36 -69.4152
      vertex -34.5 36 -70.5
    endloop
  endfacet
  facet normal 0 -1 0
    outer loop
      vertex -34.4344 36 -69.4152
      vertex -31.5 36 -70.5
      vertex -31.2063 36 -68.6459
    endloop
  endfacet
  facet normal 0 -1 0
    outer loop
      vertex -34.4344 36 -71.5848
      vertex -31.5 36 -70.5
      vertex -34.5 36 -70.5
    endloop
  endfacet
  facet normal 0 -1 0
    outer loop
      vertex -34.4344 36 -71.5848
      vertex -31.2063 36 -72.3541
      vertex -31.5 36 -70.5
    endloop
  endfacet
  facet normal 0 -1 0
    outer loop
      vertex -34.2385 36 -72.6538
      vertex -31.2063 36 -72.3541
      vertex -34.4344 36 -71.5848
    endloop
  endfacet
  facet normal 0 -1 0
    outer loop
      vertex -33.9151 36 -73.6914
      vertex -31.2063 36 -72.3541
      vertex -34.2385 36 -72.6538
    endloop
  endfacet
  facet normal 0 -1 0
    outer loop
      vertex -33.4691 36 -74.6825
      vertex -31.2063 36 -72.3541
      vertex -33.9151 36 -73.6914
    endloop
  endfacet
  facet normal 0 -1 -0
    outer loop
      vertex -31.2063 36 -72.3541
      vertex -33.4691 36 -74.6825
      vertex -30.3541 36 -74.0267
    endloop
  endfacet
  facet normal 0 -1 0
    outer loop
      vertex -32.9069 36 -75.6126
      vertex -30.3541 36 -74.0267
      vertex -33.4691 36 -74.6825
    endloop
  endfacet
  facet normal 0 -1 0
    outer loop
      vertex -32.2366 36 -76.4681
      vertex -30.3541 36 -74.0267
      vertex -32.9069 36 -75.6126
    endloop
  endfacet
  facet normal 0 -1 -0
    outer loop
      vertex -30.3541 36 -74.0267
      vertex -32.2366 36 -76.4681
      vertex -29.0267 36 -75.3541
    endloop
  endfacet
  facet normal 0 -1 0
    outer loop
      vertex -31.4681 36 -77.2366
      vertex -29.0267 36 -75.3541
      vertex -32.2366 36 -76.4681
    endloop
  endfacet
  facet normal 0 -1 0
    outer loop
      vertex -30.6126 36 -77.9069
      vertex -29.0267 36 -75.3541
      vertex -31.4681 36 -77.2366
    endloop
  endfacet
  facet normal 0 -1 0
    outer loop
      vertex -29.6825 36 -78.4691
      vertex -29.0267 36 -75.3541
      vertex -30.6126 36 -77.9069
    endloop
  endfacet
  facet normal 0 -1 -0
    outer loop
      vertex 34.1825 36 7.9691
      vertex 33.5267 36 4.8541
      vertex 35.1126 36 7.40685
    endloop
  endfacet
  facet normal 0 -1 -0
    outer loop
      vertex 35.1126 36 7.40685
      vertex 33.5267 36 4.8541
      vertex 35.9681 36 6.7366
    endloop
  endfacet
  facet normal 0 -1 -0
    outer loop
      vertex 35.9681 36 6.7366
      vertex 33.5267 36 4.8541
      vertex 36.7366 36 5.9681
    endloop
  endfacet
  facet normal 0 -1 0
    outer loop
      vertex 34.8541 36 3.52671
      vertex 36.7366 36 5.9681
      vertex 33.5267 36 4.8541
    endloop
  endfacet
  facet normal 0 -1 -0
    outer loop
      vertex 36.7366 36 5.9681
      vertex 34.8541 36 3.52671
      vertex 37.4069 36 5.11258
    endloop
  endfacet
  facet normal 0 -1 -0
    outer loop
      vertex 37.4069 36 5.11258
      vertex 34.8541 36 3.52671
      vertex 37.9691 36 4.18251
    endloop
  endfacet
  facet normal 0 -1 0
    outer loop
      vertex 35.7063 36 1.8541
      vertex 37.9691 36 4.18251
      vertex 34.8541 36 3.52671
    endloop
  endfacet
  facet normal 0 -1 -0
    outer loop
      vertex 37.9691 36 4.18251
      vertex 35.7063 36 1.8541
      vertex 38.4151 36 3.19144
    endloop
  endfacet
  facet normal 0 -1 -0
    outer loop
      vertex 38.4151 36 3.19144
      vertex 35.7063 36 1.8541
      vertex 38.7385 36 2.15384
    endloop
  endfacet
  facet normal 0 -1 0
    outer loop
      vertex 35.7063 36 1.8541
      vertex 38.9344 36 1.08483
      vertex 38.7385 36 2.15384
    endloop
  endfacet
  facet normal 0 -1 0
    outer loop
      vertex 36 36 0
      vertex 38.9344 36 1.08483
      vertex 35.7063 36 1.8541
    endloop
  endfacet
  facet normal 0 -1 0
    outer loop
      vertex 36 36 0
      vertex 39 36 0
      vertex 38.9344 36 1.08483
    endloop
  endfacet
  facet normal 0 -1 0
    outer loop
      vertex 36 36 0
      vertex 38.9344 36 -1.08483
      vertex 39 36 0
    endloop
  endfacet
  facet normal 0 -1 0
    outer loop
      vertex 35.7063 36 -1.8541
      vertex 38.9344 36 -1.08483
      vertex 36 36 0
    endloop
  endfacet
  facet normal 0 -1 0
    outer loop
      vertex 35.7063 36 -1.8541
      vertex 38.7385 36 -2.15384
      vertex 38.9344 36 -1.08483
    endloop
  endfacet
  facet normal 0 -1 0
    outer loop
      vertex 35.7063 36 -1.8541
      vertex 38.4151 36 -3.19144
      vertex 38.7385 36 -2.15384
    endloop
  endfacet
  facet normal 0 -1 0
    outer loop
      vertex 37.9691 36 -4.18251
      vertex 35.7063 36 -1.8541
      vertex 34.8541 36 -3.52671
    endloop
  endfacet
  facet normal 0 -1 0
    outer loop
      vertex 35.7063 36 -1.8541
      vertex 37.9691 36 -4.18251
      vertex 38.4151 36 -3.19144
    endloop
  endfacet
  facet normal 0 -1 0
    outer loop
      vertex 36.7366 36 -5.9681
      vertex 34.8541 36 -3.52671
      vertex 33.5267 36 -4.8541
    endloop
  endfacet
  facet normal 0 -1 0
    outer loop
      vertex 34.8541 36 -3.52671
      vertex 37.4069 36 -5.11258
      vertex 37.9691 36 -4.18251
    endloop
  endfacet
  facet normal 0 -1 0
    outer loop
      vertex 36.7366 36 -5.9681
      vertex 33.5267 36 -4.8541
      vertex 31.8541 36 -5.70634
    endloop
  endfacet
  facet normal 0 -1 0
    outer loop
      vertex 34.8541 36 -3.52671
      vertex 36.7366 36 -5.9681
      vertex 37.4069 36 -5.11258
    endloop
  endfacet
  facet normal 0 -1 0
    outer loop
      vertex 30 36 -6
      vertex 36.7366 36 -5.9681
      vertex 31.8541 36 -5.70634
    endloop
  endfacet
  facet normal 0 -1 0
    outer loop
      vertex -20.6459 36 -66.9733
      vertex 26.4733 36 -4.8541
      vertex -21.9733 36 -65.6459
    endloop
  endfacet
  facet normal 0 -1 -0
    outer loop
      vertex 26.4733 36 -4.8541
      vertex -20.6459 36 -66.9733
      vertex 28.1459 36 -5.70634
    endloop
  endfacet
  facet normal 0 -1 0
    outer loop
      vertex -19.7937 36 -68.6459
      vertex 28.1459 36 -5.70634
      vertex -20.6459 36 -66.9733
    endloop
  endfacet
  facet normal 0 -1 -0
    outer loop
      vertex 28.1459 36 -5.70634
      vertex -19.7937 36 -68.6459
      vertex 30 36 -6
    endloop
  endfacet
  facet normal 0 -1 -0
    outer loop
      vertex 30 36 -6
      vertex -19.7937 36 -68.6459
      vertex 36.7366 36 -5.9681
    endloop
  endfacet
  facet normal 0 -1 0
    outer loop
      vertex -19.5 36 -70.5
      vertex 36.7366 36 -5.9681
      vertex -19.7937 36 -68.6459
    endloop
  endfacet
  facet normal 0 -1 0
    outer loop
      vertex -18.7634 36 -76.4681
      vertex -19.5 36 -70.5
      vertex -19.7937 36 -72.3541
    endloop
  endfacet
  facet normal 0 -1 0
    outer loop
      vertex -18.7634 36 -76.4681
      vertex -19.7937 36 -72.3541
      vertex -20.6459 36 -74.0267
    endloop
  endfacet
  facet normal 0 -1 0
    outer loop
      vertex -19.5 36 -70.5
      vertex -18.7634 36 -76.4681
      vertex 36.7366 36 -5.9681
    endloop
  endfacet
  facet normal 0 -1 0
    outer loop
      vertex -21.9733 36 -75.3541
      vertex -18.7634 36 -76.4681
      vertex -20.6459 36 -74.0267
    endloop
  endfacet
  facet normal 0 -1 0
    outer loop
      vertex -21.3175 36 -78.4691
      vertex -21.9733 36 -75.3541
      vertex -23.6459 36 -76.2063
    endloop
  endfacet
  facet normal 0 -1 0
    outer loop
      vertex -24.4152 36 -79.4344
      vertex -23.6459 36 -76.2063
      vertex -25.5 36 -76.5
    endloop
  endfacet
  facet normal 0 -1 -0
    outer loop
      vertex -29.0267 36 -75.3541
      vertex -29.6825 36 -78.4691
      vertex -27.3541 36 -76.2063
    endloop
  endfacet
  facet normal 0 -1 0
    outer loop
      vertex -21.9733 36 -75.3541
      vertex -19.5319 36 -77.2366
      vertex -18.7634 36 -76.4681
    endloop
  endfacet
  facet normal 0 -1 0
    outer loop
      vertex -28.6914 36 -78.9151
      vertex -27.3541 36 -76.2063
      vertex -29.6825 36 -78.4691
    endloop
  endfacet
  facet normal 0 -1 0
    outer loop
      vertex -21.9733 36 -75.3541
      vertex -20.3874 36 -77.9069
      vertex -19.5319 36 -77.2366
    endloop
  endfacet
  facet normal 0 -1 0
    outer loop
      vertex -27.6538 36 -79.2385
      vertex -27.3541 36 -76.2063
      vertex -28.6914 36 -78.9151
    endloop
  endfacet
  facet normal 0 -1 0
    outer loop
      vertex -21.9733 36 -75.3541
      vertex -21.3175 36 -78.4691
      vertex -20.3874 36 -77.9069
    endloop
  endfacet
  facet normal 0 -1 0
    outer loop
      vertex -26.5848 36 -79.4344
      vertex -27.3541 36 -76.2063
      vertex -27.6538 36 -79.2385
    endloop
  endfacet
  facet normal 0 -1 0
    outer loop
      vertex -23.6459 36 -76.2063
      vertex -22.3086 36 -78.9151
      vertex -21.3175 36 -78.4691
    endloop
  endfacet
  facet normal 0 -1 0
    outer loop
      vertex -27.3541 36 -76.2063
      vertex -26.5848 36 -79.4344
      vertex -25.5 36 -76.5
    endloop
  endfacet
  facet normal 0 -1 0
    outer loop
      vertex -23.6459 36 -76.2063
      vertex -23.3462 36 -79.2385
      vertex -22.3086 36 -78.9151
    endloop
  endfacet
  facet normal 0 -1 0
    outer loop
      vertex -25.5 36 -79.5
      vertex -25.5 36 -76.5
      vertex -26.5848 36 -79.4344
    endloop
  endfacet
  facet normal 0 -1 -0
    outer loop
      vertex -23.6459 36 -76.2063
      vertex -24.4152 36 -79.4344
      vertex -23.3462 36 -79.2385
    endloop
  endfacet
  facet normal 0 -1 0
    outer loop
      vertex -25.5 36 -76.5
      vertex -25.5 36 -79.5
      vertex -24.4152 36 -79.4344
    endloop
  endfacet
  facet normal -0.0603788 0 -0.998176
    outer loop
      vertex -26.5848 36 -79.4344
      vertex -25.5 39 -79.5
      vertex -25.5 36 -79.5
    endloop
  endfacet
  facet normal -0.0603788 0 -0.998176
    outer loop
      vertex -25.5 39 -79.5
      vertex -26.5848 36 -79.4344
      vertex -26.5848 39 -79.4344
    endloop
  endfacet
  facet normal -0.410415 0 -0.911899
    outer loop
      vertex -29.6825 36 -78.4691
      vertex -28.6914 39 -78.9151
      vertex -28.6914 36 -78.9151
    endloop
  endfacet
  facet normal -0.410415 0 -0.911899
    outer loop
      vertex -28.6914 39 -78.9151
      vertex -29.6825 36 -78.4691
      vertex -29.6825 39 -78.4691
    endloop
  endfacet
  facet normal 0.410415 0 -0.911899
    outer loop
      vertex -22.3086 36 -78.9151
      vertex -21.3175 39 -78.4691
      vertex -21.3175 36 -78.4691
    endloop
  endfacet
  facet normal 0.410415 0 -0.911899
    outer loop
      vertex -21.3175 39 -78.4691
      vertex -22.3086 36 -78.9151
      vertex -22.3086 39 -78.9151
    endloop
  endfacet
  facet normal 0.297506 0 -0.95472
    outer loop
      vertex -23.3462 36 -79.2385
      vertex -22.3086 39 -78.9151
      vertex -22.3086 36 -78.9151
    endloop
  endfacet
  facet normal 0.297506 0 -0.95472
    outer loop
      vertex -22.3086 39 -78.9151
      vertex -23.3462 36 -79.2385
      vertex -23.3462 39 -79.2385
    endloop
  endfacet
  facet normal 0.517338 0 -0.855781
    outer loop
      vertex -21.3175 36 -78.4691
      vertex -20.3874 39 -77.9069
      vertex -20.3874 36 -77.9069
    endloop
  endfacet
  facet normal 0.517338 0 -0.855781
    outer loop
      vertex -20.3874 39 -77.9069
      vertex -21.3175 36 -78.4691
      vertex -21.3175 39 -78.4691
    endloop
  endfacet
  facet normal 0.616718 0 -0.787184
    outer loop
      vertex -20.3874 36 -77.9069
      vertex -19.5319 39 -77.2366
      vertex -19.5319 36 -77.2366
    endloop
  endfacet
  facet normal 0.616718 0 -0.787184
    outer loop
      vertex -19.5319 39 -77.2366
      vertex -20.3874 36 -77.9069
      vertex -20.3874 39 -77.9069
    endloop
  endfacet
  facet normal -0.954721 0 0.297502
    outer loop
      vertex -34.2385 36 -68.3462
      vertex -33.9151 39 -67.3086
      vertex -34.2385 39 -68.3462
    endloop
  endfacet
  facet normal -0.954721 0 0.297502
    outer loop
      vertex -33.9151 39 -67.3086
      vertex -34.2385 36 -68.3462
      vertex -33.9151 36 -67.3086
    endloop
  endfacet
  facet normal -0.707108 0 -0.707106
    outer loop
      vertex -31.4681 36 -77.2366
      vertex -32.2366 39 -76.4681
      vertex -31.4681 39 -77.2366
    endloop
  endfacet
  facet normal -0.707108 -0 -0.707106
    outer loop
      vertex -32.2366 39 -76.4681
      vertex -31.4681 36 -77.2366
      vertex -32.2366 36 -76.4681
    endloop
  endfacet
  facet normal -0.616719 0 -0.787183
    outer loop
      vertex -31.4681 36 -77.2366
      vertex -30.6126 39 -77.9069
      vertex -30.6126 36 -77.9069
    endloop
  endfacet
  facet normal -0.616719 0 -0.787183
    outer loop
      vertex -30.6126 39 -77.9069
      vertex -31.4681 36 -77.2366
      vertex -31.4681 39 -77.2366
    endloop
  endfacet
  facet normal -0.517337 0 -0.855782
    outer loop
      vertex -30.6126 36 -77.9069
      vertex -29.6825 39 -78.4691
      vertex -29.6825 36 -78.4691
    endloop
  endfacet
  facet normal -0.517337 0 -0.855782
    outer loop
      vertex -29.6825 39 -78.4691
      vertex -30.6126 36 -77.9069
      vertex -30.6126 39 -77.9069
    endloop
  endfacet
  facet normal -0.297505 0 -0.95472
    outer loop
      vertex -28.6914 36 -78.9151
      vertex -27.6538 39 -79.2385
      vertex -27.6538 36 -79.2385
    endloop
  endfacet
  facet normal -0.297505 0 -0.95472
    outer loop
      vertex -27.6538 39 -79.2385
      vertex -28.6914 36 -78.9151
      vertex -28.6914 39 -78.9151
    endloop
  endfacet
  facet normal 0.180252 0 -0.98362
    outer loop
      vertex -24.4152 36 -79.4344
      vertex -23.3462 39 -79.2385
      vertex -23.3462 36 -79.2385
    endloop
  endfacet
  facet normal 0.180252 0 -0.98362
    outer loop
      vertex -23.3462 39 -79.2385
      vertex -24.4152 36 -79.4344
      vertex -24.4152 39 -79.4344
    endloop
  endfacet
  facet normal -0.180252 0 -0.98362
    outer loop
      vertex -27.6538 36 -79.2385
      vertex -26.5848 39 -79.4344
      vertex -26.5848 36 -79.4344
    endloop
  endfacet
  facet normal -0.180252 0 -0.98362
    outer loop
      vertex -26.5848 39 -79.4344
      vertex -27.6538 36 -79.2385
      vertex -27.6538 39 -79.2385
    endloop
  endfacet
  facet normal -0.987688 0 -0.156436
    outer loop
      vertex 36 36 0
      vertex 35.7063 39 1.8541
      vertex 36 39 0
    endloop
  endfacet
  facet normal -0.987688 -0 -0.156436
    outer loop
      vertex 35.7063 39 1.8541
      vertex 36 36 0
      vertex 35.7063 36 1.8541
    endloop
  endfacet
  facet normal -0.891007 0 -0.453989
    outer loop
      vertex 35.7063 36 1.8541
      vertex 34.8541 39 3.52671
      vertex 35.7063 39 1.8541
    endloop
  endfacet
  facet normal -0.891007 -0 -0.453989
    outer loop
      vertex 34.8541 39 3.52671
      vertex 35.7063 36 1.8541
      vertex 34.8541 36 3.52671
    endloop
  endfacet
  facet normal 0.707107 0 0.707107
    outer loop
      vertex 25.1459 39 -3.52671
      vertex 26.4733 36 -4.8541
      vertex 26.4733 39 -4.8541
    endloop
  endfacet
  facet normal 0.707107 0 0.707107
    outer loop
      vertex 26.4733 36 -4.8541
      vertex 25.1459 39 -3.52671
      vertex 25.1459 36 -3.52671
    endloop
  endfacet
  facet normal 0.156434 0 -0.987688
    outer loop
      vertex 28.1459 36 5.70634
      vertex 30 39 6
      vertex 30 36 6
    endloop
  endfacet
  facet normal 0.156434 0 -0.987688
    outer loop
      vertex 30 39 6
      vertex 28.1459 36 5.70634
      vertex 28.1459 39 5.70634
    endloop
  endfacet
  facet normal 0.707107 0 -0.707107
    outer loop
      vertex 25.1459 36 3.52671
      vertex 26.4733 39 4.8541
      vertex 26.4733 36 4.8541
    endloop
  endfacet
  facet normal 0.707107 0 -0.707107
    outer loop
      vertex 26.4733 39 4.8541
      vertex 25.1459 36 3.52671
      vertex 25.1459 39 3.52671
    endloop
  endfacet
  facet normal -0.707106 0 0.707108
    outer loop
      vertex 33.5267 39 -4.8541
      vertex 34.8541 36 -3.52671
      vertex 34.8541 39 -3.52671
    endloop
  endfacet
  facet normal -0.707106 0 0.707108
    outer loop
      vertex 34.8541 36 -3.52671
      vertex 33.5267 39 -4.8541
      vertex 33.5267 36 -4.8541
    endloop
  endfacet
  facet normal -0.453991 0 -0.891006
    outer loop
      vertex 31.8541 36 5.70634
      vertex 33.5267 39 4.8541
      vertex 33.5267 36 4.8541
    endloop
  endfacet
  facet normal -0.453991 0 -0.891006
    outer loop
      vertex 33.5267 39 4.8541
      vertex 31.8541 36 5.70634
      vertex 31.8541 39 5.70634
    endloop
  endfacet
  facet normal -0.707106 0 -0.707108
    outer loop
      vertex 33.5267 36 4.8541
      vertex 34.8541 39 3.52671
      vertex 34.8541 36 3.52671
    endloop
  endfacet
  facet normal -0.707106 0 -0.707108
    outer loop
      vertex 34.8541 39 3.52671
      vertex 33.5267 36 4.8541
      vertex 33.5267 39 4.8541
    endloop
  endfacet
  facet normal -0.156435 0 -0.987688
    outer loop
      vertex 30 36 6
      vertex 31.8541 39 5.70634
      vertex 31.8541 36 5.70634
    endloop
  endfacet
  facet normal -0.156435 0 -0.987688
    outer loop
      vertex 31.8541 39 5.70634
      vertex 30 36 6
      vertex 30 39 6
    endloop
  endfacet
  facet normal 0.987688 -0 0.156434
    outer loop
      vertex 24 36 0
      vertex 24.2937 39 -1.8541
      vertex 24 39 0
    endloop
  endfacet
  facet normal 0.987688 0 0.156434
    outer loop
      vertex 24.2937 39 -1.8541
      vertex 24 36 0
      vertex 24.2937 36 -1.8541
    endloop
  endfacet
  facet normal 0.891006 0 -0.453991
    outer loop
      vertex 25.1459 36 3.52671
      vertex 24.2937 39 1.8541
      vertex 25.1459 39 3.52671
    endloop
  endfacet
  facet normal 0.891006 0 -0.453991
    outer loop
      vertex 24.2937 39 1.8541
      vertex 25.1459 36 3.52671
      vertex 24.2937 36 1.8541
    endloop
  endfacet
  facet normal 0.453991 0 -0.891006
    outer loop
      vertex 26.4733 36 4.8541
      vertex 28.1459 39 5.70634
      vertex 28.1459 36 5.70634
    endloop
  endfacet
  facet normal 0.453991 0 -0.891006
    outer loop
      vertex 28.1459 39 5.70634
      vertex 26.4733 36 4.8541
      vertex 26.4733 39 4.8541
    endloop
  endfacet
  facet normal 0.453991 0 0.891006
    outer loop
      vertex 26.4733 39 -4.8541
      vertex 28.1459 36 -5.70634
      vertex 28.1459 39 -5.70634
    endloop
  endfacet
  facet normal 0.453991 0 0.891006
    outer loop
      vertex 28.1459 36 -5.70634
      vertex 26.4733 39 -4.8541
      vertex 26.4733 36 -4.8541
    endloop
  endfacet
  facet normal 0.891006 -0 0.453991
    outer loop
      vertex 24.2937 36 -1.8541
      vertex 25.1459 39 -3.52671
      vertex 24.2937 39 -1.8541
    endloop
  endfacet
  facet normal 0.891006 0 0.453991
    outer loop
      vertex 25.1459 39 -3.52671
      vertex 24.2937 36 -1.8541
      vertex 25.1459 36 -3.52671
    endloop
  endfacet
  facet normal -0.156435 0 0.987688
    outer loop
      vertex 30 39 -6
      vertex 31.8541 36 -5.70634
      vertex 31.8541 39 -5.70634
    endloop
  endfacet
  facet normal -0.156435 0 0.987688
    outer loop
      vertex 31.8541 36 -5.70634
      vertex 30 39 -6
      vertex 30 36 -6
    endloop
  endfacet
  facet normal -0.453991 0 0.891006
    outer loop
      vertex 31.8541 39 -5.70634
      vertex 33.5267 36 -4.8541
      vertex 33.5267 39 -4.8541
    endloop
  endfacet
  facet normal -0.453991 0 0.891006
    outer loop
      vertex 33.5267 36 -4.8541
      vertex 31.8541 39 -5.70634
      vertex 31.8541 36 -5.70634
    endloop
  endfacet
  facet normal 0.987688 0 -0.156434
    outer loop
      vertex 24.2937 36 1.8541
      vertex 24 39 0
      vertex 24.2937 39 1.8541
    endloop
  endfacet
  facet normal 0.987688 0 -0.156434
    outer loop
      vertex 24 39 0
      vertex 24.2937 36 1.8541
      vertex 24 36 0
    endloop
  endfacet
  facet normal -0.987688 0 0.156436
    outer loop
      vertex 35.7063 36 -1.8541
      vertex 36 39 0
      vertex 35.7063 39 -1.8541
    endloop
  endfacet
  facet normal -0.987688 0 0.156436
    outer loop
      vertex 36 39 0
      vertex 35.7063 36 -1.8541
      vertex 36 36 0
    endloop
  endfacet
  facet normal 0.156434 0 0.987688
    outer loop
      vertex 28.1459 39 -5.70634
      vertex 30 36 -6
      vertex 30 39 -6
    endloop
  endfacet
  facet normal 0.156434 0 0.987688
    outer loop
      vertex 30 36 -6
      vertex 28.1459 39 -5.70634
      vertex 28.1459 36 -5.70634
    endloop
  endfacet
  facet normal -0.891007 0 0.453989
    outer loop
      vertex 34.8541 36 -3.52671
      vertex 35.7063 39 -1.8541
      vertex 34.8541 39 -3.52671
    endloop
  endfacet
  facet normal -0.891007 0 0.453989
    outer loop
      vertex 35.7063 39 -1.8541
      vertex 34.8541 36 -3.52671
      vertex 35.7063 36 -1.8541
    endloop
  endfacet
  facet normal -0.987688 0 -0.156433
    outer loop
      vertex -19.5 36 -70.5
      vertex -19.7937 39 -68.6459
      vertex -19.5 39 -70.5
    endloop
  endfacet
  facet normal -0.987688 -0 -0.156433
    outer loop
      vertex -19.7937 39 -68.6459
      vertex -19.5 36 -70.5
      vertex -19.7937 36 -68.6459
    endloop
  endfacet
  facet normal 0.987688 0 -0.156434
    outer loop
      vertex -31.2063 36 -68.6459
      vertex -31.5 39 -70.5
      vertex -31.2063 39 -68.6459
    endloop
  endfacet
  facet normal 0.987688 0 -0.156434
    outer loop
      vertex -31.5 39 -70.5
      vertex -31.2063 36 -68.6459
      vertex -31.5 36 -70.5
    endloop
  endfacet
  facet normal -0.987688 0 0.156433
    outer loop
      vertex -19.7937 36 -72.3541
      vertex -19.5 39 -70.5
      vertex -19.7937 39 -72.3541
    endloop
  endfacet
  facet normal -0.987688 0 0.156433
    outer loop
      vertex -19.5 39 -70.5
      vertex -19.7937 36 -72.3541
      vertex -19.5 36 -70.5
    endloop
  endfacet
  facet normal 0.156436 0 0.987688
    outer loop
      vertex -27.3541 39 -76.2063
      vertex -25.5 36 -76.5
      vertex -25.5 39 -76.5
    endloop
  endfacet
  facet normal 0.156436 0 0.987688
    outer loop
      vertex -25.5 36 -76.5
      vertex -27.3541 39 -76.2063
      vertex -27.3541 36 -76.2063
    endloop
  endfacet
  facet normal 0.156436 0 -0.987688
    outer loop
      vertex -27.3541 36 -64.7937
      vertex -25.5 39 -64.5
      vertex -25.5 36 -64.5
    endloop
  endfacet
  facet normal 0.156436 0 -0.987688
    outer loop
      vertex -25.5 39 -64.5
      vertex -27.3541 36 -64.7937
      vertex -27.3541 39 -64.7937
    endloop
  endfacet
  facet normal -0.156435 0 -0.987688
    outer loop
      vertex -25.5 36 -64.5
      vertex -23.6459 39 -64.7937
      vertex -23.6459 36 -64.7937
    endloop
  endfacet
  facet normal -0.156435 0 -0.987688
    outer loop
      vertex -23.6459 39 -64.7937
      vertex -25.5 36 -64.5
      vertex -25.5 39 -64.5
    endloop
  endfacet
  facet normal 0.707107 0 -0.707106
    outer loop
      vertex -29.0267 36 -65.6459
      vertex -30.3541 39 -66.9733
      vertex -29.0267 39 -65.6459
    endloop
  endfacet
  facet normal 0.707107 0 -0.707106
    outer loop
      vertex -30.3541 39 -66.9733
      vertex -29.0267 36 -65.6459
      vertex -30.3541 36 -66.9733
    endloop
  endfacet
  facet normal -0.891006 0 0.453991
    outer loop
      vertex -20.6459 36 -74.0267
      vertex -19.7937 39 -72.3541
      vertex -20.6459 39 -74.0267
    endloop
  endfacet
  facet normal -0.891006 0 0.453991
    outer loop
      vertex -19.7937 39 -72.3541
      vertex -20.6459 36 -74.0267
      vertex -19.7937 36 -72.3541
    endloop
  endfacet
  facet normal -0.891006 0 -0.453991
    outer loop
      vertex -19.7937 36 -68.6459
      vertex -20.6459 39 -66.9733
      vertex -19.7937 39 -68.6459
    endloop
  endfacet
  facet normal -0.891006 -0 -0.453991
    outer loop
      vertex -20.6459 39 -66.9733
      vertex -19.7937 36 -68.6459
      vertex -20.6459 36 -66.9733
    endloop
  endfacet
  facet normal 0.891006 0 -0.453991
    outer loop
      vertex -30.3541 36 -66.9733
      vertex -31.2063 39 -68.6459
      vertex -30.3541 39 -66.9733
    endloop
  endfacet
  facet normal 0.891006 0 -0.453991
    outer loop
      vertex -31.2063 39 -68.6459
      vertex -30.3541 36 -66.9733
      vertex -31.2063 36 -68.6459
    endloop
  endfacet
  facet normal 0.453989 0 -0.891007
    outer loop
      vertex -29.0267 36 -65.6459
      vertex -27.3541 39 -64.7937
      vertex -27.3541 36 -64.7937
    endloop
  endfacet
  facet normal 0.453989 0 -0.891007
    outer loop
      vertex -27.3541 39 -64.7937
      vertex -29.0267 36 -65.6459
      vertex -29.0267 39 -65.6459
    endloop
  endfacet
  facet normal -0.156435 0 0.987688
    outer loop
      vertex -25.5 39 -76.5
      vertex -23.6459 36 -76.2063
      vertex -23.6459 39 -76.2063
    endloop
  endfacet
  facet normal -0.156435 0 0.987688
    outer loop
      vertex -23.6459 36 -76.2063
      vertex -25.5 39 -76.5
      vertex -25.5 36 -76.5
    endloop
  endfacet
  facet normal 0.707107 -0 0.707106
    outer loop
      vertex -30.3541 36 -74.0267
      vertex -29.0267 39 -75.3541
      vertex -30.3541 39 -74.0267
    endloop
  endfacet
  facet normal 0.707107 0 0.707106
    outer loop
      vertex -29.0267 39 -75.3541
      vertex -30.3541 36 -74.0267
      vertex -29.0267 36 -75.3541
    endloop
  endfacet
  facet normal 0.987688 -0 0.156434
    outer loop
      vertex -31.5 36 -70.5
      vertex -31.2063 39 -72.3541
      vertex -31.5 39 -70.5
    endloop
  endfacet
  facet normal 0.987688 0 0.156434
    outer loop
      vertex -31.2063 39 -72.3541
      vertex -31.5 36 -70.5
      vertex -31.2063 36 -72.3541
    endloop
  endfacet
  facet normal 0.891006 -0 0.453991
    outer loop
      vertex -31.2063 36 -72.3541
      vertex -30.3541 39 -74.0267
      vertex -31.2063 39 -72.3541
    endloop
  endfacet
  facet normal 0.891006 0 0.453991
    outer loop
      vertex -30.3541 39 -74.0267
      vertex -31.2063 36 -72.3541
      vertex -30.3541 36 -74.0267
    endloop
  endfacet
  facet normal -0.707107 0 -0.707106
    outer loop
      vertex -20.6459 36 -66.9733
      vertex -21.9733 39 -65.6459
      vertex -20.6459 39 -66.9733
    endloop
  endfacet
  facet normal -0.707107 -0 -0.707106
    outer loop
      vertex -21.9733 39 -65.6459
      vertex -20.6459 36 -66.9733
      vertex -21.9733 36 -65.6459
    endloop
  endfacet
  facet normal -0.453989 0 -0.891007
    outer loop
      vertex -23.6459 36 -64.7937
      vertex -21.9733 39 -65.6459
      vertex -21.9733 36 -65.6459
    endloop
  endfacet
  facet normal -0.453989 0 -0.891007
    outer loop
      vertex -21.9733 39 -65.6459
      vertex -23.6459 36 -64.7937
      vertex -23.6459 39 -64.7937
    endloop
  endfacet
  facet normal -0.453989 0 0.891007
    outer loop
      vertex -23.6459 39 -76.2063
      vertex -21.9733 36 -75.3541
      vertex -21.9733 39 -75.3541
    endloop
  endfacet
  facet normal -0.453989 0 0.891007
    outer loop
      vertex -21.9733 36 -75.3541
      vertex -23.6459 39 -76.2063
      vertex -23.6459 36 -76.2063
    endloop
  endfacet
  facet normal -0.707107 0 0.707106
    outer loop
      vertex -21.9733 36 -75.3541
      vertex -20.6459 39 -74.0267
      vertex -21.9733 39 -75.3541
    endloop
  endfacet
  facet normal -0.707107 0 0.707106
    outer loop
      vertex -20.6459 39 -74.0267
      vertex -21.9733 36 -75.3541
      vertex -20.6459 36 -74.0267
    endloop
  endfacet
  facet normal 0.453989 0 0.891007
    outer loop
      vertex -29.0267 39 -75.3541
      vertex -27.3541 36 -76.2063
      vertex -27.3541 39 -76.2063
    endloop
  endfacet
  facet normal 0.453989 0 0.891007
    outer loop
      vertex -27.3541 36 -76.2063
      vertex -29.0267 39 -75.3541
      vertex -29.0267 36 -75.3541
    endloop
  endfacet
endsolid OpenSCAD_Model
